M48
; DRILL file {KiCad (5.1.5-0-10_14)} date Thursday, June 10, 2021 at 10:19:51 pm
; FORMAT={-:-/ absolute / inch / decimal}
; #@! TF.CreationDate,2021-06-10T22:19:51-06:00
; #@! TF.GenerationSoftware,Kicad,Pcbnew,(5.1.5-0-10_14)
; #@! TF.FileFunction,Plated,1,2,PTH
FMAT,2
INCH
T1C0.0315
T2C0.0394
T3C0.0400
T4C0.1181
%
G90
G05
T1
X4.61Y-2.58
X4.61Y-3.18
X4.71Y-2.58
X4.71Y-3.18
X4.81Y-2.58
X4.81Y-3.18
X4.91Y-2.58
X4.91Y-3.18
X5.01Y-2.58
X5.01Y-3.18
X5.11Y-2.58
X5.11Y-3.18
X5.21Y-2.58
X5.21Y-3.18
X5.31Y-2.58
X5.31Y-3.18
X5.41Y-2.58
X5.41Y-3.18
X5.51Y-2.58
X5.51Y-3.18
X5.61Y-2.58
X5.61Y-3.18
X5.71Y-2.58
X5.71Y-3.18
X5.81Y-2.58
X5.81Y-3.18
X5.91Y-2.58
X5.91Y-3.18
X6.01Y-2.58
X6.01Y-3.18
X6.11Y-2.58
X6.11Y-3.18
T2
X6.28Y-2.79
X6.28Y-2.89
X6.42Y-2.79
X6.42Y-2.89
X4.34Y-2.57
X4.34Y-2.67
X4.34Y-2.77
X4.34Y-2.87
X4.44Y-2.57
X4.44Y-2.67
X4.44Y-2.77
X4.44Y-2.87
X6.24Y-2.58
X6.34Y-2.58
X6.44Y-2.58
T3
X4.73Y-3.49
X4.73Y-3.79
X4.83Y-3.49
X4.83Y-3.79
X4.93Y-3.49
X4.93Y-3.79
X5.025Y-3.49
X5.03Y-3.79
X5.13Y-3.49
X5.13Y-3.79
X5.23Y-3.49
X5.23Y-3.79
X5.33Y-3.49
X5.33Y-3.79
X5.43Y-3.49
X5.43Y-3.79
X5.53Y-3.49
X5.53Y-3.79
X5.63Y-3.49
X5.63Y-3.79
X5.73Y-3.49
X5.73Y-3.79
X5.83Y-3.49
X5.83Y-3.79
X5.93Y-3.49
X5.93Y-3.79
X6.03Y-3.49
X6.03Y-3.79
T4
X4.38Y-3.1
X6.28Y-3.24
T0
M30
