G04 #@! TF.GenerationSoftware,KiCad,Pcbnew,(5.1.5-0-10_14)*
G04 #@! TF.CreationDate,2021-06-10T22:19:53-06:00*
G04 #@! TF.ProjectId,tc531000-tl866-adapter,74633533-3130-4303-902d-746c3836362d,rev?*
G04 #@! TF.SameCoordinates,Original*
G04 #@! TF.FileFunction,Copper,L2,Bot*
G04 #@! TF.FilePolarity,Positive*
%FSLAX46Y46*%
G04 Gerber Fmt 4.6, Leading zero omitted, Abs format (unit mm)*
G04 Created by KiCad (PCBNEW (5.1.5-0-10_14)) date 2021-06-10 22:19:53*
%MOMM*%
%LPD*%
G04 APERTURE LIST*
%ADD10O,1.700000X1.700000*%
%ADD11R,1.700000X1.700000*%
%ADD12O,1.600000X2.400000*%
%ADD13R,1.600000X2.400000*%
%ADD14C,1.524000*%
%ADD15R,1.524000X1.524000*%
%ADD16C,4.000000*%
%ADD17C,0.250000*%
%ADD18C,0.254000*%
G04 APERTURE END LIST*
D10*
X163576000Y-65532000D03*
X161036000Y-65532000D03*
D11*
X158496000Y-65532000D03*
D10*
X112776000Y-72898000D03*
X110236000Y-72898000D03*
X112776000Y-70358000D03*
X110236000Y-70358000D03*
X112776000Y-67818000D03*
X110236000Y-67818000D03*
X112776000Y-65278000D03*
D11*
X110236000Y-65278000D03*
D10*
X159512000Y-70866000D03*
D11*
X159512000Y-73406000D03*
D12*
X117094000Y-65532000D03*
X155194000Y-80772000D03*
X119634000Y-65532000D03*
X152654000Y-80772000D03*
X122174000Y-65532000D03*
X150114000Y-80772000D03*
X124714000Y-65532000D03*
X147574000Y-80772000D03*
X127254000Y-65532000D03*
X145034000Y-80772000D03*
X129794000Y-65532000D03*
X142494000Y-80772000D03*
X132334000Y-65532000D03*
X139954000Y-80772000D03*
X134874000Y-65532000D03*
X137414000Y-80772000D03*
X137414000Y-65532000D03*
X134874000Y-80772000D03*
X139954000Y-65532000D03*
X132334000Y-80772000D03*
X142494000Y-65532000D03*
X129794000Y-80772000D03*
X145034000Y-65532000D03*
X127254000Y-80772000D03*
X147574000Y-65532000D03*
X124714000Y-80772000D03*
X150114000Y-65532000D03*
X122174000Y-80772000D03*
X152654000Y-65532000D03*
X119634000Y-80772000D03*
X155194000Y-65532000D03*
D13*
X117094000Y-80772000D03*
D14*
X120142000Y-88646000D03*
X122682000Y-88646000D03*
X125222000Y-88646000D03*
X127635000Y-88646000D03*
X130302000Y-88646000D03*
X132842000Y-88646000D03*
X135382000Y-88646000D03*
X137922000Y-88646000D03*
X140462000Y-88646000D03*
X143002000Y-88646000D03*
X145542000Y-88646000D03*
X148082000Y-88646000D03*
X150622000Y-88646000D03*
X153162000Y-88646000D03*
X153162000Y-96266000D03*
X150622000Y-96266000D03*
X148082000Y-96266000D03*
X145542000Y-96266000D03*
X143002000Y-96266000D03*
X140462000Y-96266000D03*
X137922000Y-96266000D03*
X135382000Y-96266000D03*
X132842000Y-96266000D03*
X130302000Y-96266000D03*
X127762000Y-96266000D03*
X125222000Y-96266000D03*
X122682000Y-96266000D03*
D15*
X120142000Y-96266000D03*
D16*
X159512000Y-82296000D03*
X111252000Y-78740000D03*
D10*
X163068000Y-70866000D03*
D11*
X163068000Y-73406000D03*
D17*
X135382000Y-88646000D02*
X132080000Y-85344000D01*
X119634000Y-82222000D02*
X119634000Y-80772000D01*
X122756000Y-85344000D02*
X119634000Y-82222000D01*
X132080000Y-85344000D02*
X122756000Y-85344000D01*
X142494000Y-66982000D02*
X142494000Y-65532000D01*
X145202999Y-69690999D02*
X142494000Y-66982000D01*
X161892999Y-69690999D02*
X145202999Y-69690999D01*
X163068000Y-70866000D02*
X161892999Y-69690999D01*
X137414000Y-66982000D02*
X137414000Y-65532000D01*
X141298000Y-70866000D02*
X137414000Y-66982000D01*
X159512000Y-70866000D02*
X141298000Y-70866000D01*
X140462000Y-88646000D02*
X145542000Y-83566000D01*
X154391004Y-83566000D02*
X157226000Y-80731004D01*
X145542000Y-83566000D02*
X154391004Y-83566000D01*
X158412000Y-73406000D02*
X159512000Y-73406000D01*
X157226000Y-74592000D02*
X158412000Y-73406000D01*
X157226000Y-80731004D02*
X157226000Y-74592000D01*
X163068000Y-73406000D02*
X159512000Y-73406000D01*
D18*
G36*
X164440001Y-64323313D02*
G01*
X164279411Y-64216010D01*
X164009158Y-64104068D01*
X163722260Y-64047000D01*
X163429740Y-64047000D01*
X163142842Y-64104068D01*
X162872589Y-64216010D01*
X162629368Y-64378525D01*
X162422525Y-64585368D01*
X162306000Y-64759760D01*
X162189475Y-64585368D01*
X161982632Y-64378525D01*
X161739411Y-64216010D01*
X161469158Y-64104068D01*
X161182260Y-64047000D01*
X160889740Y-64047000D01*
X160602842Y-64104068D01*
X160332589Y-64216010D01*
X160089368Y-64378525D01*
X159957513Y-64510380D01*
X159935502Y-64437820D01*
X159876537Y-64327506D01*
X159797185Y-64230815D01*
X159700494Y-64151463D01*
X159590180Y-64092498D01*
X159470482Y-64056188D01*
X159346000Y-64043928D01*
X157646000Y-64043928D01*
X157521518Y-64056188D01*
X157401820Y-64092498D01*
X157291506Y-64151463D01*
X157194815Y-64230815D01*
X157115463Y-64327506D01*
X157056498Y-64437820D01*
X157020188Y-64557518D01*
X157007928Y-64682000D01*
X157007928Y-66382000D01*
X157020188Y-66506482D01*
X157056498Y-66626180D01*
X157115463Y-66736494D01*
X157194815Y-66833185D01*
X157291506Y-66912537D01*
X157401820Y-66971502D01*
X157521518Y-67007812D01*
X157646000Y-67020072D01*
X159346000Y-67020072D01*
X159470482Y-67007812D01*
X159590180Y-66971502D01*
X159700494Y-66912537D01*
X159797185Y-66833185D01*
X159876537Y-66736494D01*
X159935502Y-66626180D01*
X159957513Y-66553620D01*
X160089368Y-66685475D01*
X160332589Y-66847990D01*
X160602842Y-66959932D01*
X160889740Y-67017000D01*
X161182260Y-67017000D01*
X161469158Y-66959932D01*
X161739411Y-66847990D01*
X161982632Y-66685475D01*
X162189475Y-66478632D01*
X162306000Y-66304240D01*
X162422525Y-66478632D01*
X162629368Y-66685475D01*
X162872589Y-66847990D01*
X163142842Y-66959932D01*
X163429740Y-67017000D01*
X163722260Y-67017000D01*
X164009158Y-66959932D01*
X164279411Y-66847990D01*
X164440001Y-66740687D01*
X164440001Y-70297812D01*
X164383990Y-70162589D01*
X164221475Y-69919368D01*
X164014632Y-69712525D01*
X163771411Y-69550010D01*
X163501158Y-69438068D01*
X163214260Y-69381000D01*
X162921740Y-69381000D01*
X162701592Y-69424791D01*
X162456803Y-69180002D01*
X162433000Y-69150998D01*
X162317275Y-69056025D01*
X162185246Y-68985453D01*
X162041985Y-68941996D01*
X161930332Y-68930999D01*
X161930321Y-68930999D01*
X161892999Y-68927323D01*
X161855677Y-68930999D01*
X145517801Y-68930999D01*
X143524787Y-66937986D01*
X143692932Y-66733101D01*
X143764000Y-66600142D01*
X143835068Y-66733101D01*
X144014393Y-66951608D01*
X144232900Y-67130932D01*
X144482193Y-67264182D01*
X144752692Y-67346236D01*
X145034000Y-67373943D01*
X145315309Y-67346236D01*
X145585808Y-67264182D01*
X145835101Y-67130932D01*
X146053608Y-66951608D01*
X146232932Y-66733101D01*
X146304000Y-66600142D01*
X146375068Y-66733101D01*
X146554393Y-66951608D01*
X146772900Y-67130932D01*
X147022193Y-67264182D01*
X147292692Y-67346236D01*
X147574000Y-67373943D01*
X147855309Y-67346236D01*
X148125808Y-67264182D01*
X148375101Y-67130932D01*
X148593608Y-66951608D01*
X148772932Y-66733101D01*
X148844000Y-66600142D01*
X148915068Y-66733101D01*
X149094393Y-66951608D01*
X149312900Y-67130932D01*
X149562193Y-67264182D01*
X149832692Y-67346236D01*
X150114000Y-67373943D01*
X150395309Y-67346236D01*
X150665808Y-67264182D01*
X150915101Y-67130932D01*
X151133608Y-66951608D01*
X151312932Y-66733101D01*
X151384000Y-66600142D01*
X151455068Y-66733101D01*
X151634393Y-66951608D01*
X151852900Y-67130932D01*
X152102193Y-67264182D01*
X152372692Y-67346236D01*
X152654000Y-67373943D01*
X152935309Y-67346236D01*
X153205808Y-67264182D01*
X153455101Y-67130932D01*
X153673608Y-66951608D01*
X153852932Y-66733101D01*
X153924000Y-66600142D01*
X153995068Y-66733101D01*
X154174393Y-66951608D01*
X154392900Y-67130932D01*
X154642193Y-67264182D01*
X154912692Y-67346236D01*
X155194000Y-67373943D01*
X155475309Y-67346236D01*
X155745808Y-67264182D01*
X155995101Y-67130932D01*
X156213608Y-66951608D01*
X156392932Y-66733101D01*
X156526182Y-66483808D01*
X156608236Y-66213309D01*
X156629000Y-66002491D01*
X156629000Y-65061508D01*
X156608236Y-64850691D01*
X156526182Y-64580192D01*
X156392932Y-64330899D01*
X156213607Y-64112392D01*
X155995100Y-63933068D01*
X155745807Y-63799818D01*
X155475308Y-63717764D01*
X155194000Y-63690057D01*
X154912691Y-63717764D01*
X154642192Y-63799818D01*
X154392899Y-63933068D01*
X154174392Y-64112393D01*
X153995068Y-64330900D01*
X153924000Y-64463858D01*
X153852932Y-64330899D01*
X153673607Y-64112392D01*
X153455100Y-63933068D01*
X153205807Y-63799818D01*
X152935308Y-63717764D01*
X152654000Y-63690057D01*
X152372691Y-63717764D01*
X152102192Y-63799818D01*
X151852899Y-63933068D01*
X151634392Y-64112393D01*
X151455068Y-64330900D01*
X151384000Y-64463858D01*
X151312932Y-64330899D01*
X151133607Y-64112392D01*
X150915100Y-63933068D01*
X150665807Y-63799818D01*
X150395308Y-63717764D01*
X150114000Y-63690057D01*
X149832691Y-63717764D01*
X149562192Y-63799818D01*
X149312899Y-63933068D01*
X149094392Y-64112393D01*
X148915068Y-64330900D01*
X148844000Y-64463858D01*
X148772932Y-64330899D01*
X148593607Y-64112392D01*
X148375100Y-63933068D01*
X148125807Y-63799818D01*
X147855308Y-63717764D01*
X147574000Y-63690057D01*
X147292691Y-63717764D01*
X147022192Y-63799818D01*
X146772899Y-63933068D01*
X146554392Y-64112393D01*
X146375068Y-64330900D01*
X146304000Y-64463858D01*
X146232932Y-64330899D01*
X146053607Y-64112392D01*
X145835100Y-63933068D01*
X145585807Y-63799818D01*
X145315308Y-63717764D01*
X145034000Y-63690057D01*
X144752691Y-63717764D01*
X144482192Y-63799818D01*
X144232899Y-63933068D01*
X144014392Y-64112393D01*
X143835068Y-64330900D01*
X143764000Y-64463858D01*
X143692932Y-64330899D01*
X143513607Y-64112392D01*
X143295100Y-63933068D01*
X143045807Y-63799818D01*
X142775308Y-63717764D01*
X142494000Y-63690057D01*
X142212691Y-63717764D01*
X141942192Y-63799818D01*
X141692899Y-63933068D01*
X141474392Y-64112393D01*
X141295068Y-64330900D01*
X141224000Y-64463858D01*
X141152932Y-64330899D01*
X140973607Y-64112392D01*
X140755100Y-63933068D01*
X140505807Y-63799818D01*
X140235308Y-63717764D01*
X139954000Y-63690057D01*
X139672691Y-63717764D01*
X139402192Y-63799818D01*
X139152899Y-63933068D01*
X138934392Y-64112393D01*
X138755068Y-64330900D01*
X138684000Y-64463858D01*
X138612932Y-64330899D01*
X138433607Y-64112392D01*
X138215100Y-63933068D01*
X137965807Y-63799818D01*
X137695308Y-63717764D01*
X137414000Y-63690057D01*
X137132691Y-63717764D01*
X136862192Y-63799818D01*
X136612899Y-63933068D01*
X136394392Y-64112393D01*
X136215068Y-64330900D01*
X136144000Y-64463858D01*
X136072932Y-64330899D01*
X135893607Y-64112392D01*
X135675100Y-63933068D01*
X135425807Y-63799818D01*
X135155308Y-63717764D01*
X134874000Y-63690057D01*
X134592691Y-63717764D01*
X134322192Y-63799818D01*
X134072899Y-63933068D01*
X133854392Y-64112393D01*
X133675068Y-64330900D01*
X133604000Y-64463858D01*
X133532932Y-64330899D01*
X133353607Y-64112392D01*
X133135100Y-63933068D01*
X132885807Y-63799818D01*
X132615308Y-63717764D01*
X132334000Y-63690057D01*
X132052691Y-63717764D01*
X131782192Y-63799818D01*
X131532899Y-63933068D01*
X131314392Y-64112393D01*
X131135068Y-64330900D01*
X131064000Y-64463858D01*
X130992932Y-64330899D01*
X130813607Y-64112392D01*
X130595100Y-63933068D01*
X130345807Y-63799818D01*
X130075308Y-63717764D01*
X129794000Y-63690057D01*
X129512691Y-63717764D01*
X129242192Y-63799818D01*
X128992899Y-63933068D01*
X128774392Y-64112393D01*
X128595068Y-64330900D01*
X128524000Y-64463858D01*
X128452932Y-64330899D01*
X128273607Y-64112392D01*
X128055100Y-63933068D01*
X127805807Y-63799818D01*
X127535308Y-63717764D01*
X127254000Y-63690057D01*
X126972691Y-63717764D01*
X126702192Y-63799818D01*
X126452899Y-63933068D01*
X126234392Y-64112393D01*
X126055068Y-64330900D01*
X125984000Y-64463858D01*
X125912932Y-64330899D01*
X125733607Y-64112392D01*
X125515100Y-63933068D01*
X125265807Y-63799818D01*
X124995308Y-63717764D01*
X124714000Y-63690057D01*
X124432691Y-63717764D01*
X124162192Y-63799818D01*
X123912899Y-63933068D01*
X123694392Y-64112393D01*
X123515068Y-64330900D01*
X123444000Y-64463858D01*
X123372932Y-64330899D01*
X123193607Y-64112392D01*
X122975100Y-63933068D01*
X122725807Y-63799818D01*
X122455308Y-63717764D01*
X122174000Y-63690057D01*
X121892691Y-63717764D01*
X121622192Y-63799818D01*
X121372899Y-63933068D01*
X121154392Y-64112393D01*
X120975068Y-64330900D01*
X120904000Y-64463858D01*
X120832932Y-64330899D01*
X120653607Y-64112392D01*
X120435100Y-63933068D01*
X120185807Y-63799818D01*
X119915308Y-63717764D01*
X119634000Y-63690057D01*
X119352691Y-63717764D01*
X119082192Y-63799818D01*
X118832899Y-63933068D01*
X118614392Y-64112393D01*
X118435068Y-64330900D01*
X118364000Y-64463858D01*
X118292932Y-64330899D01*
X118113607Y-64112392D01*
X117895100Y-63933068D01*
X117645807Y-63799818D01*
X117375308Y-63717764D01*
X117094000Y-63690057D01*
X116812691Y-63717764D01*
X116542192Y-63799818D01*
X116292899Y-63933068D01*
X116074392Y-64112393D01*
X115895068Y-64330900D01*
X115761818Y-64580193D01*
X115679764Y-64850692D01*
X115659000Y-65061509D01*
X115659000Y-66002492D01*
X115679764Y-66213309D01*
X115761818Y-66483808D01*
X115895068Y-66733101D01*
X116074393Y-66951608D01*
X116292900Y-67130932D01*
X116542193Y-67264182D01*
X116812692Y-67346236D01*
X117094000Y-67373943D01*
X117375309Y-67346236D01*
X117645808Y-67264182D01*
X117895101Y-67130932D01*
X118113608Y-66951608D01*
X118292932Y-66733101D01*
X118364000Y-66600142D01*
X118435068Y-66733101D01*
X118614393Y-66951608D01*
X118832900Y-67130932D01*
X119082193Y-67264182D01*
X119352692Y-67346236D01*
X119634000Y-67373943D01*
X119915309Y-67346236D01*
X120185808Y-67264182D01*
X120435101Y-67130932D01*
X120653608Y-66951608D01*
X120832932Y-66733101D01*
X120904000Y-66600142D01*
X120975068Y-66733101D01*
X121154393Y-66951608D01*
X121372900Y-67130932D01*
X121622193Y-67264182D01*
X121892692Y-67346236D01*
X122174000Y-67373943D01*
X122455309Y-67346236D01*
X122725808Y-67264182D01*
X122975101Y-67130932D01*
X123193608Y-66951608D01*
X123372932Y-66733101D01*
X123444000Y-66600142D01*
X123515068Y-66733101D01*
X123694393Y-66951608D01*
X123912900Y-67130932D01*
X124162193Y-67264182D01*
X124432692Y-67346236D01*
X124714000Y-67373943D01*
X124995309Y-67346236D01*
X125265808Y-67264182D01*
X125515101Y-67130932D01*
X125733608Y-66951608D01*
X125912932Y-66733101D01*
X125984000Y-66600142D01*
X126055068Y-66733101D01*
X126234393Y-66951608D01*
X126452900Y-67130932D01*
X126702193Y-67264182D01*
X126972692Y-67346236D01*
X127254000Y-67373943D01*
X127535309Y-67346236D01*
X127805808Y-67264182D01*
X128055101Y-67130932D01*
X128273608Y-66951608D01*
X128452932Y-66733101D01*
X128524000Y-66600142D01*
X128595068Y-66733101D01*
X128774393Y-66951608D01*
X128992900Y-67130932D01*
X129242193Y-67264182D01*
X129512692Y-67346236D01*
X129794000Y-67373943D01*
X130075309Y-67346236D01*
X130345808Y-67264182D01*
X130595101Y-67130932D01*
X130813608Y-66951608D01*
X130992932Y-66733101D01*
X131064000Y-66600142D01*
X131135068Y-66733101D01*
X131314393Y-66951608D01*
X131532900Y-67130932D01*
X131782193Y-67264182D01*
X132052692Y-67346236D01*
X132334000Y-67373943D01*
X132615309Y-67346236D01*
X132885808Y-67264182D01*
X133135101Y-67130932D01*
X133353608Y-66951608D01*
X133532932Y-66733101D01*
X133604000Y-66600142D01*
X133675068Y-66733101D01*
X133854393Y-66951608D01*
X134072900Y-67130932D01*
X134322193Y-67264182D01*
X134592692Y-67346236D01*
X134874000Y-67373943D01*
X135155309Y-67346236D01*
X135425808Y-67264182D01*
X135675101Y-67130932D01*
X135893608Y-66951608D01*
X136072932Y-66733101D01*
X136144000Y-66600142D01*
X136215068Y-66733101D01*
X136394393Y-66951608D01*
X136612900Y-67130932D01*
X136675059Y-67164157D01*
X136705401Y-67264182D01*
X136708454Y-67274246D01*
X136779026Y-67406276D01*
X136818871Y-67454826D01*
X136873999Y-67522001D01*
X136903003Y-67545804D01*
X140734205Y-71377008D01*
X140757999Y-71406001D01*
X140786992Y-71429795D01*
X140786996Y-71429799D01*
X140836065Y-71470068D01*
X140873724Y-71500974D01*
X141005753Y-71571546D01*
X141149014Y-71615003D01*
X141260667Y-71626000D01*
X141260676Y-71626000D01*
X141297999Y-71629676D01*
X141335322Y-71626000D01*
X158233822Y-71626000D01*
X158358525Y-71812632D01*
X158490380Y-71944487D01*
X158417820Y-71966498D01*
X158307506Y-72025463D01*
X158210815Y-72104815D01*
X158131463Y-72201506D01*
X158072498Y-72311820D01*
X158036188Y-72431518D01*
X158023928Y-72556000D01*
X158023928Y-72751674D01*
X157987724Y-72771026D01*
X157871999Y-72865999D01*
X157848201Y-72894997D01*
X156714998Y-74028201D01*
X156686000Y-74051999D01*
X156662202Y-74080997D01*
X156662201Y-74080998D01*
X156591026Y-74167724D01*
X156520454Y-74299754D01*
X156476998Y-74443015D01*
X156462324Y-74592000D01*
X156466001Y-74629332D01*
X156466000Y-79697618D01*
X156316601Y-79469161D01*
X156118895Y-79267500D01*
X155885646Y-79108285D01*
X155625818Y-78997633D01*
X155543039Y-78980096D01*
X155321000Y-79102085D01*
X155321000Y-80645000D01*
X155341000Y-80645000D01*
X155341000Y-80899000D01*
X155321000Y-80899000D01*
X155321000Y-80919000D01*
X155067000Y-80919000D01*
X155067000Y-80899000D01*
X155047000Y-80899000D01*
X155047000Y-80645000D01*
X155067000Y-80645000D01*
X155067000Y-79102085D01*
X154844961Y-78980096D01*
X154762182Y-78997633D01*
X154502354Y-79108285D01*
X154269105Y-79267500D01*
X154071399Y-79469161D01*
X153921265Y-79698741D01*
X153852932Y-79570899D01*
X153673607Y-79352392D01*
X153455100Y-79173068D01*
X153205807Y-79039818D01*
X152935308Y-78957764D01*
X152654000Y-78930057D01*
X152372691Y-78957764D01*
X152102192Y-79039818D01*
X151852899Y-79173068D01*
X151634392Y-79352393D01*
X151455068Y-79570900D01*
X151384000Y-79703858D01*
X151312932Y-79570899D01*
X151133607Y-79352392D01*
X150915100Y-79173068D01*
X150665807Y-79039818D01*
X150395308Y-78957764D01*
X150114000Y-78930057D01*
X149832691Y-78957764D01*
X149562192Y-79039818D01*
X149312899Y-79173068D01*
X149094392Y-79352393D01*
X148915068Y-79570900D01*
X148844000Y-79703858D01*
X148772932Y-79570899D01*
X148593607Y-79352392D01*
X148375100Y-79173068D01*
X148125807Y-79039818D01*
X147855308Y-78957764D01*
X147574000Y-78930057D01*
X147292691Y-78957764D01*
X147022192Y-79039818D01*
X146772899Y-79173068D01*
X146554392Y-79352393D01*
X146375068Y-79570900D01*
X146304000Y-79703858D01*
X146232932Y-79570899D01*
X146053607Y-79352392D01*
X145835100Y-79173068D01*
X145585807Y-79039818D01*
X145315308Y-78957764D01*
X145034000Y-78930057D01*
X144752691Y-78957764D01*
X144482192Y-79039818D01*
X144232899Y-79173068D01*
X144014392Y-79352393D01*
X143835068Y-79570900D01*
X143764000Y-79703858D01*
X143692932Y-79570899D01*
X143513607Y-79352392D01*
X143295100Y-79173068D01*
X143045807Y-79039818D01*
X142775308Y-78957764D01*
X142494000Y-78930057D01*
X142212691Y-78957764D01*
X141942192Y-79039818D01*
X141692899Y-79173068D01*
X141474392Y-79352393D01*
X141295068Y-79570900D01*
X141224000Y-79703858D01*
X141152932Y-79570899D01*
X140973607Y-79352392D01*
X140755100Y-79173068D01*
X140505807Y-79039818D01*
X140235308Y-78957764D01*
X139954000Y-78930057D01*
X139672691Y-78957764D01*
X139402192Y-79039818D01*
X139152899Y-79173068D01*
X138934392Y-79352393D01*
X138755068Y-79570900D01*
X138684000Y-79703858D01*
X138612932Y-79570899D01*
X138433607Y-79352392D01*
X138215100Y-79173068D01*
X137965807Y-79039818D01*
X137695308Y-78957764D01*
X137414000Y-78930057D01*
X137132691Y-78957764D01*
X136862192Y-79039818D01*
X136612899Y-79173068D01*
X136394392Y-79352393D01*
X136215068Y-79570900D01*
X136144000Y-79703858D01*
X136072932Y-79570899D01*
X135893607Y-79352392D01*
X135675100Y-79173068D01*
X135425807Y-79039818D01*
X135155308Y-78957764D01*
X134874000Y-78930057D01*
X134592691Y-78957764D01*
X134322192Y-79039818D01*
X134072899Y-79173068D01*
X133854392Y-79352393D01*
X133675068Y-79570900D01*
X133604000Y-79703858D01*
X133532932Y-79570899D01*
X133353607Y-79352392D01*
X133135100Y-79173068D01*
X132885807Y-79039818D01*
X132615308Y-78957764D01*
X132334000Y-78930057D01*
X132052691Y-78957764D01*
X131782192Y-79039818D01*
X131532899Y-79173068D01*
X131314392Y-79352393D01*
X131135068Y-79570900D01*
X131064000Y-79703858D01*
X130992932Y-79570899D01*
X130813607Y-79352392D01*
X130595100Y-79173068D01*
X130345807Y-79039818D01*
X130075308Y-78957764D01*
X129794000Y-78930057D01*
X129512691Y-78957764D01*
X129242192Y-79039818D01*
X128992899Y-79173068D01*
X128774392Y-79352393D01*
X128595068Y-79570900D01*
X128524000Y-79703858D01*
X128452932Y-79570899D01*
X128273607Y-79352392D01*
X128055100Y-79173068D01*
X127805807Y-79039818D01*
X127535308Y-78957764D01*
X127254000Y-78930057D01*
X126972691Y-78957764D01*
X126702192Y-79039818D01*
X126452899Y-79173068D01*
X126234392Y-79352393D01*
X126055068Y-79570900D01*
X125984000Y-79703858D01*
X125912932Y-79570899D01*
X125733607Y-79352392D01*
X125515100Y-79173068D01*
X125265807Y-79039818D01*
X124995308Y-78957764D01*
X124714000Y-78930057D01*
X124432691Y-78957764D01*
X124162192Y-79039818D01*
X123912899Y-79173068D01*
X123694392Y-79352393D01*
X123515068Y-79570900D01*
X123444000Y-79703858D01*
X123372932Y-79570899D01*
X123193607Y-79352392D01*
X122975100Y-79173068D01*
X122725807Y-79039818D01*
X122455308Y-78957764D01*
X122174000Y-78930057D01*
X121892691Y-78957764D01*
X121622192Y-79039818D01*
X121372899Y-79173068D01*
X121154392Y-79352393D01*
X120975068Y-79570900D01*
X120904000Y-79703858D01*
X120832932Y-79570899D01*
X120653607Y-79352392D01*
X120435100Y-79173068D01*
X120185807Y-79039818D01*
X119915308Y-78957764D01*
X119634000Y-78930057D01*
X119352691Y-78957764D01*
X119082192Y-79039818D01*
X118832899Y-79173068D01*
X118614392Y-79352393D01*
X118521581Y-79465483D01*
X118519812Y-79447518D01*
X118483502Y-79327820D01*
X118424537Y-79217506D01*
X118345185Y-79120815D01*
X118248494Y-79041463D01*
X118138180Y-78982498D01*
X118018482Y-78946188D01*
X117894000Y-78933928D01*
X116294000Y-78933928D01*
X116169518Y-78946188D01*
X116049820Y-78982498D01*
X115939506Y-79041463D01*
X115842815Y-79120815D01*
X115763463Y-79217506D01*
X115704498Y-79327820D01*
X115668188Y-79447518D01*
X115655928Y-79572000D01*
X115655928Y-81972000D01*
X115668188Y-82096482D01*
X115704498Y-82216180D01*
X115763463Y-82326494D01*
X115842815Y-82423185D01*
X115939506Y-82502537D01*
X116049820Y-82561502D01*
X116169518Y-82597812D01*
X116294000Y-82610072D01*
X117894000Y-82610072D01*
X118018482Y-82597812D01*
X118138180Y-82561502D01*
X118248494Y-82502537D01*
X118345185Y-82423185D01*
X118424537Y-82326494D01*
X118483502Y-82216180D01*
X118519812Y-82096482D01*
X118521581Y-82078517D01*
X118614393Y-82191608D01*
X118832900Y-82370932D01*
X118895059Y-82404157D01*
X118916733Y-82475605D01*
X118928454Y-82514246D01*
X118999026Y-82646276D01*
X119038871Y-82694826D01*
X119093999Y-82762001D01*
X119123003Y-82785804D01*
X122192200Y-85855002D01*
X122215999Y-85884001D01*
X122331724Y-85978974D01*
X122463753Y-86049546D01*
X122607014Y-86093003D01*
X122718667Y-86104000D01*
X122718675Y-86104000D01*
X122756000Y-86107676D01*
X122793325Y-86104000D01*
X131765199Y-86104000D01*
X132910199Y-87249000D01*
X132704408Y-87249000D01*
X132434510Y-87302686D01*
X132180273Y-87407995D01*
X131951465Y-87560880D01*
X131756880Y-87755465D01*
X131603995Y-87984273D01*
X131572000Y-88061515D01*
X131540005Y-87984273D01*
X131387120Y-87755465D01*
X131192535Y-87560880D01*
X130963727Y-87407995D01*
X130709490Y-87302686D01*
X130439592Y-87249000D01*
X130164408Y-87249000D01*
X129894510Y-87302686D01*
X129640273Y-87407995D01*
X129411465Y-87560880D01*
X129216880Y-87755465D01*
X129063995Y-87984273D01*
X128968500Y-88214817D01*
X128873005Y-87984273D01*
X128720120Y-87755465D01*
X128525535Y-87560880D01*
X128296727Y-87407995D01*
X128042490Y-87302686D01*
X127772592Y-87249000D01*
X127497408Y-87249000D01*
X127227510Y-87302686D01*
X126973273Y-87407995D01*
X126744465Y-87560880D01*
X126549880Y-87755465D01*
X126428500Y-87937123D01*
X126307120Y-87755465D01*
X126112535Y-87560880D01*
X125883727Y-87407995D01*
X125629490Y-87302686D01*
X125359592Y-87249000D01*
X125084408Y-87249000D01*
X124814510Y-87302686D01*
X124560273Y-87407995D01*
X124331465Y-87560880D01*
X124136880Y-87755465D01*
X123983995Y-87984273D01*
X123952000Y-88061515D01*
X123920005Y-87984273D01*
X123767120Y-87755465D01*
X123572535Y-87560880D01*
X123343727Y-87407995D01*
X123089490Y-87302686D01*
X122819592Y-87249000D01*
X122544408Y-87249000D01*
X122274510Y-87302686D01*
X122020273Y-87407995D01*
X121791465Y-87560880D01*
X121596880Y-87755465D01*
X121443995Y-87984273D01*
X121412000Y-88061515D01*
X121380005Y-87984273D01*
X121227120Y-87755465D01*
X121032535Y-87560880D01*
X120803727Y-87407995D01*
X120549490Y-87302686D01*
X120279592Y-87249000D01*
X120004408Y-87249000D01*
X119734510Y-87302686D01*
X119480273Y-87407995D01*
X119251465Y-87560880D01*
X119056880Y-87755465D01*
X118903995Y-87984273D01*
X118798686Y-88238510D01*
X118745000Y-88508408D01*
X118745000Y-88783592D01*
X118798686Y-89053490D01*
X118903995Y-89307727D01*
X119056880Y-89536535D01*
X119251465Y-89731120D01*
X119480273Y-89884005D01*
X119734510Y-89989314D01*
X120004408Y-90043000D01*
X120279592Y-90043000D01*
X120549490Y-89989314D01*
X120803727Y-89884005D01*
X121032535Y-89731120D01*
X121227120Y-89536535D01*
X121380005Y-89307727D01*
X121412000Y-89230485D01*
X121443995Y-89307727D01*
X121596880Y-89536535D01*
X121791465Y-89731120D01*
X122020273Y-89884005D01*
X122274510Y-89989314D01*
X122544408Y-90043000D01*
X122819592Y-90043000D01*
X123089490Y-89989314D01*
X123343727Y-89884005D01*
X123572535Y-89731120D01*
X123767120Y-89536535D01*
X123920005Y-89307727D01*
X123952000Y-89230485D01*
X123983995Y-89307727D01*
X124136880Y-89536535D01*
X124331465Y-89731120D01*
X124560273Y-89884005D01*
X124814510Y-89989314D01*
X125084408Y-90043000D01*
X125359592Y-90043000D01*
X125629490Y-89989314D01*
X125883727Y-89884005D01*
X126112535Y-89731120D01*
X126307120Y-89536535D01*
X126428500Y-89354877D01*
X126549880Y-89536535D01*
X126744465Y-89731120D01*
X126973273Y-89884005D01*
X127227510Y-89989314D01*
X127497408Y-90043000D01*
X127772592Y-90043000D01*
X128042490Y-89989314D01*
X128296727Y-89884005D01*
X128525535Y-89731120D01*
X128720120Y-89536535D01*
X128873005Y-89307727D01*
X128968500Y-89077183D01*
X129063995Y-89307727D01*
X129216880Y-89536535D01*
X129411465Y-89731120D01*
X129640273Y-89884005D01*
X129894510Y-89989314D01*
X130164408Y-90043000D01*
X130439592Y-90043000D01*
X130709490Y-89989314D01*
X130963727Y-89884005D01*
X131192535Y-89731120D01*
X131387120Y-89536535D01*
X131540005Y-89307727D01*
X131572000Y-89230485D01*
X131603995Y-89307727D01*
X131756880Y-89536535D01*
X131951465Y-89731120D01*
X132180273Y-89884005D01*
X132434510Y-89989314D01*
X132704408Y-90043000D01*
X132979592Y-90043000D01*
X133249490Y-89989314D01*
X133503727Y-89884005D01*
X133732535Y-89731120D01*
X133927120Y-89536535D01*
X134080005Y-89307727D01*
X134112000Y-89230485D01*
X134143995Y-89307727D01*
X134296880Y-89536535D01*
X134491465Y-89731120D01*
X134720273Y-89884005D01*
X134974510Y-89989314D01*
X135244408Y-90043000D01*
X135519592Y-90043000D01*
X135789490Y-89989314D01*
X136043727Y-89884005D01*
X136272535Y-89731120D01*
X136467120Y-89536535D01*
X136620005Y-89307727D01*
X136652000Y-89230485D01*
X136683995Y-89307727D01*
X136836880Y-89536535D01*
X137031465Y-89731120D01*
X137260273Y-89884005D01*
X137514510Y-89989314D01*
X137784408Y-90043000D01*
X138059592Y-90043000D01*
X138329490Y-89989314D01*
X138583727Y-89884005D01*
X138812535Y-89731120D01*
X139007120Y-89536535D01*
X139160005Y-89307727D01*
X139192000Y-89230485D01*
X139223995Y-89307727D01*
X139376880Y-89536535D01*
X139571465Y-89731120D01*
X139800273Y-89884005D01*
X140054510Y-89989314D01*
X140324408Y-90043000D01*
X140599592Y-90043000D01*
X140869490Y-89989314D01*
X141123727Y-89884005D01*
X141352535Y-89731120D01*
X141547120Y-89536535D01*
X141700005Y-89307727D01*
X141732000Y-89230485D01*
X141763995Y-89307727D01*
X141916880Y-89536535D01*
X142111465Y-89731120D01*
X142340273Y-89884005D01*
X142594510Y-89989314D01*
X142864408Y-90043000D01*
X143139592Y-90043000D01*
X143409490Y-89989314D01*
X143663727Y-89884005D01*
X143892535Y-89731120D01*
X144087120Y-89536535D01*
X144240005Y-89307727D01*
X144272000Y-89230485D01*
X144303995Y-89307727D01*
X144456880Y-89536535D01*
X144651465Y-89731120D01*
X144880273Y-89884005D01*
X145134510Y-89989314D01*
X145404408Y-90043000D01*
X145679592Y-90043000D01*
X145949490Y-89989314D01*
X146203727Y-89884005D01*
X146432535Y-89731120D01*
X146627120Y-89536535D01*
X146780005Y-89307727D01*
X146812000Y-89230485D01*
X146843995Y-89307727D01*
X146996880Y-89536535D01*
X147191465Y-89731120D01*
X147420273Y-89884005D01*
X147674510Y-89989314D01*
X147944408Y-90043000D01*
X148219592Y-90043000D01*
X148489490Y-89989314D01*
X148743727Y-89884005D01*
X148972535Y-89731120D01*
X149167120Y-89536535D01*
X149320005Y-89307727D01*
X149352000Y-89230485D01*
X149383995Y-89307727D01*
X149536880Y-89536535D01*
X149731465Y-89731120D01*
X149960273Y-89884005D01*
X150214510Y-89989314D01*
X150484408Y-90043000D01*
X150759592Y-90043000D01*
X151029490Y-89989314D01*
X151283727Y-89884005D01*
X151512535Y-89731120D01*
X151707120Y-89536535D01*
X151860005Y-89307727D01*
X151892000Y-89230485D01*
X151923995Y-89307727D01*
X152076880Y-89536535D01*
X152271465Y-89731120D01*
X152500273Y-89884005D01*
X152754510Y-89989314D01*
X153024408Y-90043000D01*
X153299592Y-90043000D01*
X153569490Y-89989314D01*
X153823727Y-89884005D01*
X154052535Y-89731120D01*
X154247120Y-89536535D01*
X154400005Y-89307727D01*
X154505314Y-89053490D01*
X154559000Y-88783592D01*
X154559000Y-88508408D01*
X154505314Y-88238510D01*
X154400005Y-87984273D01*
X154247120Y-87755465D01*
X154052535Y-87560880D01*
X153823727Y-87407995D01*
X153569490Y-87302686D01*
X153299592Y-87249000D01*
X153024408Y-87249000D01*
X152754510Y-87302686D01*
X152500273Y-87407995D01*
X152271465Y-87560880D01*
X152076880Y-87755465D01*
X151923995Y-87984273D01*
X151892000Y-88061515D01*
X151860005Y-87984273D01*
X151707120Y-87755465D01*
X151512535Y-87560880D01*
X151283727Y-87407995D01*
X151029490Y-87302686D01*
X150759592Y-87249000D01*
X150484408Y-87249000D01*
X150214510Y-87302686D01*
X149960273Y-87407995D01*
X149731465Y-87560880D01*
X149536880Y-87755465D01*
X149383995Y-87984273D01*
X149352000Y-88061515D01*
X149320005Y-87984273D01*
X149167120Y-87755465D01*
X148972535Y-87560880D01*
X148743727Y-87407995D01*
X148489490Y-87302686D01*
X148219592Y-87249000D01*
X147944408Y-87249000D01*
X147674510Y-87302686D01*
X147420273Y-87407995D01*
X147191465Y-87560880D01*
X146996880Y-87755465D01*
X146843995Y-87984273D01*
X146812000Y-88061515D01*
X146780005Y-87984273D01*
X146627120Y-87755465D01*
X146432535Y-87560880D01*
X146203727Y-87407995D01*
X145949490Y-87302686D01*
X145679592Y-87249000D01*
X145404408Y-87249000D01*
X145134510Y-87302686D01*
X144880273Y-87407995D01*
X144651465Y-87560880D01*
X144456880Y-87755465D01*
X144303995Y-87984273D01*
X144272000Y-88061515D01*
X144240005Y-87984273D01*
X144087120Y-87755465D01*
X143892535Y-87560880D01*
X143663727Y-87407995D01*
X143409490Y-87302686D01*
X143139592Y-87249000D01*
X142933801Y-87249000D01*
X145856802Y-84326000D01*
X154353682Y-84326000D01*
X154391004Y-84329676D01*
X154428326Y-84326000D01*
X154428337Y-84326000D01*
X154539990Y-84315003D01*
X154683251Y-84271546D01*
X154815280Y-84200974D01*
X154885313Y-84143499D01*
X157844106Y-84143499D01*
X158060228Y-84510258D01*
X158520105Y-84750938D01*
X159018098Y-84897275D01*
X159535071Y-84943648D01*
X160051159Y-84888273D01*
X160546526Y-84733279D01*
X160963772Y-84510258D01*
X161179894Y-84143499D01*
X159512000Y-82475605D01*
X157844106Y-84143499D01*
X154885313Y-84143499D01*
X154931005Y-84106001D01*
X154954808Y-84076997D01*
X156879292Y-82152513D01*
X156864352Y-82319071D01*
X156919727Y-82835159D01*
X157074721Y-83330526D01*
X157297742Y-83747772D01*
X157664501Y-83963894D01*
X159332395Y-82296000D01*
X159691605Y-82296000D01*
X161359499Y-83963894D01*
X161726258Y-83747772D01*
X161966938Y-83287895D01*
X162113275Y-82789902D01*
X162159648Y-82272929D01*
X162104273Y-81756841D01*
X161949279Y-81261474D01*
X161726258Y-80844228D01*
X161359499Y-80628106D01*
X159691605Y-82296000D01*
X159332395Y-82296000D01*
X159318253Y-82281858D01*
X159497858Y-82102253D01*
X159512000Y-82116395D01*
X161179894Y-80448501D01*
X160963772Y-80081742D01*
X160503895Y-79841062D01*
X160005902Y-79694725D01*
X159488929Y-79648352D01*
X158972841Y-79703727D01*
X158477474Y-79858721D01*
X158060228Y-80081742D01*
X157986000Y-80207707D01*
X157986000Y-74906801D01*
X158199457Y-74693345D01*
X158210815Y-74707185D01*
X158307506Y-74786537D01*
X158417820Y-74845502D01*
X158537518Y-74881812D01*
X158662000Y-74894072D01*
X160362000Y-74894072D01*
X160486482Y-74881812D01*
X160606180Y-74845502D01*
X160716494Y-74786537D01*
X160813185Y-74707185D01*
X160892537Y-74610494D01*
X160951502Y-74500180D01*
X160987812Y-74380482D01*
X161000072Y-74256000D01*
X161000072Y-74166000D01*
X161579928Y-74166000D01*
X161579928Y-74256000D01*
X161592188Y-74380482D01*
X161628498Y-74500180D01*
X161687463Y-74610494D01*
X161766815Y-74707185D01*
X161863506Y-74786537D01*
X161973820Y-74845502D01*
X162093518Y-74881812D01*
X162218000Y-74894072D01*
X163918000Y-74894072D01*
X164042482Y-74881812D01*
X164162180Y-74845502D01*
X164272494Y-74786537D01*
X164369185Y-74707185D01*
X164440001Y-74620896D01*
X164440000Y-97384000D01*
X153905434Y-97384000D01*
X153947960Y-97231565D01*
X153162000Y-96445605D01*
X152376040Y-97231565D01*
X152418566Y-97384000D01*
X151463327Y-97384000D01*
X151512535Y-97351120D01*
X151707120Y-97156535D01*
X151860005Y-96927727D01*
X151889692Y-96856057D01*
X151894364Y-96869023D01*
X151956344Y-96984980D01*
X152196435Y-97051960D01*
X152982395Y-96266000D01*
X153341605Y-96266000D01*
X154127565Y-97051960D01*
X154367656Y-96984980D01*
X154484756Y-96735952D01*
X154551023Y-96468865D01*
X154563910Y-96193983D01*
X154522922Y-95921867D01*
X154429636Y-95662977D01*
X154367656Y-95547020D01*
X154127565Y-95480040D01*
X153341605Y-96266000D01*
X152982395Y-96266000D01*
X152196435Y-95480040D01*
X151956344Y-95547020D01*
X151892515Y-95682760D01*
X151860005Y-95604273D01*
X151707120Y-95375465D01*
X151632090Y-95300435D01*
X152376040Y-95300435D01*
X153162000Y-96086395D01*
X153947960Y-95300435D01*
X153880980Y-95060344D01*
X153631952Y-94943244D01*
X153364865Y-94876977D01*
X153089983Y-94864090D01*
X152817867Y-94905078D01*
X152558977Y-94998364D01*
X152443020Y-95060344D01*
X152376040Y-95300435D01*
X151632090Y-95300435D01*
X151512535Y-95180880D01*
X151283727Y-95027995D01*
X151029490Y-94922686D01*
X150759592Y-94869000D01*
X150484408Y-94869000D01*
X150214510Y-94922686D01*
X149960273Y-95027995D01*
X149731465Y-95180880D01*
X149536880Y-95375465D01*
X149383995Y-95604273D01*
X149352000Y-95681515D01*
X149320005Y-95604273D01*
X149167120Y-95375465D01*
X148972535Y-95180880D01*
X148743727Y-95027995D01*
X148489490Y-94922686D01*
X148219592Y-94869000D01*
X147944408Y-94869000D01*
X147674510Y-94922686D01*
X147420273Y-95027995D01*
X147191465Y-95180880D01*
X146996880Y-95375465D01*
X146843995Y-95604273D01*
X146812000Y-95681515D01*
X146780005Y-95604273D01*
X146627120Y-95375465D01*
X146432535Y-95180880D01*
X146203727Y-95027995D01*
X145949490Y-94922686D01*
X145679592Y-94869000D01*
X145404408Y-94869000D01*
X145134510Y-94922686D01*
X144880273Y-95027995D01*
X144651465Y-95180880D01*
X144456880Y-95375465D01*
X144303995Y-95604273D01*
X144272000Y-95681515D01*
X144240005Y-95604273D01*
X144087120Y-95375465D01*
X143892535Y-95180880D01*
X143663727Y-95027995D01*
X143409490Y-94922686D01*
X143139592Y-94869000D01*
X142864408Y-94869000D01*
X142594510Y-94922686D01*
X142340273Y-95027995D01*
X142111465Y-95180880D01*
X141916880Y-95375465D01*
X141763995Y-95604273D01*
X141732000Y-95681515D01*
X141700005Y-95604273D01*
X141547120Y-95375465D01*
X141352535Y-95180880D01*
X141123727Y-95027995D01*
X140869490Y-94922686D01*
X140599592Y-94869000D01*
X140324408Y-94869000D01*
X140054510Y-94922686D01*
X139800273Y-95027995D01*
X139571465Y-95180880D01*
X139376880Y-95375465D01*
X139223995Y-95604273D01*
X139192000Y-95681515D01*
X139160005Y-95604273D01*
X139007120Y-95375465D01*
X138812535Y-95180880D01*
X138583727Y-95027995D01*
X138329490Y-94922686D01*
X138059592Y-94869000D01*
X137784408Y-94869000D01*
X137514510Y-94922686D01*
X137260273Y-95027995D01*
X137031465Y-95180880D01*
X136836880Y-95375465D01*
X136683995Y-95604273D01*
X136652000Y-95681515D01*
X136620005Y-95604273D01*
X136467120Y-95375465D01*
X136272535Y-95180880D01*
X136043727Y-95027995D01*
X135789490Y-94922686D01*
X135519592Y-94869000D01*
X135244408Y-94869000D01*
X134974510Y-94922686D01*
X134720273Y-95027995D01*
X134491465Y-95180880D01*
X134296880Y-95375465D01*
X134143995Y-95604273D01*
X134112000Y-95681515D01*
X134080005Y-95604273D01*
X133927120Y-95375465D01*
X133732535Y-95180880D01*
X133503727Y-95027995D01*
X133249490Y-94922686D01*
X132979592Y-94869000D01*
X132704408Y-94869000D01*
X132434510Y-94922686D01*
X132180273Y-95027995D01*
X131951465Y-95180880D01*
X131756880Y-95375465D01*
X131603995Y-95604273D01*
X131572000Y-95681515D01*
X131540005Y-95604273D01*
X131387120Y-95375465D01*
X131192535Y-95180880D01*
X130963727Y-95027995D01*
X130709490Y-94922686D01*
X130439592Y-94869000D01*
X130164408Y-94869000D01*
X129894510Y-94922686D01*
X129640273Y-95027995D01*
X129411465Y-95180880D01*
X129216880Y-95375465D01*
X129063995Y-95604273D01*
X129032000Y-95681515D01*
X129000005Y-95604273D01*
X128847120Y-95375465D01*
X128652535Y-95180880D01*
X128423727Y-95027995D01*
X128169490Y-94922686D01*
X127899592Y-94869000D01*
X127624408Y-94869000D01*
X127354510Y-94922686D01*
X127100273Y-95027995D01*
X126871465Y-95180880D01*
X126676880Y-95375465D01*
X126523995Y-95604273D01*
X126492000Y-95681515D01*
X126460005Y-95604273D01*
X126307120Y-95375465D01*
X126112535Y-95180880D01*
X125883727Y-95027995D01*
X125629490Y-94922686D01*
X125359592Y-94869000D01*
X125084408Y-94869000D01*
X124814510Y-94922686D01*
X124560273Y-95027995D01*
X124331465Y-95180880D01*
X124136880Y-95375465D01*
X123983995Y-95604273D01*
X123952000Y-95681515D01*
X123920005Y-95604273D01*
X123767120Y-95375465D01*
X123572535Y-95180880D01*
X123343727Y-95027995D01*
X123089490Y-94922686D01*
X122819592Y-94869000D01*
X122544408Y-94869000D01*
X122274510Y-94922686D01*
X122020273Y-95027995D01*
X121791465Y-95180880D01*
X121596880Y-95375465D01*
X121538080Y-95463465D01*
X121529812Y-95379518D01*
X121493502Y-95259820D01*
X121434537Y-95149506D01*
X121355185Y-95052815D01*
X121258494Y-94973463D01*
X121148180Y-94914498D01*
X121028482Y-94878188D01*
X120904000Y-94865928D01*
X119380000Y-94865928D01*
X119255518Y-94878188D01*
X119135820Y-94914498D01*
X119025506Y-94973463D01*
X118928815Y-95052815D01*
X118849463Y-95149506D01*
X118790498Y-95259820D01*
X118754188Y-95379518D01*
X118741928Y-95504000D01*
X118741928Y-97028000D01*
X118754188Y-97152482D01*
X118790498Y-97272180D01*
X118849463Y-97382494D01*
X118850699Y-97384000D01*
X109372000Y-97384000D01*
X109372000Y-80586453D01*
X109572285Y-80786738D01*
X110003859Y-81075107D01*
X110483399Y-81273739D01*
X110992475Y-81375000D01*
X111511525Y-81375000D01*
X112020601Y-81273739D01*
X112500141Y-81075107D01*
X112931715Y-80786738D01*
X113298738Y-80419715D01*
X113587107Y-79988141D01*
X113785739Y-79508601D01*
X113887000Y-78999525D01*
X113887000Y-78480475D01*
X113785739Y-77971399D01*
X113587107Y-77491859D01*
X113298738Y-77060285D01*
X112931715Y-76693262D01*
X112500141Y-76404893D01*
X112020601Y-76206261D01*
X111511525Y-76105000D01*
X110992475Y-76105000D01*
X110483399Y-76206261D01*
X110003859Y-76404893D01*
X109572285Y-76693262D01*
X109372000Y-76893547D01*
X109372000Y-74106688D01*
X109532589Y-74213990D01*
X109802842Y-74325932D01*
X110089740Y-74383000D01*
X110382260Y-74383000D01*
X110669158Y-74325932D01*
X110939411Y-74213990D01*
X111182632Y-74051475D01*
X111389475Y-73844632D01*
X111506000Y-73670240D01*
X111622525Y-73844632D01*
X111829368Y-74051475D01*
X112072589Y-74213990D01*
X112342842Y-74325932D01*
X112629740Y-74383000D01*
X112922260Y-74383000D01*
X113209158Y-74325932D01*
X113479411Y-74213990D01*
X113722632Y-74051475D01*
X113929475Y-73844632D01*
X114091990Y-73601411D01*
X114203932Y-73331158D01*
X114261000Y-73044260D01*
X114261000Y-72751740D01*
X114203932Y-72464842D01*
X114091990Y-72194589D01*
X113929475Y-71951368D01*
X113722632Y-71744525D01*
X113548240Y-71628000D01*
X113722632Y-71511475D01*
X113929475Y-71304632D01*
X114091990Y-71061411D01*
X114203932Y-70791158D01*
X114261000Y-70504260D01*
X114261000Y-70211740D01*
X114203932Y-69924842D01*
X114091990Y-69654589D01*
X113929475Y-69411368D01*
X113722632Y-69204525D01*
X113548240Y-69088000D01*
X113722632Y-68971475D01*
X113929475Y-68764632D01*
X114091990Y-68521411D01*
X114203932Y-68251158D01*
X114261000Y-67964260D01*
X114261000Y-67671740D01*
X114203932Y-67384842D01*
X114091990Y-67114589D01*
X113929475Y-66871368D01*
X113722632Y-66664525D01*
X113548240Y-66548000D01*
X113722632Y-66431475D01*
X113929475Y-66224632D01*
X114091990Y-65981411D01*
X114203932Y-65711158D01*
X114261000Y-65424260D01*
X114261000Y-65131740D01*
X114203932Y-64844842D01*
X114091990Y-64574589D01*
X113929475Y-64331368D01*
X113722632Y-64124525D01*
X113479411Y-63962010D01*
X113209158Y-63850068D01*
X112922260Y-63793000D01*
X112629740Y-63793000D01*
X112342842Y-63850068D01*
X112072589Y-63962010D01*
X111829368Y-64124525D01*
X111697513Y-64256380D01*
X111675502Y-64183820D01*
X111616537Y-64073506D01*
X111537185Y-63976815D01*
X111440494Y-63897463D01*
X111330180Y-63838498D01*
X111210482Y-63802188D01*
X111086000Y-63789928D01*
X109386000Y-63789928D01*
X109372000Y-63791307D01*
X109372000Y-62636000D01*
X164440001Y-62636000D01*
X164440001Y-64323313D01*
G37*
X164440001Y-64323313D02*
X164279411Y-64216010D01*
X164009158Y-64104068D01*
X163722260Y-64047000D01*
X163429740Y-64047000D01*
X163142842Y-64104068D01*
X162872589Y-64216010D01*
X162629368Y-64378525D01*
X162422525Y-64585368D01*
X162306000Y-64759760D01*
X162189475Y-64585368D01*
X161982632Y-64378525D01*
X161739411Y-64216010D01*
X161469158Y-64104068D01*
X161182260Y-64047000D01*
X160889740Y-64047000D01*
X160602842Y-64104068D01*
X160332589Y-64216010D01*
X160089368Y-64378525D01*
X159957513Y-64510380D01*
X159935502Y-64437820D01*
X159876537Y-64327506D01*
X159797185Y-64230815D01*
X159700494Y-64151463D01*
X159590180Y-64092498D01*
X159470482Y-64056188D01*
X159346000Y-64043928D01*
X157646000Y-64043928D01*
X157521518Y-64056188D01*
X157401820Y-64092498D01*
X157291506Y-64151463D01*
X157194815Y-64230815D01*
X157115463Y-64327506D01*
X157056498Y-64437820D01*
X157020188Y-64557518D01*
X157007928Y-64682000D01*
X157007928Y-66382000D01*
X157020188Y-66506482D01*
X157056498Y-66626180D01*
X157115463Y-66736494D01*
X157194815Y-66833185D01*
X157291506Y-66912537D01*
X157401820Y-66971502D01*
X157521518Y-67007812D01*
X157646000Y-67020072D01*
X159346000Y-67020072D01*
X159470482Y-67007812D01*
X159590180Y-66971502D01*
X159700494Y-66912537D01*
X159797185Y-66833185D01*
X159876537Y-66736494D01*
X159935502Y-66626180D01*
X159957513Y-66553620D01*
X160089368Y-66685475D01*
X160332589Y-66847990D01*
X160602842Y-66959932D01*
X160889740Y-67017000D01*
X161182260Y-67017000D01*
X161469158Y-66959932D01*
X161739411Y-66847990D01*
X161982632Y-66685475D01*
X162189475Y-66478632D01*
X162306000Y-66304240D01*
X162422525Y-66478632D01*
X162629368Y-66685475D01*
X162872589Y-66847990D01*
X163142842Y-66959932D01*
X163429740Y-67017000D01*
X163722260Y-67017000D01*
X164009158Y-66959932D01*
X164279411Y-66847990D01*
X164440001Y-66740687D01*
X164440001Y-70297812D01*
X164383990Y-70162589D01*
X164221475Y-69919368D01*
X164014632Y-69712525D01*
X163771411Y-69550010D01*
X163501158Y-69438068D01*
X163214260Y-69381000D01*
X162921740Y-69381000D01*
X162701592Y-69424791D01*
X162456803Y-69180002D01*
X162433000Y-69150998D01*
X162317275Y-69056025D01*
X162185246Y-68985453D01*
X162041985Y-68941996D01*
X161930332Y-68930999D01*
X161930321Y-68930999D01*
X161892999Y-68927323D01*
X161855677Y-68930999D01*
X145517801Y-68930999D01*
X143524787Y-66937986D01*
X143692932Y-66733101D01*
X143764000Y-66600142D01*
X143835068Y-66733101D01*
X144014393Y-66951608D01*
X144232900Y-67130932D01*
X144482193Y-67264182D01*
X144752692Y-67346236D01*
X145034000Y-67373943D01*
X145315309Y-67346236D01*
X145585808Y-67264182D01*
X145835101Y-67130932D01*
X146053608Y-66951608D01*
X146232932Y-66733101D01*
X146304000Y-66600142D01*
X146375068Y-66733101D01*
X146554393Y-66951608D01*
X146772900Y-67130932D01*
X147022193Y-67264182D01*
X147292692Y-67346236D01*
X147574000Y-67373943D01*
X147855309Y-67346236D01*
X148125808Y-67264182D01*
X148375101Y-67130932D01*
X148593608Y-66951608D01*
X148772932Y-66733101D01*
X148844000Y-66600142D01*
X148915068Y-66733101D01*
X149094393Y-66951608D01*
X149312900Y-67130932D01*
X149562193Y-67264182D01*
X149832692Y-67346236D01*
X150114000Y-67373943D01*
X150395309Y-67346236D01*
X150665808Y-67264182D01*
X150915101Y-67130932D01*
X151133608Y-66951608D01*
X151312932Y-66733101D01*
X151384000Y-66600142D01*
X151455068Y-66733101D01*
X151634393Y-66951608D01*
X151852900Y-67130932D01*
X152102193Y-67264182D01*
X152372692Y-67346236D01*
X152654000Y-67373943D01*
X152935309Y-67346236D01*
X153205808Y-67264182D01*
X153455101Y-67130932D01*
X153673608Y-66951608D01*
X153852932Y-66733101D01*
X153924000Y-66600142D01*
X153995068Y-66733101D01*
X154174393Y-66951608D01*
X154392900Y-67130932D01*
X154642193Y-67264182D01*
X154912692Y-67346236D01*
X155194000Y-67373943D01*
X155475309Y-67346236D01*
X155745808Y-67264182D01*
X155995101Y-67130932D01*
X156213608Y-66951608D01*
X156392932Y-66733101D01*
X156526182Y-66483808D01*
X156608236Y-66213309D01*
X156629000Y-66002491D01*
X156629000Y-65061508D01*
X156608236Y-64850691D01*
X156526182Y-64580192D01*
X156392932Y-64330899D01*
X156213607Y-64112392D01*
X155995100Y-63933068D01*
X155745807Y-63799818D01*
X155475308Y-63717764D01*
X155194000Y-63690057D01*
X154912691Y-63717764D01*
X154642192Y-63799818D01*
X154392899Y-63933068D01*
X154174392Y-64112393D01*
X153995068Y-64330900D01*
X153924000Y-64463858D01*
X153852932Y-64330899D01*
X153673607Y-64112392D01*
X153455100Y-63933068D01*
X153205807Y-63799818D01*
X152935308Y-63717764D01*
X152654000Y-63690057D01*
X152372691Y-63717764D01*
X152102192Y-63799818D01*
X151852899Y-63933068D01*
X151634392Y-64112393D01*
X151455068Y-64330900D01*
X151384000Y-64463858D01*
X151312932Y-64330899D01*
X151133607Y-64112392D01*
X150915100Y-63933068D01*
X150665807Y-63799818D01*
X150395308Y-63717764D01*
X150114000Y-63690057D01*
X149832691Y-63717764D01*
X149562192Y-63799818D01*
X149312899Y-63933068D01*
X149094392Y-64112393D01*
X148915068Y-64330900D01*
X148844000Y-64463858D01*
X148772932Y-64330899D01*
X148593607Y-64112392D01*
X148375100Y-63933068D01*
X148125807Y-63799818D01*
X147855308Y-63717764D01*
X147574000Y-63690057D01*
X147292691Y-63717764D01*
X147022192Y-63799818D01*
X146772899Y-63933068D01*
X146554392Y-64112393D01*
X146375068Y-64330900D01*
X146304000Y-64463858D01*
X146232932Y-64330899D01*
X146053607Y-64112392D01*
X145835100Y-63933068D01*
X145585807Y-63799818D01*
X145315308Y-63717764D01*
X145034000Y-63690057D01*
X144752691Y-63717764D01*
X144482192Y-63799818D01*
X144232899Y-63933068D01*
X144014392Y-64112393D01*
X143835068Y-64330900D01*
X143764000Y-64463858D01*
X143692932Y-64330899D01*
X143513607Y-64112392D01*
X143295100Y-63933068D01*
X143045807Y-63799818D01*
X142775308Y-63717764D01*
X142494000Y-63690057D01*
X142212691Y-63717764D01*
X141942192Y-63799818D01*
X141692899Y-63933068D01*
X141474392Y-64112393D01*
X141295068Y-64330900D01*
X141224000Y-64463858D01*
X141152932Y-64330899D01*
X140973607Y-64112392D01*
X140755100Y-63933068D01*
X140505807Y-63799818D01*
X140235308Y-63717764D01*
X139954000Y-63690057D01*
X139672691Y-63717764D01*
X139402192Y-63799818D01*
X139152899Y-63933068D01*
X138934392Y-64112393D01*
X138755068Y-64330900D01*
X138684000Y-64463858D01*
X138612932Y-64330899D01*
X138433607Y-64112392D01*
X138215100Y-63933068D01*
X137965807Y-63799818D01*
X137695308Y-63717764D01*
X137414000Y-63690057D01*
X137132691Y-63717764D01*
X136862192Y-63799818D01*
X136612899Y-63933068D01*
X136394392Y-64112393D01*
X136215068Y-64330900D01*
X136144000Y-64463858D01*
X136072932Y-64330899D01*
X135893607Y-64112392D01*
X135675100Y-63933068D01*
X135425807Y-63799818D01*
X135155308Y-63717764D01*
X134874000Y-63690057D01*
X134592691Y-63717764D01*
X134322192Y-63799818D01*
X134072899Y-63933068D01*
X133854392Y-64112393D01*
X133675068Y-64330900D01*
X133604000Y-64463858D01*
X133532932Y-64330899D01*
X133353607Y-64112392D01*
X133135100Y-63933068D01*
X132885807Y-63799818D01*
X132615308Y-63717764D01*
X132334000Y-63690057D01*
X132052691Y-63717764D01*
X131782192Y-63799818D01*
X131532899Y-63933068D01*
X131314392Y-64112393D01*
X131135068Y-64330900D01*
X131064000Y-64463858D01*
X130992932Y-64330899D01*
X130813607Y-64112392D01*
X130595100Y-63933068D01*
X130345807Y-63799818D01*
X130075308Y-63717764D01*
X129794000Y-63690057D01*
X129512691Y-63717764D01*
X129242192Y-63799818D01*
X128992899Y-63933068D01*
X128774392Y-64112393D01*
X128595068Y-64330900D01*
X128524000Y-64463858D01*
X128452932Y-64330899D01*
X128273607Y-64112392D01*
X128055100Y-63933068D01*
X127805807Y-63799818D01*
X127535308Y-63717764D01*
X127254000Y-63690057D01*
X126972691Y-63717764D01*
X126702192Y-63799818D01*
X126452899Y-63933068D01*
X126234392Y-64112393D01*
X126055068Y-64330900D01*
X125984000Y-64463858D01*
X125912932Y-64330899D01*
X125733607Y-64112392D01*
X125515100Y-63933068D01*
X125265807Y-63799818D01*
X124995308Y-63717764D01*
X124714000Y-63690057D01*
X124432691Y-63717764D01*
X124162192Y-63799818D01*
X123912899Y-63933068D01*
X123694392Y-64112393D01*
X123515068Y-64330900D01*
X123444000Y-64463858D01*
X123372932Y-64330899D01*
X123193607Y-64112392D01*
X122975100Y-63933068D01*
X122725807Y-63799818D01*
X122455308Y-63717764D01*
X122174000Y-63690057D01*
X121892691Y-63717764D01*
X121622192Y-63799818D01*
X121372899Y-63933068D01*
X121154392Y-64112393D01*
X120975068Y-64330900D01*
X120904000Y-64463858D01*
X120832932Y-64330899D01*
X120653607Y-64112392D01*
X120435100Y-63933068D01*
X120185807Y-63799818D01*
X119915308Y-63717764D01*
X119634000Y-63690057D01*
X119352691Y-63717764D01*
X119082192Y-63799818D01*
X118832899Y-63933068D01*
X118614392Y-64112393D01*
X118435068Y-64330900D01*
X118364000Y-64463858D01*
X118292932Y-64330899D01*
X118113607Y-64112392D01*
X117895100Y-63933068D01*
X117645807Y-63799818D01*
X117375308Y-63717764D01*
X117094000Y-63690057D01*
X116812691Y-63717764D01*
X116542192Y-63799818D01*
X116292899Y-63933068D01*
X116074392Y-64112393D01*
X115895068Y-64330900D01*
X115761818Y-64580193D01*
X115679764Y-64850692D01*
X115659000Y-65061509D01*
X115659000Y-66002492D01*
X115679764Y-66213309D01*
X115761818Y-66483808D01*
X115895068Y-66733101D01*
X116074393Y-66951608D01*
X116292900Y-67130932D01*
X116542193Y-67264182D01*
X116812692Y-67346236D01*
X117094000Y-67373943D01*
X117375309Y-67346236D01*
X117645808Y-67264182D01*
X117895101Y-67130932D01*
X118113608Y-66951608D01*
X118292932Y-66733101D01*
X118364000Y-66600142D01*
X118435068Y-66733101D01*
X118614393Y-66951608D01*
X118832900Y-67130932D01*
X119082193Y-67264182D01*
X119352692Y-67346236D01*
X119634000Y-67373943D01*
X119915309Y-67346236D01*
X120185808Y-67264182D01*
X120435101Y-67130932D01*
X120653608Y-66951608D01*
X120832932Y-66733101D01*
X120904000Y-66600142D01*
X120975068Y-66733101D01*
X121154393Y-66951608D01*
X121372900Y-67130932D01*
X121622193Y-67264182D01*
X121892692Y-67346236D01*
X122174000Y-67373943D01*
X122455309Y-67346236D01*
X122725808Y-67264182D01*
X122975101Y-67130932D01*
X123193608Y-66951608D01*
X123372932Y-66733101D01*
X123444000Y-66600142D01*
X123515068Y-66733101D01*
X123694393Y-66951608D01*
X123912900Y-67130932D01*
X124162193Y-67264182D01*
X124432692Y-67346236D01*
X124714000Y-67373943D01*
X124995309Y-67346236D01*
X125265808Y-67264182D01*
X125515101Y-67130932D01*
X125733608Y-66951608D01*
X125912932Y-66733101D01*
X125984000Y-66600142D01*
X126055068Y-66733101D01*
X126234393Y-66951608D01*
X126452900Y-67130932D01*
X126702193Y-67264182D01*
X126972692Y-67346236D01*
X127254000Y-67373943D01*
X127535309Y-67346236D01*
X127805808Y-67264182D01*
X128055101Y-67130932D01*
X128273608Y-66951608D01*
X128452932Y-66733101D01*
X128524000Y-66600142D01*
X128595068Y-66733101D01*
X128774393Y-66951608D01*
X128992900Y-67130932D01*
X129242193Y-67264182D01*
X129512692Y-67346236D01*
X129794000Y-67373943D01*
X130075309Y-67346236D01*
X130345808Y-67264182D01*
X130595101Y-67130932D01*
X130813608Y-66951608D01*
X130992932Y-66733101D01*
X131064000Y-66600142D01*
X131135068Y-66733101D01*
X131314393Y-66951608D01*
X131532900Y-67130932D01*
X131782193Y-67264182D01*
X132052692Y-67346236D01*
X132334000Y-67373943D01*
X132615309Y-67346236D01*
X132885808Y-67264182D01*
X133135101Y-67130932D01*
X133353608Y-66951608D01*
X133532932Y-66733101D01*
X133604000Y-66600142D01*
X133675068Y-66733101D01*
X133854393Y-66951608D01*
X134072900Y-67130932D01*
X134322193Y-67264182D01*
X134592692Y-67346236D01*
X134874000Y-67373943D01*
X135155309Y-67346236D01*
X135425808Y-67264182D01*
X135675101Y-67130932D01*
X135893608Y-66951608D01*
X136072932Y-66733101D01*
X136144000Y-66600142D01*
X136215068Y-66733101D01*
X136394393Y-66951608D01*
X136612900Y-67130932D01*
X136675059Y-67164157D01*
X136705401Y-67264182D01*
X136708454Y-67274246D01*
X136779026Y-67406276D01*
X136818871Y-67454826D01*
X136873999Y-67522001D01*
X136903003Y-67545804D01*
X140734205Y-71377008D01*
X140757999Y-71406001D01*
X140786992Y-71429795D01*
X140786996Y-71429799D01*
X140836065Y-71470068D01*
X140873724Y-71500974D01*
X141005753Y-71571546D01*
X141149014Y-71615003D01*
X141260667Y-71626000D01*
X141260676Y-71626000D01*
X141297999Y-71629676D01*
X141335322Y-71626000D01*
X158233822Y-71626000D01*
X158358525Y-71812632D01*
X158490380Y-71944487D01*
X158417820Y-71966498D01*
X158307506Y-72025463D01*
X158210815Y-72104815D01*
X158131463Y-72201506D01*
X158072498Y-72311820D01*
X158036188Y-72431518D01*
X158023928Y-72556000D01*
X158023928Y-72751674D01*
X157987724Y-72771026D01*
X157871999Y-72865999D01*
X157848201Y-72894997D01*
X156714998Y-74028201D01*
X156686000Y-74051999D01*
X156662202Y-74080997D01*
X156662201Y-74080998D01*
X156591026Y-74167724D01*
X156520454Y-74299754D01*
X156476998Y-74443015D01*
X156462324Y-74592000D01*
X156466001Y-74629332D01*
X156466000Y-79697618D01*
X156316601Y-79469161D01*
X156118895Y-79267500D01*
X155885646Y-79108285D01*
X155625818Y-78997633D01*
X155543039Y-78980096D01*
X155321000Y-79102085D01*
X155321000Y-80645000D01*
X155341000Y-80645000D01*
X155341000Y-80899000D01*
X155321000Y-80899000D01*
X155321000Y-80919000D01*
X155067000Y-80919000D01*
X155067000Y-80899000D01*
X155047000Y-80899000D01*
X155047000Y-80645000D01*
X155067000Y-80645000D01*
X155067000Y-79102085D01*
X154844961Y-78980096D01*
X154762182Y-78997633D01*
X154502354Y-79108285D01*
X154269105Y-79267500D01*
X154071399Y-79469161D01*
X153921265Y-79698741D01*
X153852932Y-79570899D01*
X153673607Y-79352392D01*
X153455100Y-79173068D01*
X153205807Y-79039818D01*
X152935308Y-78957764D01*
X152654000Y-78930057D01*
X152372691Y-78957764D01*
X152102192Y-79039818D01*
X151852899Y-79173068D01*
X151634392Y-79352393D01*
X151455068Y-79570900D01*
X151384000Y-79703858D01*
X151312932Y-79570899D01*
X151133607Y-79352392D01*
X150915100Y-79173068D01*
X150665807Y-79039818D01*
X150395308Y-78957764D01*
X150114000Y-78930057D01*
X149832691Y-78957764D01*
X149562192Y-79039818D01*
X149312899Y-79173068D01*
X149094392Y-79352393D01*
X148915068Y-79570900D01*
X148844000Y-79703858D01*
X148772932Y-79570899D01*
X148593607Y-79352392D01*
X148375100Y-79173068D01*
X148125807Y-79039818D01*
X147855308Y-78957764D01*
X147574000Y-78930057D01*
X147292691Y-78957764D01*
X147022192Y-79039818D01*
X146772899Y-79173068D01*
X146554392Y-79352393D01*
X146375068Y-79570900D01*
X146304000Y-79703858D01*
X146232932Y-79570899D01*
X146053607Y-79352392D01*
X145835100Y-79173068D01*
X145585807Y-79039818D01*
X145315308Y-78957764D01*
X145034000Y-78930057D01*
X144752691Y-78957764D01*
X144482192Y-79039818D01*
X144232899Y-79173068D01*
X144014392Y-79352393D01*
X143835068Y-79570900D01*
X143764000Y-79703858D01*
X143692932Y-79570899D01*
X143513607Y-79352392D01*
X143295100Y-79173068D01*
X143045807Y-79039818D01*
X142775308Y-78957764D01*
X142494000Y-78930057D01*
X142212691Y-78957764D01*
X141942192Y-79039818D01*
X141692899Y-79173068D01*
X141474392Y-79352393D01*
X141295068Y-79570900D01*
X141224000Y-79703858D01*
X141152932Y-79570899D01*
X140973607Y-79352392D01*
X140755100Y-79173068D01*
X140505807Y-79039818D01*
X140235308Y-78957764D01*
X139954000Y-78930057D01*
X139672691Y-78957764D01*
X139402192Y-79039818D01*
X139152899Y-79173068D01*
X138934392Y-79352393D01*
X138755068Y-79570900D01*
X138684000Y-79703858D01*
X138612932Y-79570899D01*
X138433607Y-79352392D01*
X138215100Y-79173068D01*
X137965807Y-79039818D01*
X137695308Y-78957764D01*
X137414000Y-78930057D01*
X137132691Y-78957764D01*
X136862192Y-79039818D01*
X136612899Y-79173068D01*
X136394392Y-79352393D01*
X136215068Y-79570900D01*
X136144000Y-79703858D01*
X136072932Y-79570899D01*
X135893607Y-79352392D01*
X135675100Y-79173068D01*
X135425807Y-79039818D01*
X135155308Y-78957764D01*
X134874000Y-78930057D01*
X134592691Y-78957764D01*
X134322192Y-79039818D01*
X134072899Y-79173068D01*
X133854392Y-79352393D01*
X133675068Y-79570900D01*
X133604000Y-79703858D01*
X133532932Y-79570899D01*
X133353607Y-79352392D01*
X133135100Y-79173068D01*
X132885807Y-79039818D01*
X132615308Y-78957764D01*
X132334000Y-78930057D01*
X132052691Y-78957764D01*
X131782192Y-79039818D01*
X131532899Y-79173068D01*
X131314392Y-79352393D01*
X131135068Y-79570900D01*
X131064000Y-79703858D01*
X130992932Y-79570899D01*
X130813607Y-79352392D01*
X130595100Y-79173068D01*
X130345807Y-79039818D01*
X130075308Y-78957764D01*
X129794000Y-78930057D01*
X129512691Y-78957764D01*
X129242192Y-79039818D01*
X128992899Y-79173068D01*
X128774392Y-79352393D01*
X128595068Y-79570900D01*
X128524000Y-79703858D01*
X128452932Y-79570899D01*
X128273607Y-79352392D01*
X128055100Y-79173068D01*
X127805807Y-79039818D01*
X127535308Y-78957764D01*
X127254000Y-78930057D01*
X126972691Y-78957764D01*
X126702192Y-79039818D01*
X126452899Y-79173068D01*
X126234392Y-79352393D01*
X126055068Y-79570900D01*
X125984000Y-79703858D01*
X125912932Y-79570899D01*
X125733607Y-79352392D01*
X125515100Y-79173068D01*
X125265807Y-79039818D01*
X124995308Y-78957764D01*
X124714000Y-78930057D01*
X124432691Y-78957764D01*
X124162192Y-79039818D01*
X123912899Y-79173068D01*
X123694392Y-79352393D01*
X123515068Y-79570900D01*
X123444000Y-79703858D01*
X123372932Y-79570899D01*
X123193607Y-79352392D01*
X122975100Y-79173068D01*
X122725807Y-79039818D01*
X122455308Y-78957764D01*
X122174000Y-78930057D01*
X121892691Y-78957764D01*
X121622192Y-79039818D01*
X121372899Y-79173068D01*
X121154392Y-79352393D01*
X120975068Y-79570900D01*
X120904000Y-79703858D01*
X120832932Y-79570899D01*
X120653607Y-79352392D01*
X120435100Y-79173068D01*
X120185807Y-79039818D01*
X119915308Y-78957764D01*
X119634000Y-78930057D01*
X119352691Y-78957764D01*
X119082192Y-79039818D01*
X118832899Y-79173068D01*
X118614392Y-79352393D01*
X118521581Y-79465483D01*
X118519812Y-79447518D01*
X118483502Y-79327820D01*
X118424537Y-79217506D01*
X118345185Y-79120815D01*
X118248494Y-79041463D01*
X118138180Y-78982498D01*
X118018482Y-78946188D01*
X117894000Y-78933928D01*
X116294000Y-78933928D01*
X116169518Y-78946188D01*
X116049820Y-78982498D01*
X115939506Y-79041463D01*
X115842815Y-79120815D01*
X115763463Y-79217506D01*
X115704498Y-79327820D01*
X115668188Y-79447518D01*
X115655928Y-79572000D01*
X115655928Y-81972000D01*
X115668188Y-82096482D01*
X115704498Y-82216180D01*
X115763463Y-82326494D01*
X115842815Y-82423185D01*
X115939506Y-82502537D01*
X116049820Y-82561502D01*
X116169518Y-82597812D01*
X116294000Y-82610072D01*
X117894000Y-82610072D01*
X118018482Y-82597812D01*
X118138180Y-82561502D01*
X118248494Y-82502537D01*
X118345185Y-82423185D01*
X118424537Y-82326494D01*
X118483502Y-82216180D01*
X118519812Y-82096482D01*
X118521581Y-82078517D01*
X118614393Y-82191608D01*
X118832900Y-82370932D01*
X118895059Y-82404157D01*
X118916733Y-82475605D01*
X118928454Y-82514246D01*
X118999026Y-82646276D01*
X119038871Y-82694826D01*
X119093999Y-82762001D01*
X119123003Y-82785804D01*
X122192200Y-85855002D01*
X122215999Y-85884001D01*
X122331724Y-85978974D01*
X122463753Y-86049546D01*
X122607014Y-86093003D01*
X122718667Y-86104000D01*
X122718675Y-86104000D01*
X122756000Y-86107676D01*
X122793325Y-86104000D01*
X131765199Y-86104000D01*
X132910199Y-87249000D01*
X132704408Y-87249000D01*
X132434510Y-87302686D01*
X132180273Y-87407995D01*
X131951465Y-87560880D01*
X131756880Y-87755465D01*
X131603995Y-87984273D01*
X131572000Y-88061515D01*
X131540005Y-87984273D01*
X131387120Y-87755465D01*
X131192535Y-87560880D01*
X130963727Y-87407995D01*
X130709490Y-87302686D01*
X130439592Y-87249000D01*
X130164408Y-87249000D01*
X129894510Y-87302686D01*
X129640273Y-87407995D01*
X129411465Y-87560880D01*
X129216880Y-87755465D01*
X129063995Y-87984273D01*
X128968500Y-88214817D01*
X128873005Y-87984273D01*
X128720120Y-87755465D01*
X128525535Y-87560880D01*
X128296727Y-87407995D01*
X128042490Y-87302686D01*
X127772592Y-87249000D01*
X127497408Y-87249000D01*
X127227510Y-87302686D01*
X126973273Y-87407995D01*
X126744465Y-87560880D01*
X126549880Y-87755465D01*
X126428500Y-87937123D01*
X126307120Y-87755465D01*
X126112535Y-87560880D01*
X125883727Y-87407995D01*
X125629490Y-87302686D01*
X125359592Y-87249000D01*
X125084408Y-87249000D01*
X124814510Y-87302686D01*
X124560273Y-87407995D01*
X124331465Y-87560880D01*
X124136880Y-87755465D01*
X123983995Y-87984273D01*
X123952000Y-88061515D01*
X123920005Y-87984273D01*
X123767120Y-87755465D01*
X123572535Y-87560880D01*
X123343727Y-87407995D01*
X123089490Y-87302686D01*
X122819592Y-87249000D01*
X122544408Y-87249000D01*
X122274510Y-87302686D01*
X122020273Y-87407995D01*
X121791465Y-87560880D01*
X121596880Y-87755465D01*
X121443995Y-87984273D01*
X121412000Y-88061515D01*
X121380005Y-87984273D01*
X121227120Y-87755465D01*
X121032535Y-87560880D01*
X120803727Y-87407995D01*
X120549490Y-87302686D01*
X120279592Y-87249000D01*
X120004408Y-87249000D01*
X119734510Y-87302686D01*
X119480273Y-87407995D01*
X119251465Y-87560880D01*
X119056880Y-87755465D01*
X118903995Y-87984273D01*
X118798686Y-88238510D01*
X118745000Y-88508408D01*
X118745000Y-88783592D01*
X118798686Y-89053490D01*
X118903995Y-89307727D01*
X119056880Y-89536535D01*
X119251465Y-89731120D01*
X119480273Y-89884005D01*
X119734510Y-89989314D01*
X120004408Y-90043000D01*
X120279592Y-90043000D01*
X120549490Y-89989314D01*
X120803727Y-89884005D01*
X121032535Y-89731120D01*
X121227120Y-89536535D01*
X121380005Y-89307727D01*
X121412000Y-89230485D01*
X121443995Y-89307727D01*
X121596880Y-89536535D01*
X121791465Y-89731120D01*
X122020273Y-89884005D01*
X122274510Y-89989314D01*
X122544408Y-90043000D01*
X122819592Y-90043000D01*
X123089490Y-89989314D01*
X123343727Y-89884005D01*
X123572535Y-89731120D01*
X123767120Y-89536535D01*
X123920005Y-89307727D01*
X123952000Y-89230485D01*
X123983995Y-89307727D01*
X124136880Y-89536535D01*
X124331465Y-89731120D01*
X124560273Y-89884005D01*
X124814510Y-89989314D01*
X125084408Y-90043000D01*
X125359592Y-90043000D01*
X125629490Y-89989314D01*
X125883727Y-89884005D01*
X126112535Y-89731120D01*
X126307120Y-89536535D01*
X126428500Y-89354877D01*
X126549880Y-89536535D01*
X126744465Y-89731120D01*
X126973273Y-89884005D01*
X127227510Y-89989314D01*
X127497408Y-90043000D01*
X127772592Y-90043000D01*
X128042490Y-89989314D01*
X128296727Y-89884005D01*
X128525535Y-89731120D01*
X128720120Y-89536535D01*
X128873005Y-89307727D01*
X128968500Y-89077183D01*
X129063995Y-89307727D01*
X129216880Y-89536535D01*
X129411465Y-89731120D01*
X129640273Y-89884005D01*
X129894510Y-89989314D01*
X130164408Y-90043000D01*
X130439592Y-90043000D01*
X130709490Y-89989314D01*
X130963727Y-89884005D01*
X131192535Y-89731120D01*
X131387120Y-89536535D01*
X131540005Y-89307727D01*
X131572000Y-89230485D01*
X131603995Y-89307727D01*
X131756880Y-89536535D01*
X131951465Y-89731120D01*
X132180273Y-89884005D01*
X132434510Y-89989314D01*
X132704408Y-90043000D01*
X132979592Y-90043000D01*
X133249490Y-89989314D01*
X133503727Y-89884005D01*
X133732535Y-89731120D01*
X133927120Y-89536535D01*
X134080005Y-89307727D01*
X134112000Y-89230485D01*
X134143995Y-89307727D01*
X134296880Y-89536535D01*
X134491465Y-89731120D01*
X134720273Y-89884005D01*
X134974510Y-89989314D01*
X135244408Y-90043000D01*
X135519592Y-90043000D01*
X135789490Y-89989314D01*
X136043727Y-89884005D01*
X136272535Y-89731120D01*
X136467120Y-89536535D01*
X136620005Y-89307727D01*
X136652000Y-89230485D01*
X136683995Y-89307727D01*
X136836880Y-89536535D01*
X137031465Y-89731120D01*
X137260273Y-89884005D01*
X137514510Y-89989314D01*
X137784408Y-90043000D01*
X138059592Y-90043000D01*
X138329490Y-89989314D01*
X138583727Y-89884005D01*
X138812535Y-89731120D01*
X139007120Y-89536535D01*
X139160005Y-89307727D01*
X139192000Y-89230485D01*
X139223995Y-89307727D01*
X139376880Y-89536535D01*
X139571465Y-89731120D01*
X139800273Y-89884005D01*
X140054510Y-89989314D01*
X140324408Y-90043000D01*
X140599592Y-90043000D01*
X140869490Y-89989314D01*
X141123727Y-89884005D01*
X141352535Y-89731120D01*
X141547120Y-89536535D01*
X141700005Y-89307727D01*
X141732000Y-89230485D01*
X141763995Y-89307727D01*
X141916880Y-89536535D01*
X142111465Y-89731120D01*
X142340273Y-89884005D01*
X142594510Y-89989314D01*
X142864408Y-90043000D01*
X143139592Y-90043000D01*
X143409490Y-89989314D01*
X143663727Y-89884005D01*
X143892535Y-89731120D01*
X144087120Y-89536535D01*
X144240005Y-89307727D01*
X144272000Y-89230485D01*
X144303995Y-89307727D01*
X144456880Y-89536535D01*
X144651465Y-89731120D01*
X144880273Y-89884005D01*
X145134510Y-89989314D01*
X145404408Y-90043000D01*
X145679592Y-90043000D01*
X145949490Y-89989314D01*
X146203727Y-89884005D01*
X146432535Y-89731120D01*
X146627120Y-89536535D01*
X146780005Y-89307727D01*
X146812000Y-89230485D01*
X146843995Y-89307727D01*
X146996880Y-89536535D01*
X147191465Y-89731120D01*
X147420273Y-89884005D01*
X147674510Y-89989314D01*
X147944408Y-90043000D01*
X148219592Y-90043000D01*
X148489490Y-89989314D01*
X148743727Y-89884005D01*
X148972535Y-89731120D01*
X149167120Y-89536535D01*
X149320005Y-89307727D01*
X149352000Y-89230485D01*
X149383995Y-89307727D01*
X149536880Y-89536535D01*
X149731465Y-89731120D01*
X149960273Y-89884005D01*
X150214510Y-89989314D01*
X150484408Y-90043000D01*
X150759592Y-90043000D01*
X151029490Y-89989314D01*
X151283727Y-89884005D01*
X151512535Y-89731120D01*
X151707120Y-89536535D01*
X151860005Y-89307727D01*
X151892000Y-89230485D01*
X151923995Y-89307727D01*
X152076880Y-89536535D01*
X152271465Y-89731120D01*
X152500273Y-89884005D01*
X152754510Y-89989314D01*
X153024408Y-90043000D01*
X153299592Y-90043000D01*
X153569490Y-89989314D01*
X153823727Y-89884005D01*
X154052535Y-89731120D01*
X154247120Y-89536535D01*
X154400005Y-89307727D01*
X154505314Y-89053490D01*
X154559000Y-88783592D01*
X154559000Y-88508408D01*
X154505314Y-88238510D01*
X154400005Y-87984273D01*
X154247120Y-87755465D01*
X154052535Y-87560880D01*
X153823727Y-87407995D01*
X153569490Y-87302686D01*
X153299592Y-87249000D01*
X153024408Y-87249000D01*
X152754510Y-87302686D01*
X152500273Y-87407995D01*
X152271465Y-87560880D01*
X152076880Y-87755465D01*
X151923995Y-87984273D01*
X151892000Y-88061515D01*
X151860005Y-87984273D01*
X151707120Y-87755465D01*
X151512535Y-87560880D01*
X151283727Y-87407995D01*
X151029490Y-87302686D01*
X150759592Y-87249000D01*
X150484408Y-87249000D01*
X150214510Y-87302686D01*
X149960273Y-87407995D01*
X149731465Y-87560880D01*
X149536880Y-87755465D01*
X149383995Y-87984273D01*
X149352000Y-88061515D01*
X149320005Y-87984273D01*
X149167120Y-87755465D01*
X148972535Y-87560880D01*
X148743727Y-87407995D01*
X148489490Y-87302686D01*
X148219592Y-87249000D01*
X147944408Y-87249000D01*
X147674510Y-87302686D01*
X147420273Y-87407995D01*
X147191465Y-87560880D01*
X146996880Y-87755465D01*
X146843995Y-87984273D01*
X146812000Y-88061515D01*
X146780005Y-87984273D01*
X146627120Y-87755465D01*
X146432535Y-87560880D01*
X146203727Y-87407995D01*
X145949490Y-87302686D01*
X145679592Y-87249000D01*
X145404408Y-87249000D01*
X145134510Y-87302686D01*
X144880273Y-87407995D01*
X144651465Y-87560880D01*
X144456880Y-87755465D01*
X144303995Y-87984273D01*
X144272000Y-88061515D01*
X144240005Y-87984273D01*
X144087120Y-87755465D01*
X143892535Y-87560880D01*
X143663727Y-87407995D01*
X143409490Y-87302686D01*
X143139592Y-87249000D01*
X142933801Y-87249000D01*
X145856802Y-84326000D01*
X154353682Y-84326000D01*
X154391004Y-84329676D01*
X154428326Y-84326000D01*
X154428337Y-84326000D01*
X154539990Y-84315003D01*
X154683251Y-84271546D01*
X154815280Y-84200974D01*
X154885313Y-84143499D01*
X157844106Y-84143499D01*
X158060228Y-84510258D01*
X158520105Y-84750938D01*
X159018098Y-84897275D01*
X159535071Y-84943648D01*
X160051159Y-84888273D01*
X160546526Y-84733279D01*
X160963772Y-84510258D01*
X161179894Y-84143499D01*
X159512000Y-82475605D01*
X157844106Y-84143499D01*
X154885313Y-84143499D01*
X154931005Y-84106001D01*
X154954808Y-84076997D01*
X156879292Y-82152513D01*
X156864352Y-82319071D01*
X156919727Y-82835159D01*
X157074721Y-83330526D01*
X157297742Y-83747772D01*
X157664501Y-83963894D01*
X159332395Y-82296000D01*
X159691605Y-82296000D01*
X161359499Y-83963894D01*
X161726258Y-83747772D01*
X161966938Y-83287895D01*
X162113275Y-82789902D01*
X162159648Y-82272929D01*
X162104273Y-81756841D01*
X161949279Y-81261474D01*
X161726258Y-80844228D01*
X161359499Y-80628106D01*
X159691605Y-82296000D01*
X159332395Y-82296000D01*
X159318253Y-82281858D01*
X159497858Y-82102253D01*
X159512000Y-82116395D01*
X161179894Y-80448501D01*
X160963772Y-80081742D01*
X160503895Y-79841062D01*
X160005902Y-79694725D01*
X159488929Y-79648352D01*
X158972841Y-79703727D01*
X158477474Y-79858721D01*
X158060228Y-80081742D01*
X157986000Y-80207707D01*
X157986000Y-74906801D01*
X158199457Y-74693345D01*
X158210815Y-74707185D01*
X158307506Y-74786537D01*
X158417820Y-74845502D01*
X158537518Y-74881812D01*
X158662000Y-74894072D01*
X160362000Y-74894072D01*
X160486482Y-74881812D01*
X160606180Y-74845502D01*
X160716494Y-74786537D01*
X160813185Y-74707185D01*
X160892537Y-74610494D01*
X160951502Y-74500180D01*
X160987812Y-74380482D01*
X161000072Y-74256000D01*
X161000072Y-74166000D01*
X161579928Y-74166000D01*
X161579928Y-74256000D01*
X161592188Y-74380482D01*
X161628498Y-74500180D01*
X161687463Y-74610494D01*
X161766815Y-74707185D01*
X161863506Y-74786537D01*
X161973820Y-74845502D01*
X162093518Y-74881812D01*
X162218000Y-74894072D01*
X163918000Y-74894072D01*
X164042482Y-74881812D01*
X164162180Y-74845502D01*
X164272494Y-74786537D01*
X164369185Y-74707185D01*
X164440001Y-74620896D01*
X164440000Y-97384000D01*
X153905434Y-97384000D01*
X153947960Y-97231565D01*
X153162000Y-96445605D01*
X152376040Y-97231565D01*
X152418566Y-97384000D01*
X151463327Y-97384000D01*
X151512535Y-97351120D01*
X151707120Y-97156535D01*
X151860005Y-96927727D01*
X151889692Y-96856057D01*
X151894364Y-96869023D01*
X151956344Y-96984980D01*
X152196435Y-97051960D01*
X152982395Y-96266000D01*
X153341605Y-96266000D01*
X154127565Y-97051960D01*
X154367656Y-96984980D01*
X154484756Y-96735952D01*
X154551023Y-96468865D01*
X154563910Y-96193983D01*
X154522922Y-95921867D01*
X154429636Y-95662977D01*
X154367656Y-95547020D01*
X154127565Y-95480040D01*
X153341605Y-96266000D01*
X152982395Y-96266000D01*
X152196435Y-95480040D01*
X151956344Y-95547020D01*
X151892515Y-95682760D01*
X151860005Y-95604273D01*
X151707120Y-95375465D01*
X151632090Y-95300435D01*
X152376040Y-95300435D01*
X153162000Y-96086395D01*
X153947960Y-95300435D01*
X153880980Y-95060344D01*
X153631952Y-94943244D01*
X153364865Y-94876977D01*
X153089983Y-94864090D01*
X152817867Y-94905078D01*
X152558977Y-94998364D01*
X152443020Y-95060344D01*
X152376040Y-95300435D01*
X151632090Y-95300435D01*
X151512535Y-95180880D01*
X151283727Y-95027995D01*
X151029490Y-94922686D01*
X150759592Y-94869000D01*
X150484408Y-94869000D01*
X150214510Y-94922686D01*
X149960273Y-95027995D01*
X149731465Y-95180880D01*
X149536880Y-95375465D01*
X149383995Y-95604273D01*
X149352000Y-95681515D01*
X149320005Y-95604273D01*
X149167120Y-95375465D01*
X148972535Y-95180880D01*
X148743727Y-95027995D01*
X148489490Y-94922686D01*
X148219592Y-94869000D01*
X147944408Y-94869000D01*
X147674510Y-94922686D01*
X147420273Y-95027995D01*
X147191465Y-95180880D01*
X146996880Y-95375465D01*
X146843995Y-95604273D01*
X146812000Y-95681515D01*
X146780005Y-95604273D01*
X146627120Y-95375465D01*
X146432535Y-95180880D01*
X146203727Y-95027995D01*
X145949490Y-94922686D01*
X145679592Y-94869000D01*
X145404408Y-94869000D01*
X145134510Y-94922686D01*
X144880273Y-95027995D01*
X144651465Y-95180880D01*
X144456880Y-95375465D01*
X144303995Y-95604273D01*
X144272000Y-95681515D01*
X144240005Y-95604273D01*
X144087120Y-95375465D01*
X143892535Y-95180880D01*
X143663727Y-95027995D01*
X143409490Y-94922686D01*
X143139592Y-94869000D01*
X142864408Y-94869000D01*
X142594510Y-94922686D01*
X142340273Y-95027995D01*
X142111465Y-95180880D01*
X141916880Y-95375465D01*
X141763995Y-95604273D01*
X141732000Y-95681515D01*
X141700005Y-95604273D01*
X141547120Y-95375465D01*
X141352535Y-95180880D01*
X141123727Y-95027995D01*
X140869490Y-94922686D01*
X140599592Y-94869000D01*
X140324408Y-94869000D01*
X140054510Y-94922686D01*
X139800273Y-95027995D01*
X139571465Y-95180880D01*
X139376880Y-95375465D01*
X139223995Y-95604273D01*
X139192000Y-95681515D01*
X139160005Y-95604273D01*
X139007120Y-95375465D01*
X138812535Y-95180880D01*
X138583727Y-95027995D01*
X138329490Y-94922686D01*
X138059592Y-94869000D01*
X137784408Y-94869000D01*
X137514510Y-94922686D01*
X137260273Y-95027995D01*
X137031465Y-95180880D01*
X136836880Y-95375465D01*
X136683995Y-95604273D01*
X136652000Y-95681515D01*
X136620005Y-95604273D01*
X136467120Y-95375465D01*
X136272535Y-95180880D01*
X136043727Y-95027995D01*
X135789490Y-94922686D01*
X135519592Y-94869000D01*
X135244408Y-94869000D01*
X134974510Y-94922686D01*
X134720273Y-95027995D01*
X134491465Y-95180880D01*
X134296880Y-95375465D01*
X134143995Y-95604273D01*
X134112000Y-95681515D01*
X134080005Y-95604273D01*
X133927120Y-95375465D01*
X133732535Y-95180880D01*
X133503727Y-95027995D01*
X133249490Y-94922686D01*
X132979592Y-94869000D01*
X132704408Y-94869000D01*
X132434510Y-94922686D01*
X132180273Y-95027995D01*
X131951465Y-95180880D01*
X131756880Y-95375465D01*
X131603995Y-95604273D01*
X131572000Y-95681515D01*
X131540005Y-95604273D01*
X131387120Y-95375465D01*
X131192535Y-95180880D01*
X130963727Y-95027995D01*
X130709490Y-94922686D01*
X130439592Y-94869000D01*
X130164408Y-94869000D01*
X129894510Y-94922686D01*
X129640273Y-95027995D01*
X129411465Y-95180880D01*
X129216880Y-95375465D01*
X129063995Y-95604273D01*
X129032000Y-95681515D01*
X129000005Y-95604273D01*
X128847120Y-95375465D01*
X128652535Y-95180880D01*
X128423727Y-95027995D01*
X128169490Y-94922686D01*
X127899592Y-94869000D01*
X127624408Y-94869000D01*
X127354510Y-94922686D01*
X127100273Y-95027995D01*
X126871465Y-95180880D01*
X126676880Y-95375465D01*
X126523995Y-95604273D01*
X126492000Y-95681515D01*
X126460005Y-95604273D01*
X126307120Y-95375465D01*
X126112535Y-95180880D01*
X125883727Y-95027995D01*
X125629490Y-94922686D01*
X125359592Y-94869000D01*
X125084408Y-94869000D01*
X124814510Y-94922686D01*
X124560273Y-95027995D01*
X124331465Y-95180880D01*
X124136880Y-95375465D01*
X123983995Y-95604273D01*
X123952000Y-95681515D01*
X123920005Y-95604273D01*
X123767120Y-95375465D01*
X123572535Y-95180880D01*
X123343727Y-95027995D01*
X123089490Y-94922686D01*
X122819592Y-94869000D01*
X122544408Y-94869000D01*
X122274510Y-94922686D01*
X122020273Y-95027995D01*
X121791465Y-95180880D01*
X121596880Y-95375465D01*
X121538080Y-95463465D01*
X121529812Y-95379518D01*
X121493502Y-95259820D01*
X121434537Y-95149506D01*
X121355185Y-95052815D01*
X121258494Y-94973463D01*
X121148180Y-94914498D01*
X121028482Y-94878188D01*
X120904000Y-94865928D01*
X119380000Y-94865928D01*
X119255518Y-94878188D01*
X119135820Y-94914498D01*
X119025506Y-94973463D01*
X118928815Y-95052815D01*
X118849463Y-95149506D01*
X118790498Y-95259820D01*
X118754188Y-95379518D01*
X118741928Y-95504000D01*
X118741928Y-97028000D01*
X118754188Y-97152482D01*
X118790498Y-97272180D01*
X118849463Y-97382494D01*
X118850699Y-97384000D01*
X109372000Y-97384000D01*
X109372000Y-80586453D01*
X109572285Y-80786738D01*
X110003859Y-81075107D01*
X110483399Y-81273739D01*
X110992475Y-81375000D01*
X111511525Y-81375000D01*
X112020601Y-81273739D01*
X112500141Y-81075107D01*
X112931715Y-80786738D01*
X113298738Y-80419715D01*
X113587107Y-79988141D01*
X113785739Y-79508601D01*
X113887000Y-78999525D01*
X113887000Y-78480475D01*
X113785739Y-77971399D01*
X113587107Y-77491859D01*
X113298738Y-77060285D01*
X112931715Y-76693262D01*
X112500141Y-76404893D01*
X112020601Y-76206261D01*
X111511525Y-76105000D01*
X110992475Y-76105000D01*
X110483399Y-76206261D01*
X110003859Y-76404893D01*
X109572285Y-76693262D01*
X109372000Y-76893547D01*
X109372000Y-74106688D01*
X109532589Y-74213990D01*
X109802842Y-74325932D01*
X110089740Y-74383000D01*
X110382260Y-74383000D01*
X110669158Y-74325932D01*
X110939411Y-74213990D01*
X111182632Y-74051475D01*
X111389475Y-73844632D01*
X111506000Y-73670240D01*
X111622525Y-73844632D01*
X111829368Y-74051475D01*
X112072589Y-74213990D01*
X112342842Y-74325932D01*
X112629740Y-74383000D01*
X112922260Y-74383000D01*
X113209158Y-74325932D01*
X113479411Y-74213990D01*
X113722632Y-74051475D01*
X113929475Y-73844632D01*
X114091990Y-73601411D01*
X114203932Y-73331158D01*
X114261000Y-73044260D01*
X114261000Y-72751740D01*
X114203932Y-72464842D01*
X114091990Y-72194589D01*
X113929475Y-71951368D01*
X113722632Y-71744525D01*
X113548240Y-71628000D01*
X113722632Y-71511475D01*
X113929475Y-71304632D01*
X114091990Y-71061411D01*
X114203932Y-70791158D01*
X114261000Y-70504260D01*
X114261000Y-70211740D01*
X114203932Y-69924842D01*
X114091990Y-69654589D01*
X113929475Y-69411368D01*
X113722632Y-69204525D01*
X113548240Y-69088000D01*
X113722632Y-68971475D01*
X113929475Y-68764632D01*
X114091990Y-68521411D01*
X114203932Y-68251158D01*
X114261000Y-67964260D01*
X114261000Y-67671740D01*
X114203932Y-67384842D01*
X114091990Y-67114589D01*
X113929475Y-66871368D01*
X113722632Y-66664525D01*
X113548240Y-66548000D01*
X113722632Y-66431475D01*
X113929475Y-66224632D01*
X114091990Y-65981411D01*
X114203932Y-65711158D01*
X114261000Y-65424260D01*
X114261000Y-65131740D01*
X114203932Y-64844842D01*
X114091990Y-64574589D01*
X113929475Y-64331368D01*
X113722632Y-64124525D01*
X113479411Y-63962010D01*
X113209158Y-63850068D01*
X112922260Y-63793000D01*
X112629740Y-63793000D01*
X112342842Y-63850068D01*
X112072589Y-63962010D01*
X111829368Y-64124525D01*
X111697513Y-64256380D01*
X111675502Y-64183820D01*
X111616537Y-64073506D01*
X111537185Y-63976815D01*
X111440494Y-63897463D01*
X111330180Y-63838498D01*
X111210482Y-63802188D01*
X111086000Y-63789928D01*
X109386000Y-63789928D01*
X109372000Y-63791307D01*
X109372000Y-62636000D01*
X164440001Y-62636000D01*
X164440001Y-64323313D01*
M02*
