G04 #@! TF.GenerationSoftware,KiCad,Pcbnew,(5.1.5-0-10_14)*
G04 #@! TF.CreationDate,2021-06-10T22:19:53-06:00*
G04 #@! TF.ProjectId,tc531000-tl866-adapter,74633533-3130-4303-902d-746c3836362d,rev?*
G04 #@! TF.SameCoordinates,Original*
G04 #@! TF.FileFunction,Soldermask,Top*
G04 #@! TF.FilePolarity,Negative*
%FSLAX46Y46*%
G04 Gerber Fmt 4.6, Leading zero omitted, Abs format (unit mm)*
G04 Created by KiCad (PCBNEW (5.1.5-0-10_14)) date 2021-06-10 22:19:53*
%MOMM*%
%LPD*%
G04 APERTURE LIST*
%ADD10C,0.100000*%
G04 APERTURE END LIST*
D10*
G36*
X153399142Y-95484242D02*
G01*
X153547101Y-95545529D01*
X153680255Y-95634499D01*
X153793501Y-95747745D01*
X153882471Y-95880899D01*
X153943758Y-96028858D01*
X153975000Y-96185925D01*
X153975000Y-96346075D01*
X153943758Y-96503142D01*
X153882471Y-96651101D01*
X153793501Y-96784255D01*
X153680255Y-96897501D01*
X153547101Y-96986471D01*
X153399142Y-97047758D01*
X153242075Y-97079000D01*
X153081925Y-97079000D01*
X152924858Y-97047758D01*
X152776899Y-96986471D01*
X152643745Y-96897501D01*
X152530499Y-96784255D01*
X152441529Y-96651101D01*
X152380242Y-96503142D01*
X152349000Y-96346075D01*
X152349000Y-96185925D01*
X152380242Y-96028858D01*
X152441529Y-95880899D01*
X152530499Y-95747745D01*
X152643745Y-95634499D01*
X152776899Y-95545529D01*
X152924858Y-95484242D01*
X153081925Y-95453000D01*
X153242075Y-95453000D01*
X153399142Y-95484242D01*
G37*
G36*
X150859142Y-95484242D02*
G01*
X151007101Y-95545529D01*
X151140255Y-95634499D01*
X151253501Y-95747745D01*
X151342471Y-95880899D01*
X151403758Y-96028858D01*
X151435000Y-96185925D01*
X151435000Y-96346075D01*
X151403758Y-96503142D01*
X151342471Y-96651101D01*
X151253501Y-96784255D01*
X151140255Y-96897501D01*
X151007101Y-96986471D01*
X150859142Y-97047758D01*
X150702075Y-97079000D01*
X150541925Y-97079000D01*
X150384858Y-97047758D01*
X150236899Y-96986471D01*
X150103745Y-96897501D01*
X149990499Y-96784255D01*
X149901529Y-96651101D01*
X149840242Y-96503142D01*
X149809000Y-96346075D01*
X149809000Y-96185925D01*
X149840242Y-96028858D01*
X149901529Y-95880899D01*
X149990499Y-95747745D01*
X150103745Y-95634499D01*
X150236899Y-95545529D01*
X150384858Y-95484242D01*
X150541925Y-95453000D01*
X150702075Y-95453000D01*
X150859142Y-95484242D01*
G37*
G36*
X148319142Y-95484242D02*
G01*
X148467101Y-95545529D01*
X148600255Y-95634499D01*
X148713501Y-95747745D01*
X148802471Y-95880899D01*
X148863758Y-96028858D01*
X148895000Y-96185925D01*
X148895000Y-96346075D01*
X148863758Y-96503142D01*
X148802471Y-96651101D01*
X148713501Y-96784255D01*
X148600255Y-96897501D01*
X148467101Y-96986471D01*
X148319142Y-97047758D01*
X148162075Y-97079000D01*
X148001925Y-97079000D01*
X147844858Y-97047758D01*
X147696899Y-96986471D01*
X147563745Y-96897501D01*
X147450499Y-96784255D01*
X147361529Y-96651101D01*
X147300242Y-96503142D01*
X147269000Y-96346075D01*
X147269000Y-96185925D01*
X147300242Y-96028858D01*
X147361529Y-95880899D01*
X147450499Y-95747745D01*
X147563745Y-95634499D01*
X147696899Y-95545529D01*
X147844858Y-95484242D01*
X148001925Y-95453000D01*
X148162075Y-95453000D01*
X148319142Y-95484242D01*
G37*
G36*
X145779142Y-95484242D02*
G01*
X145927101Y-95545529D01*
X146060255Y-95634499D01*
X146173501Y-95747745D01*
X146262471Y-95880899D01*
X146323758Y-96028858D01*
X146355000Y-96185925D01*
X146355000Y-96346075D01*
X146323758Y-96503142D01*
X146262471Y-96651101D01*
X146173501Y-96784255D01*
X146060255Y-96897501D01*
X145927101Y-96986471D01*
X145779142Y-97047758D01*
X145622075Y-97079000D01*
X145461925Y-97079000D01*
X145304858Y-97047758D01*
X145156899Y-96986471D01*
X145023745Y-96897501D01*
X144910499Y-96784255D01*
X144821529Y-96651101D01*
X144760242Y-96503142D01*
X144729000Y-96346075D01*
X144729000Y-96185925D01*
X144760242Y-96028858D01*
X144821529Y-95880899D01*
X144910499Y-95747745D01*
X145023745Y-95634499D01*
X145156899Y-95545529D01*
X145304858Y-95484242D01*
X145461925Y-95453000D01*
X145622075Y-95453000D01*
X145779142Y-95484242D01*
G37*
G36*
X143239142Y-95484242D02*
G01*
X143387101Y-95545529D01*
X143520255Y-95634499D01*
X143633501Y-95747745D01*
X143722471Y-95880899D01*
X143783758Y-96028858D01*
X143815000Y-96185925D01*
X143815000Y-96346075D01*
X143783758Y-96503142D01*
X143722471Y-96651101D01*
X143633501Y-96784255D01*
X143520255Y-96897501D01*
X143387101Y-96986471D01*
X143239142Y-97047758D01*
X143082075Y-97079000D01*
X142921925Y-97079000D01*
X142764858Y-97047758D01*
X142616899Y-96986471D01*
X142483745Y-96897501D01*
X142370499Y-96784255D01*
X142281529Y-96651101D01*
X142220242Y-96503142D01*
X142189000Y-96346075D01*
X142189000Y-96185925D01*
X142220242Y-96028858D01*
X142281529Y-95880899D01*
X142370499Y-95747745D01*
X142483745Y-95634499D01*
X142616899Y-95545529D01*
X142764858Y-95484242D01*
X142921925Y-95453000D01*
X143082075Y-95453000D01*
X143239142Y-95484242D01*
G37*
G36*
X140699142Y-95484242D02*
G01*
X140847101Y-95545529D01*
X140980255Y-95634499D01*
X141093501Y-95747745D01*
X141182471Y-95880899D01*
X141243758Y-96028858D01*
X141275000Y-96185925D01*
X141275000Y-96346075D01*
X141243758Y-96503142D01*
X141182471Y-96651101D01*
X141093501Y-96784255D01*
X140980255Y-96897501D01*
X140847101Y-96986471D01*
X140699142Y-97047758D01*
X140542075Y-97079000D01*
X140381925Y-97079000D01*
X140224858Y-97047758D01*
X140076899Y-96986471D01*
X139943745Y-96897501D01*
X139830499Y-96784255D01*
X139741529Y-96651101D01*
X139680242Y-96503142D01*
X139649000Y-96346075D01*
X139649000Y-96185925D01*
X139680242Y-96028858D01*
X139741529Y-95880899D01*
X139830499Y-95747745D01*
X139943745Y-95634499D01*
X140076899Y-95545529D01*
X140224858Y-95484242D01*
X140381925Y-95453000D01*
X140542075Y-95453000D01*
X140699142Y-95484242D01*
G37*
G36*
X138159142Y-95484242D02*
G01*
X138307101Y-95545529D01*
X138440255Y-95634499D01*
X138553501Y-95747745D01*
X138642471Y-95880899D01*
X138703758Y-96028858D01*
X138735000Y-96185925D01*
X138735000Y-96346075D01*
X138703758Y-96503142D01*
X138642471Y-96651101D01*
X138553501Y-96784255D01*
X138440255Y-96897501D01*
X138307101Y-96986471D01*
X138159142Y-97047758D01*
X138002075Y-97079000D01*
X137841925Y-97079000D01*
X137684858Y-97047758D01*
X137536899Y-96986471D01*
X137403745Y-96897501D01*
X137290499Y-96784255D01*
X137201529Y-96651101D01*
X137140242Y-96503142D01*
X137109000Y-96346075D01*
X137109000Y-96185925D01*
X137140242Y-96028858D01*
X137201529Y-95880899D01*
X137290499Y-95747745D01*
X137403745Y-95634499D01*
X137536899Y-95545529D01*
X137684858Y-95484242D01*
X137841925Y-95453000D01*
X138002075Y-95453000D01*
X138159142Y-95484242D01*
G37*
G36*
X135619142Y-95484242D02*
G01*
X135767101Y-95545529D01*
X135900255Y-95634499D01*
X136013501Y-95747745D01*
X136102471Y-95880899D01*
X136163758Y-96028858D01*
X136195000Y-96185925D01*
X136195000Y-96346075D01*
X136163758Y-96503142D01*
X136102471Y-96651101D01*
X136013501Y-96784255D01*
X135900255Y-96897501D01*
X135767101Y-96986471D01*
X135619142Y-97047758D01*
X135462075Y-97079000D01*
X135301925Y-97079000D01*
X135144858Y-97047758D01*
X134996899Y-96986471D01*
X134863745Y-96897501D01*
X134750499Y-96784255D01*
X134661529Y-96651101D01*
X134600242Y-96503142D01*
X134569000Y-96346075D01*
X134569000Y-96185925D01*
X134600242Y-96028858D01*
X134661529Y-95880899D01*
X134750499Y-95747745D01*
X134863745Y-95634499D01*
X134996899Y-95545529D01*
X135144858Y-95484242D01*
X135301925Y-95453000D01*
X135462075Y-95453000D01*
X135619142Y-95484242D01*
G37*
G36*
X133079142Y-95484242D02*
G01*
X133227101Y-95545529D01*
X133360255Y-95634499D01*
X133473501Y-95747745D01*
X133562471Y-95880899D01*
X133623758Y-96028858D01*
X133655000Y-96185925D01*
X133655000Y-96346075D01*
X133623758Y-96503142D01*
X133562471Y-96651101D01*
X133473501Y-96784255D01*
X133360255Y-96897501D01*
X133227101Y-96986471D01*
X133079142Y-97047758D01*
X132922075Y-97079000D01*
X132761925Y-97079000D01*
X132604858Y-97047758D01*
X132456899Y-96986471D01*
X132323745Y-96897501D01*
X132210499Y-96784255D01*
X132121529Y-96651101D01*
X132060242Y-96503142D01*
X132029000Y-96346075D01*
X132029000Y-96185925D01*
X132060242Y-96028858D01*
X132121529Y-95880899D01*
X132210499Y-95747745D01*
X132323745Y-95634499D01*
X132456899Y-95545529D01*
X132604858Y-95484242D01*
X132761925Y-95453000D01*
X132922075Y-95453000D01*
X133079142Y-95484242D01*
G37*
G36*
X130539142Y-95484242D02*
G01*
X130687101Y-95545529D01*
X130820255Y-95634499D01*
X130933501Y-95747745D01*
X131022471Y-95880899D01*
X131083758Y-96028858D01*
X131115000Y-96185925D01*
X131115000Y-96346075D01*
X131083758Y-96503142D01*
X131022471Y-96651101D01*
X130933501Y-96784255D01*
X130820255Y-96897501D01*
X130687101Y-96986471D01*
X130539142Y-97047758D01*
X130382075Y-97079000D01*
X130221925Y-97079000D01*
X130064858Y-97047758D01*
X129916899Y-96986471D01*
X129783745Y-96897501D01*
X129670499Y-96784255D01*
X129581529Y-96651101D01*
X129520242Y-96503142D01*
X129489000Y-96346075D01*
X129489000Y-96185925D01*
X129520242Y-96028858D01*
X129581529Y-95880899D01*
X129670499Y-95747745D01*
X129783745Y-95634499D01*
X129916899Y-95545529D01*
X130064858Y-95484242D01*
X130221925Y-95453000D01*
X130382075Y-95453000D01*
X130539142Y-95484242D01*
G37*
G36*
X127999142Y-95484242D02*
G01*
X128147101Y-95545529D01*
X128280255Y-95634499D01*
X128393501Y-95747745D01*
X128482471Y-95880899D01*
X128543758Y-96028858D01*
X128575000Y-96185925D01*
X128575000Y-96346075D01*
X128543758Y-96503142D01*
X128482471Y-96651101D01*
X128393501Y-96784255D01*
X128280255Y-96897501D01*
X128147101Y-96986471D01*
X127999142Y-97047758D01*
X127842075Y-97079000D01*
X127681925Y-97079000D01*
X127524858Y-97047758D01*
X127376899Y-96986471D01*
X127243745Y-96897501D01*
X127130499Y-96784255D01*
X127041529Y-96651101D01*
X126980242Y-96503142D01*
X126949000Y-96346075D01*
X126949000Y-96185925D01*
X126980242Y-96028858D01*
X127041529Y-95880899D01*
X127130499Y-95747745D01*
X127243745Y-95634499D01*
X127376899Y-95545529D01*
X127524858Y-95484242D01*
X127681925Y-95453000D01*
X127842075Y-95453000D01*
X127999142Y-95484242D01*
G37*
G36*
X125459142Y-95484242D02*
G01*
X125607101Y-95545529D01*
X125740255Y-95634499D01*
X125853501Y-95747745D01*
X125942471Y-95880899D01*
X126003758Y-96028858D01*
X126035000Y-96185925D01*
X126035000Y-96346075D01*
X126003758Y-96503142D01*
X125942471Y-96651101D01*
X125853501Y-96784255D01*
X125740255Y-96897501D01*
X125607101Y-96986471D01*
X125459142Y-97047758D01*
X125302075Y-97079000D01*
X125141925Y-97079000D01*
X124984858Y-97047758D01*
X124836899Y-96986471D01*
X124703745Y-96897501D01*
X124590499Y-96784255D01*
X124501529Y-96651101D01*
X124440242Y-96503142D01*
X124409000Y-96346075D01*
X124409000Y-96185925D01*
X124440242Y-96028858D01*
X124501529Y-95880899D01*
X124590499Y-95747745D01*
X124703745Y-95634499D01*
X124836899Y-95545529D01*
X124984858Y-95484242D01*
X125141925Y-95453000D01*
X125302075Y-95453000D01*
X125459142Y-95484242D01*
G37*
G36*
X122919142Y-95484242D02*
G01*
X123067101Y-95545529D01*
X123200255Y-95634499D01*
X123313501Y-95747745D01*
X123402471Y-95880899D01*
X123463758Y-96028858D01*
X123495000Y-96185925D01*
X123495000Y-96346075D01*
X123463758Y-96503142D01*
X123402471Y-96651101D01*
X123313501Y-96784255D01*
X123200255Y-96897501D01*
X123067101Y-96986471D01*
X122919142Y-97047758D01*
X122762075Y-97079000D01*
X122601925Y-97079000D01*
X122444858Y-97047758D01*
X122296899Y-96986471D01*
X122163745Y-96897501D01*
X122050499Y-96784255D01*
X121961529Y-96651101D01*
X121900242Y-96503142D01*
X121869000Y-96346075D01*
X121869000Y-96185925D01*
X121900242Y-96028858D01*
X121961529Y-95880899D01*
X122050499Y-95747745D01*
X122163745Y-95634499D01*
X122296899Y-95545529D01*
X122444858Y-95484242D01*
X122601925Y-95453000D01*
X122762075Y-95453000D01*
X122919142Y-95484242D01*
G37*
G36*
X120955000Y-97079000D02*
G01*
X119329000Y-97079000D01*
X119329000Y-95453000D01*
X120955000Y-95453000D01*
X120955000Y-97079000D01*
G37*
G36*
X120379142Y-87864242D02*
G01*
X120527101Y-87925529D01*
X120660255Y-88014499D01*
X120773501Y-88127745D01*
X120862471Y-88260899D01*
X120923758Y-88408858D01*
X120955000Y-88565925D01*
X120955000Y-88726075D01*
X120923758Y-88883142D01*
X120862471Y-89031101D01*
X120773501Y-89164255D01*
X120660255Y-89277501D01*
X120527101Y-89366471D01*
X120379142Y-89427758D01*
X120222075Y-89459000D01*
X120061925Y-89459000D01*
X119904858Y-89427758D01*
X119756899Y-89366471D01*
X119623745Y-89277501D01*
X119510499Y-89164255D01*
X119421529Y-89031101D01*
X119360242Y-88883142D01*
X119329000Y-88726075D01*
X119329000Y-88565925D01*
X119360242Y-88408858D01*
X119421529Y-88260899D01*
X119510499Y-88127745D01*
X119623745Y-88014499D01*
X119756899Y-87925529D01*
X119904858Y-87864242D01*
X120061925Y-87833000D01*
X120222075Y-87833000D01*
X120379142Y-87864242D01*
G37*
G36*
X122919142Y-87864242D02*
G01*
X123067101Y-87925529D01*
X123200255Y-88014499D01*
X123313501Y-88127745D01*
X123402471Y-88260899D01*
X123463758Y-88408858D01*
X123495000Y-88565925D01*
X123495000Y-88726075D01*
X123463758Y-88883142D01*
X123402471Y-89031101D01*
X123313501Y-89164255D01*
X123200255Y-89277501D01*
X123067101Y-89366471D01*
X122919142Y-89427758D01*
X122762075Y-89459000D01*
X122601925Y-89459000D01*
X122444858Y-89427758D01*
X122296899Y-89366471D01*
X122163745Y-89277501D01*
X122050499Y-89164255D01*
X121961529Y-89031101D01*
X121900242Y-88883142D01*
X121869000Y-88726075D01*
X121869000Y-88565925D01*
X121900242Y-88408858D01*
X121961529Y-88260899D01*
X122050499Y-88127745D01*
X122163745Y-88014499D01*
X122296899Y-87925529D01*
X122444858Y-87864242D01*
X122601925Y-87833000D01*
X122762075Y-87833000D01*
X122919142Y-87864242D01*
G37*
G36*
X125459142Y-87864242D02*
G01*
X125607101Y-87925529D01*
X125740255Y-88014499D01*
X125853501Y-88127745D01*
X125942471Y-88260899D01*
X126003758Y-88408858D01*
X126035000Y-88565925D01*
X126035000Y-88726075D01*
X126003758Y-88883142D01*
X125942471Y-89031101D01*
X125853501Y-89164255D01*
X125740255Y-89277501D01*
X125607101Y-89366471D01*
X125459142Y-89427758D01*
X125302075Y-89459000D01*
X125141925Y-89459000D01*
X124984858Y-89427758D01*
X124836899Y-89366471D01*
X124703745Y-89277501D01*
X124590499Y-89164255D01*
X124501529Y-89031101D01*
X124440242Y-88883142D01*
X124409000Y-88726075D01*
X124409000Y-88565925D01*
X124440242Y-88408858D01*
X124501529Y-88260899D01*
X124590499Y-88127745D01*
X124703745Y-88014499D01*
X124836899Y-87925529D01*
X124984858Y-87864242D01*
X125141925Y-87833000D01*
X125302075Y-87833000D01*
X125459142Y-87864242D01*
G37*
G36*
X127872142Y-87864242D02*
G01*
X128020101Y-87925529D01*
X128153255Y-88014499D01*
X128266501Y-88127745D01*
X128355471Y-88260899D01*
X128416758Y-88408858D01*
X128448000Y-88565925D01*
X128448000Y-88726075D01*
X128416758Y-88883142D01*
X128355471Y-89031101D01*
X128266501Y-89164255D01*
X128153255Y-89277501D01*
X128020101Y-89366471D01*
X127872142Y-89427758D01*
X127715075Y-89459000D01*
X127554925Y-89459000D01*
X127397858Y-89427758D01*
X127249899Y-89366471D01*
X127116745Y-89277501D01*
X127003499Y-89164255D01*
X126914529Y-89031101D01*
X126853242Y-88883142D01*
X126822000Y-88726075D01*
X126822000Y-88565925D01*
X126853242Y-88408858D01*
X126914529Y-88260899D01*
X127003499Y-88127745D01*
X127116745Y-88014499D01*
X127249899Y-87925529D01*
X127397858Y-87864242D01*
X127554925Y-87833000D01*
X127715075Y-87833000D01*
X127872142Y-87864242D01*
G37*
G36*
X130539142Y-87864242D02*
G01*
X130687101Y-87925529D01*
X130820255Y-88014499D01*
X130933501Y-88127745D01*
X131022471Y-88260899D01*
X131083758Y-88408858D01*
X131115000Y-88565925D01*
X131115000Y-88726075D01*
X131083758Y-88883142D01*
X131022471Y-89031101D01*
X130933501Y-89164255D01*
X130820255Y-89277501D01*
X130687101Y-89366471D01*
X130539142Y-89427758D01*
X130382075Y-89459000D01*
X130221925Y-89459000D01*
X130064858Y-89427758D01*
X129916899Y-89366471D01*
X129783745Y-89277501D01*
X129670499Y-89164255D01*
X129581529Y-89031101D01*
X129520242Y-88883142D01*
X129489000Y-88726075D01*
X129489000Y-88565925D01*
X129520242Y-88408858D01*
X129581529Y-88260899D01*
X129670499Y-88127745D01*
X129783745Y-88014499D01*
X129916899Y-87925529D01*
X130064858Y-87864242D01*
X130221925Y-87833000D01*
X130382075Y-87833000D01*
X130539142Y-87864242D01*
G37*
G36*
X133079142Y-87864242D02*
G01*
X133227101Y-87925529D01*
X133360255Y-88014499D01*
X133473501Y-88127745D01*
X133562471Y-88260899D01*
X133623758Y-88408858D01*
X133655000Y-88565925D01*
X133655000Y-88726075D01*
X133623758Y-88883142D01*
X133562471Y-89031101D01*
X133473501Y-89164255D01*
X133360255Y-89277501D01*
X133227101Y-89366471D01*
X133079142Y-89427758D01*
X132922075Y-89459000D01*
X132761925Y-89459000D01*
X132604858Y-89427758D01*
X132456899Y-89366471D01*
X132323745Y-89277501D01*
X132210499Y-89164255D01*
X132121529Y-89031101D01*
X132060242Y-88883142D01*
X132029000Y-88726075D01*
X132029000Y-88565925D01*
X132060242Y-88408858D01*
X132121529Y-88260899D01*
X132210499Y-88127745D01*
X132323745Y-88014499D01*
X132456899Y-87925529D01*
X132604858Y-87864242D01*
X132761925Y-87833000D01*
X132922075Y-87833000D01*
X133079142Y-87864242D01*
G37*
G36*
X135619142Y-87864242D02*
G01*
X135767101Y-87925529D01*
X135900255Y-88014499D01*
X136013501Y-88127745D01*
X136102471Y-88260899D01*
X136163758Y-88408858D01*
X136195000Y-88565925D01*
X136195000Y-88726075D01*
X136163758Y-88883142D01*
X136102471Y-89031101D01*
X136013501Y-89164255D01*
X135900255Y-89277501D01*
X135767101Y-89366471D01*
X135619142Y-89427758D01*
X135462075Y-89459000D01*
X135301925Y-89459000D01*
X135144858Y-89427758D01*
X134996899Y-89366471D01*
X134863745Y-89277501D01*
X134750499Y-89164255D01*
X134661529Y-89031101D01*
X134600242Y-88883142D01*
X134569000Y-88726075D01*
X134569000Y-88565925D01*
X134600242Y-88408858D01*
X134661529Y-88260899D01*
X134750499Y-88127745D01*
X134863745Y-88014499D01*
X134996899Y-87925529D01*
X135144858Y-87864242D01*
X135301925Y-87833000D01*
X135462075Y-87833000D01*
X135619142Y-87864242D01*
G37*
G36*
X138159142Y-87864242D02*
G01*
X138307101Y-87925529D01*
X138440255Y-88014499D01*
X138553501Y-88127745D01*
X138642471Y-88260899D01*
X138703758Y-88408858D01*
X138735000Y-88565925D01*
X138735000Y-88726075D01*
X138703758Y-88883142D01*
X138642471Y-89031101D01*
X138553501Y-89164255D01*
X138440255Y-89277501D01*
X138307101Y-89366471D01*
X138159142Y-89427758D01*
X138002075Y-89459000D01*
X137841925Y-89459000D01*
X137684858Y-89427758D01*
X137536899Y-89366471D01*
X137403745Y-89277501D01*
X137290499Y-89164255D01*
X137201529Y-89031101D01*
X137140242Y-88883142D01*
X137109000Y-88726075D01*
X137109000Y-88565925D01*
X137140242Y-88408858D01*
X137201529Y-88260899D01*
X137290499Y-88127745D01*
X137403745Y-88014499D01*
X137536899Y-87925529D01*
X137684858Y-87864242D01*
X137841925Y-87833000D01*
X138002075Y-87833000D01*
X138159142Y-87864242D01*
G37*
G36*
X140699142Y-87864242D02*
G01*
X140847101Y-87925529D01*
X140980255Y-88014499D01*
X141093501Y-88127745D01*
X141182471Y-88260899D01*
X141243758Y-88408858D01*
X141275000Y-88565925D01*
X141275000Y-88726075D01*
X141243758Y-88883142D01*
X141182471Y-89031101D01*
X141093501Y-89164255D01*
X140980255Y-89277501D01*
X140847101Y-89366471D01*
X140699142Y-89427758D01*
X140542075Y-89459000D01*
X140381925Y-89459000D01*
X140224858Y-89427758D01*
X140076899Y-89366471D01*
X139943745Y-89277501D01*
X139830499Y-89164255D01*
X139741529Y-89031101D01*
X139680242Y-88883142D01*
X139649000Y-88726075D01*
X139649000Y-88565925D01*
X139680242Y-88408858D01*
X139741529Y-88260899D01*
X139830499Y-88127745D01*
X139943745Y-88014499D01*
X140076899Y-87925529D01*
X140224858Y-87864242D01*
X140381925Y-87833000D01*
X140542075Y-87833000D01*
X140699142Y-87864242D01*
G37*
G36*
X143239142Y-87864242D02*
G01*
X143387101Y-87925529D01*
X143520255Y-88014499D01*
X143633501Y-88127745D01*
X143722471Y-88260899D01*
X143783758Y-88408858D01*
X143815000Y-88565925D01*
X143815000Y-88726075D01*
X143783758Y-88883142D01*
X143722471Y-89031101D01*
X143633501Y-89164255D01*
X143520255Y-89277501D01*
X143387101Y-89366471D01*
X143239142Y-89427758D01*
X143082075Y-89459000D01*
X142921925Y-89459000D01*
X142764858Y-89427758D01*
X142616899Y-89366471D01*
X142483745Y-89277501D01*
X142370499Y-89164255D01*
X142281529Y-89031101D01*
X142220242Y-88883142D01*
X142189000Y-88726075D01*
X142189000Y-88565925D01*
X142220242Y-88408858D01*
X142281529Y-88260899D01*
X142370499Y-88127745D01*
X142483745Y-88014499D01*
X142616899Y-87925529D01*
X142764858Y-87864242D01*
X142921925Y-87833000D01*
X143082075Y-87833000D01*
X143239142Y-87864242D01*
G37*
G36*
X145779142Y-87864242D02*
G01*
X145927101Y-87925529D01*
X146060255Y-88014499D01*
X146173501Y-88127745D01*
X146262471Y-88260899D01*
X146323758Y-88408858D01*
X146355000Y-88565925D01*
X146355000Y-88726075D01*
X146323758Y-88883142D01*
X146262471Y-89031101D01*
X146173501Y-89164255D01*
X146060255Y-89277501D01*
X145927101Y-89366471D01*
X145779142Y-89427758D01*
X145622075Y-89459000D01*
X145461925Y-89459000D01*
X145304858Y-89427758D01*
X145156899Y-89366471D01*
X145023745Y-89277501D01*
X144910499Y-89164255D01*
X144821529Y-89031101D01*
X144760242Y-88883142D01*
X144729000Y-88726075D01*
X144729000Y-88565925D01*
X144760242Y-88408858D01*
X144821529Y-88260899D01*
X144910499Y-88127745D01*
X145023745Y-88014499D01*
X145156899Y-87925529D01*
X145304858Y-87864242D01*
X145461925Y-87833000D01*
X145622075Y-87833000D01*
X145779142Y-87864242D01*
G37*
G36*
X148319142Y-87864242D02*
G01*
X148467101Y-87925529D01*
X148600255Y-88014499D01*
X148713501Y-88127745D01*
X148802471Y-88260899D01*
X148863758Y-88408858D01*
X148895000Y-88565925D01*
X148895000Y-88726075D01*
X148863758Y-88883142D01*
X148802471Y-89031101D01*
X148713501Y-89164255D01*
X148600255Y-89277501D01*
X148467101Y-89366471D01*
X148319142Y-89427758D01*
X148162075Y-89459000D01*
X148001925Y-89459000D01*
X147844858Y-89427758D01*
X147696899Y-89366471D01*
X147563745Y-89277501D01*
X147450499Y-89164255D01*
X147361529Y-89031101D01*
X147300242Y-88883142D01*
X147269000Y-88726075D01*
X147269000Y-88565925D01*
X147300242Y-88408858D01*
X147361529Y-88260899D01*
X147450499Y-88127745D01*
X147563745Y-88014499D01*
X147696899Y-87925529D01*
X147844858Y-87864242D01*
X148001925Y-87833000D01*
X148162075Y-87833000D01*
X148319142Y-87864242D01*
G37*
G36*
X150859142Y-87864242D02*
G01*
X151007101Y-87925529D01*
X151140255Y-88014499D01*
X151253501Y-88127745D01*
X151342471Y-88260899D01*
X151403758Y-88408858D01*
X151435000Y-88565925D01*
X151435000Y-88726075D01*
X151403758Y-88883142D01*
X151342471Y-89031101D01*
X151253501Y-89164255D01*
X151140255Y-89277501D01*
X151007101Y-89366471D01*
X150859142Y-89427758D01*
X150702075Y-89459000D01*
X150541925Y-89459000D01*
X150384858Y-89427758D01*
X150236899Y-89366471D01*
X150103745Y-89277501D01*
X149990499Y-89164255D01*
X149901529Y-89031101D01*
X149840242Y-88883142D01*
X149809000Y-88726075D01*
X149809000Y-88565925D01*
X149840242Y-88408858D01*
X149901529Y-88260899D01*
X149990499Y-88127745D01*
X150103745Y-88014499D01*
X150236899Y-87925529D01*
X150384858Y-87864242D01*
X150541925Y-87833000D01*
X150702075Y-87833000D01*
X150859142Y-87864242D01*
G37*
G36*
X153399142Y-87864242D02*
G01*
X153547101Y-87925529D01*
X153680255Y-88014499D01*
X153793501Y-88127745D01*
X153882471Y-88260899D01*
X153943758Y-88408858D01*
X153975000Y-88565925D01*
X153975000Y-88726075D01*
X153943758Y-88883142D01*
X153882471Y-89031101D01*
X153793501Y-89164255D01*
X153680255Y-89277501D01*
X153547101Y-89366471D01*
X153399142Y-89427758D01*
X153242075Y-89459000D01*
X153081925Y-89459000D01*
X152924858Y-89427758D01*
X152776899Y-89366471D01*
X152643745Y-89277501D01*
X152530499Y-89164255D01*
X152441529Y-89031101D01*
X152380242Y-88883142D01*
X152349000Y-88726075D01*
X152349000Y-88565925D01*
X152380242Y-88408858D01*
X152441529Y-88260899D01*
X152530499Y-88127745D01*
X152643745Y-88014499D01*
X152776899Y-87925529D01*
X152924858Y-87864242D01*
X153081925Y-87833000D01*
X153242075Y-87833000D01*
X153399142Y-87864242D01*
G37*
G36*
X160110254Y-80323818D02*
G01*
X160483511Y-80478426D01*
X160483513Y-80478427D01*
X160819436Y-80702884D01*
X161105116Y-80988564D01*
X161329574Y-81324489D01*
X161484182Y-81697746D01*
X161563000Y-82093993D01*
X161563000Y-82498007D01*
X161484182Y-82894254D01*
X161329574Y-83267511D01*
X161329573Y-83267513D01*
X161105116Y-83603436D01*
X160819436Y-83889116D01*
X160483513Y-84113573D01*
X160483512Y-84113574D01*
X160483511Y-84113574D01*
X160110254Y-84268182D01*
X159714007Y-84347000D01*
X159309993Y-84347000D01*
X158913746Y-84268182D01*
X158540489Y-84113574D01*
X158540488Y-84113574D01*
X158540487Y-84113573D01*
X158204564Y-83889116D01*
X157918884Y-83603436D01*
X157694427Y-83267513D01*
X157694426Y-83267511D01*
X157539818Y-82894254D01*
X157461000Y-82498007D01*
X157461000Y-82093993D01*
X157539818Y-81697746D01*
X157694426Y-81324489D01*
X157918884Y-80988564D01*
X158204564Y-80702884D01*
X158540487Y-80478427D01*
X158540489Y-80478426D01*
X158913746Y-80323818D01*
X159309993Y-80245000D01*
X159714007Y-80245000D01*
X160110254Y-80323818D01*
G37*
G36*
X155360822Y-79533313D02*
G01*
X155521241Y-79581976D01*
X155669077Y-79660995D01*
X155798659Y-79767341D01*
X155905004Y-79896922D01*
X155905005Y-79896924D01*
X155984024Y-80044758D01*
X156032687Y-80205177D01*
X156045000Y-80330196D01*
X156045000Y-81213803D01*
X156032687Y-81338822D01*
X155984024Y-81499242D01*
X155913114Y-81631906D01*
X155905004Y-81647078D01*
X155798659Y-81776659D01*
X155669078Y-81883004D01*
X155669076Y-81883005D01*
X155521242Y-81962024D01*
X155360823Y-82010687D01*
X155194000Y-82027117D01*
X155027178Y-82010687D01*
X154866759Y-81962024D01*
X154718925Y-81883005D01*
X154718923Y-81883004D01*
X154589342Y-81776659D01*
X154482997Y-81647078D01*
X154474887Y-81631906D01*
X154403977Y-81499242D01*
X154355314Y-81338823D01*
X154343000Y-81213803D01*
X154343000Y-80330197D01*
X154355313Y-80205178D01*
X154403976Y-80044759D01*
X154482995Y-79896923D01*
X154589341Y-79767341D01*
X154718922Y-79660996D01*
X154734094Y-79652886D01*
X154866758Y-79581976D01*
X155027177Y-79533313D01*
X155194000Y-79516883D01*
X155360822Y-79533313D01*
G37*
G36*
X119800822Y-79533313D02*
G01*
X119961241Y-79581976D01*
X120109077Y-79660995D01*
X120238659Y-79767341D01*
X120345004Y-79896922D01*
X120345005Y-79896924D01*
X120424024Y-80044758D01*
X120472687Y-80205177D01*
X120485000Y-80330196D01*
X120485000Y-81213803D01*
X120472687Y-81338822D01*
X120424024Y-81499242D01*
X120353114Y-81631906D01*
X120345004Y-81647078D01*
X120238659Y-81776659D01*
X120109078Y-81883004D01*
X120109076Y-81883005D01*
X119961242Y-81962024D01*
X119800823Y-82010687D01*
X119634000Y-82027117D01*
X119467178Y-82010687D01*
X119306759Y-81962024D01*
X119158925Y-81883005D01*
X119158923Y-81883004D01*
X119029342Y-81776659D01*
X118922997Y-81647078D01*
X118914887Y-81631906D01*
X118843977Y-81499242D01*
X118795314Y-81338823D01*
X118783000Y-81213803D01*
X118783000Y-80330197D01*
X118795313Y-80205178D01*
X118843976Y-80044759D01*
X118922995Y-79896923D01*
X119029341Y-79767341D01*
X119158922Y-79660996D01*
X119174094Y-79652886D01*
X119306758Y-79581976D01*
X119467177Y-79533313D01*
X119634000Y-79516883D01*
X119800822Y-79533313D01*
G37*
G36*
X150280822Y-79533313D02*
G01*
X150441241Y-79581976D01*
X150589077Y-79660995D01*
X150718659Y-79767341D01*
X150825004Y-79896922D01*
X150825005Y-79896924D01*
X150904024Y-80044758D01*
X150952687Y-80205177D01*
X150965000Y-80330196D01*
X150965000Y-81213803D01*
X150952687Y-81338822D01*
X150904024Y-81499242D01*
X150833114Y-81631906D01*
X150825004Y-81647078D01*
X150718659Y-81776659D01*
X150589078Y-81883004D01*
X150589076Y-81883005D01*
X150441242Y-81962024D01*
X150280823Y-82010687D01*
X150114000Y-82027117D01*
X149947178Y-82010687D01*
X149786759Y-81962024D01*
X149638925Y-81883005D01*
X149638923Y-81883004D01*
X149509342Y-81776659D01*
X149402997Y-81647078D01*
X149394887Y-81631906D01*
X149323977Y-81499242D01*
X149275314Y-81338823D01*
X149263000Y-81213803D01*
X149263000Y-80330197D01*
X149275313Y-80205178D01*
X149323976Y-80044759D01*
X149402995Y-79896923D01*
X149509341Y-79767341D01*
X149638922Y-79660996D01*
X149654094Y-79652886D01*
X149786758Y-79581976D01*
X149947177Y-79533313D01*
X150114000Y-79516883D01*
X150280822Y-79533313D01*
G37*
G36*
X152820822Y-79533313D02*
G01*
X152981241Y-79581976D01*
X153129077Y-79660995D01*
X153258659Y-79767341D01*
X153365004Y-79896922D01*
X153365005Y-79896924D01*
X153444024Y-80044758D01*
X153492687Y-80205177D01*
X153505000Y-80330196D01*
X153505000Y-81213803D01*
X153492687Y-81338822D01*
X153444024Y-81499242D01*
X153373114Y-81631906D01*
X153365004Y-81647078D01*
X153258659Y-81776659D01*
X153129078Y-81883004D01*
X153129076Y-81883005D01*
X152981242Y-81962024D01*
X152820823Y-82010687D01*
X152654000Y-82027117D01*
X152487178Y-82010687D01*
X152326759Y-81962024D01*
X152178925Y-81883005D01*
X152178923Y-81883004D01*
X152049342Y-81776659D01*
X151942997Y-81647078D01*
X151934887Y-81631906D01*
X151863977Y-81499242D01*
X151815314Y-81338823D01*
X151803000Y-81213803D01*
X151803000Y-80330197D01*
X151815313Y-80205178D01*
X151863976Y-80044759D01*
X151942995Y-79896923D01*
X152049341Y-79767341D01*
X152178922Y-79660996D01*
X152194094Y-79652886D01*
X152326758Y-79581976D01*
X152487177Y-79533313D01*
X152654000Y-79516883D01*
X152820822Y-79533313D01*
G37*
G36*
X147740822Y-79533313D02*
G01*
X147901241Y-79581976D01*
X148049077Y-79660995D01*
X148178659Y-79767341D01*
X148285004Y-79896922D01*
X148285005Y-79896924D01*
X148364024Y-80044758D01*
X148412687Y-80205177D01*
X148425000Y-80330196D01*
X148425000Y-81213803D01*
X148412687Y-81338822D01*
X148364024Y-81499242D01*
X148293114Y-81631906D01*
X148285004Y-81647078D01*
X148178659Y-81776659D01*
X148049078Y-81883004D01*
X148049076Y-81883005D01*
X147901242Y-81962024D01*
X147740823Y-82010687D01*
X147574000Y-82027117D01*
X147407178Y-82010687D01*
X147246759Y-81962024D01*
X147098925Y-81883005D01*
X147098923Y-81883004D01*
X146969342Y-81776659D01*
X146862997Y-81647078D01*
X146854887Y-81631906D01*
X146783977Y-81499242D01*
X146735314Y-81338823D01*
X146723000Y-81213803D01*
X146723000Y-80330197D01*
X146735313Y-80205178D01*
X146783976Y-80044759D01*
X146862995Y-79896923D01*
X146969341Y-79767341D01*
X147098922Y-79660996D01*
X147114094Y-79652886D01*
X147246758Y-79581976D01*
X147407177Y-79533313D01*
X147574000Y-79516883D01*
X147740822Y-79533313D01*
G37*
G36*
X145200822Y-79533313D02*
G01*
X145361241Y-79581976D01*
X145509077Y-79660995D01*
X145638659Y-79767341D01*
X145745004Y-79896922D01*
X145745005Y-79896924D01*
X145824024Y-80044758D01*
X145872687Y-80205177D01*
X145885000Y-80330196D01*
X145885000Y-81213803D01*
X145872687Y-81338822D01*
X145824024Y-81499242D01*
X145753114Y-81631906D01*
X145745004Y-81647078D01*
X145638659Y-81776659D01*
X145509078Y-81883004D01*
X145509076Y-81883005D01*
X145361242Y-81962024D01*
X145200823Y-82010687D01*
X145034000Y-82027117D01*
X144867178Y-82010687D01*
X144706759Y-81962024D01*
X144558925Y-81883005D01*
X144558923Y-81883004D01*
X144429342Y-81776659D01*
X144322997Y-81647078D01*
X144314887Y-81631906D01*
X144243977Y-81499242D01*
X144195314Y-81338823D01*
X144183000Y-81213803D01*
X144183000Y-80330197D01*
X144195313Y-80205178D01*
X144243976Y-80044759D01*
X144322995Y-79896923D01*
X144429341Y-79767341D01*
X144558922Y-79660996D01*
X144574094Y-79652886D01*
X144706758Y-79581976D01*
X144867177Y-79533313D01*
X145034000Y-79516883D01*
X145200822Y-79533313D01*
G37*
G36*
X142660822Y-79533313D02*
G01*
X142821241Y-79581976D01*
X142969077Y-79660995D01*
X143098659Y-79767341D01*
X143205004Y-79896922D01*
X143205005Y-79896924D01*
X143284024Y-80044758D01*
X143332687Y-80205177D01*
X143345000Y-80330196D01*
X143345000Y-81213803D01*
X143332687Y-81338822D01*
X143284024Y-81499242D01*
X143213114Y-81631906D01*
X143205004Y-81647078D01*
X143098659Y-81776659D01*
X142969078Y-81883004D01*
X142969076Y-81883005D01*
X142821242Y-81962024D01*
X142660823Y-82010687D01*
X142494000Y-82027117D01*
X142327178Y-82010687D01*
X142166759Y-81962024D01*
X142018925Y-81883005D01*
X142018923Y-81883004D01*
X141889342Y-81776659D01*
X141782997Y-81647078D01*
X141774887Y-81631906D01*
X141703977Y-81499242D01*
X141655314Y-81338823D01*
X141643000Y-81213803D01*
X141643000Y-80330197D01*
X141655313Y-80205178D01*
X141703976Y-80044759D01*
X141782995Y-79896923D01*
X141889341Y-79767341D01*
X142018922Y-79660996D01*
X142034094Y-79652886D01*
X142166758Y-79581976D01*
X142327177Y-79533313D01*
X142494000Y-79516883D01*
X142660822Y-79533313D01*
G37*
G36*
X140120822Y-79533313D02*
G01*
X140281241Y-79581976D01*
X140429077Y-79660995D01*
X140558659Y-79767341D01*
X140665004Y-79896922D01*
X140665005Y-79896924D01*
X140744024Y-80044758D01*
X140792687Y-80205177D01*
X140805000Y-80330196D01*
X140805000Y-81213803D01*
X140792687Y-81338822D01*
X140744024Y-81499242D01*
X140673114Y-81631906D01*
X140665004Y-81647078D01*
X140558659Y-81776659D01*
X140429078Y-81883004D01*
X140429076Y-81883005D01*
X140281242Y-81962024D01*
X140120823Y-82010687D01*
X139954000Y-82027117D01*
X139787178Y-82010687D01*
X139626759Y-81962024D01*
X139478925Y-81883005D01*
X139478923Y-81883004D01*
X139349342Y-81776659D01*
X139242997Y-81647078D01*
X139234887Y-81631906D01*
X139163977Y-81499242D01*
X139115314Y-81338823D01*
X139103000Y-81213803D01*
X139103000Y-80330197D01*
X139115313Y-80205178D01*
X139163976Y-80044759D01*
X139242995Y-79896923D01*
X139349341Y-79767341D01*
X139478922Y-79660996D01*
X139494094Y-79652886D01*
X139626758Y-79581976D01*
X139787177Y-79533313D01*
X139954000Y-79516883D01*
X140120822Y-79533313D01*
G37*
G36*
X137580822Y-79533313D02*
G01*
X137741241Y-79581976D01*
X137889077Y-79660995D01*
X138018659Y-79767341D01*
X138125004Y-79896922D01*
X138125005Y-79896924D01*
X138204024Y-80044758D01*
X138252687Y-80205177D01*
X138265000Y-80330196D01*
X138265000Y-81213803D01*
X138252687Y-81338822D01*
X138204024Y-81499242D01*
X138133114Y-81631906D01*
X138125004Y-81647078D01*
X138018659Y-81776659D01*
X137889078Y-81883004D01*
X137889076Y-81883005D01*
X137741242Y-81962024D01*
X137580823Y-82010687D01*
X137414000Y-82027117D01*
X137247178Y-82010687D01*
X137086759Y-81962024D01*
X136938925Y-81883005D01*
X136938923Y-81883004D01*
X136809342Y-81776659D01*
X136702997Y-81647078D01*
X136694887Y-81631906D01*
X136623977Y-81499242D01*
X136575314Y-81338823D01*
X136563000Y-81213803D01*
X136563000Y-80330197D01*
X136575313Y-80205178D01*
X136623976Y-80044759D01*
X136702995Y-79896923D01*
X136809341Y-79767341D01*
X136938922Y-79660996D01*
X136954094Y-79652886D01*
X137086758Y-79581976D01*
X137247177Y-79533313D01*
X137414000Y-79516883D01*
X137580822Y-79533313D01*
G37*
G36*
X135040822Y-79533313D02*
G01*
X135201241Y-79581976D01*
X135349077Y-79660995D01*
X135478659Y-79767341D01*
X135585004Y-79896922D01*
X135585005Y-79896924D01*
X135664024Y-80044758D01*
X135712687Y-80205177D01*
X135725000Y-80330196D01*
X135725000Y-81213803D01*
X135712687Y-81338822D01*
X135664024Y-81499242D01*
X135593114Y-81631906D01*
X135585004Y-81647078D01*
X135478659Y-81776659D01*
X135349078Y-81883004D01*
X135349076Y-81883005D01*
X135201242Y-81962024D01*
X135040823Y-82010687D01*
X134874000Y-82027117D01*
X134707178Y-82010687D01*
X134546759Y-81962024D01*
X134398925Y-81883005D01*
X134398923Y-81883004D01*
X134269342Y-81776659D01*
X134162997Y-81647078D01*
X134154887Y-81631906D01*
X134083977Y-81499242D01*
X134035314Y-81338823D01*
X134023000Y-81213803D01*
X134023000Y-80330197D01*
X134035313Y-80205178D01*
X134083976Y-80044759D01*
X134162995Y-79896923D01*
X134269341Y-79767341D01*
X134398922Y-79660996D01*
X134414094Y-79652886D01*
X134546758Y-79581976D01*
X134707177Y-79533313D01*
X134874000Y-79516883D01*
X135040822Y-79533313D01*
G37*
G36*
X132500822Y-79533313D02*
G01*
X132661241Y-79581976D01*
X132809077Y-79660995D01*
X132938659Y-79767341D01*
X133045004Y-79896922D01*
X133045005Y-79896924D01*
X133124024Y-80044758D01*
X133172687Y-80205177D01*
X133185000Y-80330196D01*
X133185000Y-81213803D01*
X133172687Y-81338822D01*
X133124024Y-81499242D01*
X133053114Y-81631906D01*
X133045004Y-81647078D01*
X132938659Y-81776659D01*
X132809078Y-81883004D01*
X132809076Y-81883005D01*
X132661242Y-81962024D01*
X132500823Y-82010687D01*
X132334000Y-82027117D01*
X132167178Y-82010687D01*
X132006759Y-81962024D01*
X131858925Y-81883005D01*
X131858923Y-81883004D01*
X131729342Y-81776659D01*
X131622997Y-81647078D01*
X131614887Y-81631906D01*
X131543977Y-81499242D01*
X131495314Y-81338823D01*
X131483000Y-81213803D01*
X131483000Y-80330197D01*
X131495313Y-80205178D01*
X131543976Y-80044759D01*
X131622995Y-79896923D01*
X131729341Y-79767341D01*
X131858922Y-79660996D01*
X131874094Y-79652886D01*
X132006758Y-79581976D01*
X132167177Y-79533313D01*
X132334000Y-79516883D01*
X132500822Y-79533313D01*
G37*
G36*
X129960822Y-79533313D02*
G01*
X130121241Y-79581976D01*
X130269077Y-79660995D01*
X130398659Y-79767341D01*
X130505004Y-79896922D01*
X130505005Y-79896924D01*
X130584024Y-80044758D01*
X130632687Y-80205177D01*
X130645000Y-80330196D01*
X130645000Y-81213803D01*
X130632687Y-81338822D01*
X130584024Y-81499242D01*
X130513114Y-81631906D01*
X130505004Y-81647078D01*
X130398659Y-81776659D01*
X130269078Y-81883004D01*
X130269076Y-81883005D01*
X130121242Y-81962024D01*
X129960823Y-82010687D01*
X129794000Y-82027117D01*
X129627178Y-82010687D01*
X129466759Y-81962024D01*
X129318925Y-81883005D01*
X129318923Y-81883004D01*
X129189342Y-81776659D01*
X129082997Y-81647078D01*
X129074887Y-81631906D01*
X129003977Y-81499242D01*
X128955314Y-81338823D01*
X128943000Y-81213803D01*
X128943000Y-80330197D01*
X128955313Y-80205178D01*
X129003976Y-80044759D01*
X129082995Y-79896923D01*
X129189341Y-79767341D01*
X129318922Y-79660996D01*
X129334094Y-79652886D01*
X129466758Y-79581976D01*
X129627177Y-79533313D01*
X129794000Y-79516883D01*
X129960822Y-79533313D01*
G37*
G36*
X127420822Y-79533313D02*
G01*
X127581241Y-79581976D01*
X127729077Y-79660995D01*
X127858659Y-79767341D01*
X127965004Y-79896922D01*
X127965005Y-79896924D01*
X128044024Y-80044758D01*
X128092687Y-80205177D01*
X128105000Y-80330196D01*
X128105000Y-81213803D01*
X128092687Y-81338822D01*
X128044024Y-81499242D01*
X127973114Y-81631906D01*
X127965004Y-81647078D01*
X127858659Y-81776659D01*
X127729078Y-81883004D01*
X127729076Y-81883005D01*
X127581242Y-81962024D01*
X127420823Y-82010687D01*
X127254000Y-82027117D01*
X127087178Y-82010687D01*
X126926759Y-81962024D01*
X126778925Y-81883005D01*
X126778923Y-81883004D01*
X126649342Y-81776659D01*
X126542997Y-81647078D01*
X126534887Y-81631906D01*
X126463977Y-81499242D01*
X126415314Y-81338823D01*
X126403000Y-81213803D01*
X126403000Y-80330197D01*
X126415313Y-80205178D01*
X126463976Y-80044759D01*
X126542995Y-79896923D01*
X126649341Y-79767341D01*
X126778922Y-79660996D01*
X126794094Y-79652886D01*
X126926758Y-79581976D01*
X127087177Y-79533313D01*
X127254000Y-79516883D01*
X127420822Y-79533313D01*
G37*
G36*
X124880822Y-79533313D02*
G01*
X125041241Y-79581976D01*
X125189077Y-79660995D01*
X125318659Y-79767341D01*
X125425004Y-79896922D01*
X125425005Y-79896924D01*
X125504024Y-80044758D01*
X125552687Y-80205177D01*
X125565000Y-80330196D01*
X125565000Y-81213803D01*
X125552687Y-81338822D01*
X125504024Y-81499242D01*
X125433114Y-81631906D01*
X125425004Y-81647078D01*
X125318659Y-81776659D01*
X125189078Y-81883004D01*
X125189076Y-81883005D01*
X125041242Y-81962024D01*
X124880823Y-82010687D01*
X124714000Y-82027117D01*
X124547178Y-82010687D01*
X124386759Y-81962024D01*
X124238925Y-81883005D01*
X124238923Y-81883004D01*
X124109342Y-81776659D01*
X124002997Y-81647078D01*
X123994887Y-81631906D01*
X123923977Y-81499242D01*
X123875314Y-81338823D01*
X123863000Y-81213803D01*
X123863000Y-80330197D01*
X123875313Y-80205178D01*
X123923976Y-80044759D01*
X124002995Y-79896923D01*
X124109341Y-79767341D01*
X124238922Y-79660996D01*
X124254094Y-79652886D01*
X124386758Y-79581976D01*
X124547177Y-79533313D01*
X124714000Y-79516883D01*
X124880822Y-79533313D01*
G37*
G36*
X122340822Y-79533313D02*
G01*
X122501241Y-79581976D01*
X122649077Y-79660995D01*
X122778659Y-79767341D01*
X122885004Y-79896922D01*
X122885005Y-79896924D01*
X122964024Y-80044758D01*
X123012687Y-80205177D01*
X123025000Y-80330196D01*
X123025000Y-81213803D01*
X123012687Y-81338822D01*
X122964024Y-81499242D01*
X122893114Y-81631906D01*
X122885004Y-81647078D01*
X122778659Y-81776659D01*
X122649078Y-81883004D01*
X122649076Y-81883005D01*
X122501242Y-81962024D01*
X122340823Y-82010687D01*
X122174000Y-82027117D01*
X122007178Y-82010687D01*
X121846759Y-81962024D01*
X121698925Y-81883005D01*
X121698923Y-81883004D01*
X121569342Y-81776659D01*
X121462997Y-81647078D01*
X121454887Y-81631906D01*
X121383977Y-81499242D01*
X121335314Y-81338823D01*
X121323000Y-81213803D01*
X121323000Y-80330197D01*
X121335313Y-80205178D01*
X121383976Y-80044759D01*
X121462995Y-79896923D01*
X121569341Y-79767341D01*
X121698922Y-79660996D01*
X121714094Y-79652886D01*
X121846758Y-79581976D01*
X122007177Y-79533313D01*
X122174000Y-79516883D01*
X122340822Y-79533313D01*
G37*
G36*
X117945000Y-82023000D02*
G01*
X116243000Y-82023000D01*
X116243000Y-79521000D01*
X117945000Y-79521000D01*
X117945000Y-82023000D01*
G37*
G36*
X111850254Y-76767818D02*
G01*
X112223511Y-76922426D01*
X112223513Y-76922427D01*
X112559436Y-77146884D01*
X112845116Y-77432564D01*
X113069574Y-77768489D01*
X113224182Y-78141746D01*
X113303000Y-78537993D01*
X113303000Y-78942007D01*
X113224182Y-79338254D01*
X113123229Y-79581976D01*
X113069573Y-79711513D01*
X112845116Y-80047436D01*
X112559436Y-80333116D01*
X112223513Y-80557573D01*
X112223512Y-80557574D01*
X112223511Y-80557574D01*
X111850254Y-80712182D01*
X111454007Y-80791000D01*
X111049993Y-80791000D01*
X110653746Y-80712182D01*
X110280489Y-80557574D01*
X110280488Y-80557574D01*
X110280487Y-80557573D01*
X109944564Y-80333116D01*
X109658884Y-80047436D01*
X109434427Y-79711513D01*
X109380771Y-79581976D01*
X109279818Y-79338254D01*
X109201000Y-78942007D01*
X109201000Y-78537993D01*
X109279818Y-78141746D01*
X109434426Y-77768489D01*
X109658884Y-77432564D01*
X109944564Y-77146884D01*
X110280487Y-76922427D01*
X110280489Y-76922426D01*
X110653746Y-76767818D01*
X111049993Y-76689000D01*
X111454007Y-76689000D01*
X111850254Y-76767818D01*
G37*
G36*
X163969000Y-74307000D02*
G01*
X162167000Y-74307000D01*
X162167000Y-72505000D01*
X163969000Y-72505000D01*
X163969000Y-74307000D01*
G37*
G36*
X160413000Y-74307000D02*
G01*
X158611000Y-74307000D01*
X158611000Y-72505000D01*
X160413000Y-72505000D01*
X160413000Y-74307000D01*
G37*
G36*
X110349512Y-72001927D02*
G01*
X110498812Y-72031624D01*
X110662784Y-72099544D01*
X110810354Y-72198147D01*
X110935853Y-72323646D01*
X111034456Y-72471216D01*
X111102376Y-72635188D01*
X111137000Y-72809259D01*
X111137000Y-72986741D01*
X111102376Y-73160812D01*
X111034456Y-73324784D01*
X110935853Y-73472354D01*
X110810354Y-73597853D01*
X110662784Y-73696456D01*
X110498812Y-73764376D01*
X110349512Y-73794073D01*
X110324742Y-73799000D01*
X110147258Y-73799000D01*
X110122488Y-73794073D01*
X109973188Y-73764376D01*
X109809216Y-73696456D01*
X109661646Y-73597853D01*
X109536147Y-73472354D01*
X109437544Y-73324784D01*
X109369624Y-73160812D01*
X109335000Y-72986741D01*
X109335000Y-72809259D01*
X109369624Y-72635188D01*
X109437544Y-72471216D01*
X109536147Y-72323646D01*
X109661646Y-72198147D01*
X109809216Y-72099544D01*
X109973188Y-72031624D01*
X110122488Y-72001927D01*
X110147258Y-71997000D01*
X110324742Y-71997000D01*
X110349512Y-72001927D01*
G37*
G36*
X112889512Y-72001927D02*
G01*
X113038812Y-72031624D01*
X113202784Y-72099544D01*
X113350354Y-72198147D01*
X113475853Y-72323646D01*
X113574456Y-72471216D01*
X113642376Y-72635188D01*
X113677000Y-72809259D01*
X113677000Y-72986741D01*
X113642376Y-73160812D01*
X113574456Y-73324784D01*
X113475853Y-73472354D01*
X113350354Y-73597853D01*
X113202784Y-73696456D01*
X113038812Y-73764376D01*
X112889512Y-73794073D01*
X112864742Y-73799000D01*
X112687258Y-73799000D01*
X112662488Y-73794073D01*
X112513188Y-73764376D01*
X112349216Y-73696456D01*
X112201646Y-73597853D01*
X112076147Y-73472354D01*
X111977544Y-73324784D01*
X111909624Y-73160812D01*
X111875000Y-72986741D01*
X111875000Y-72809259D01*
X111909624Y-72635188D01*
X111977544Y-72471216D01*
X112076147Y-72323646D01*
X112201646Y-72198147D01*
X112349216Y-72099544D01*
X112513188Y-72031624D01*
X112662488Y-72001927D01*
X112687258Y-71997000D01*
X112864742Y-71997000D01*
X112889512Y-72001927D01*
G37*
G36*
X159625512Y-69969927D02*
G01*
X159774812Y-69999624D01*
X159938784Y-70067544D01*
X160086354Y-70166147D01*
X160211853Y-70291646D01*
X160310456Y-70439216D01*
X160378376Y-70603188D01*
X160413000Y-70777259D01*
X160413000Y-70954741D01*
X160378376Y-71128812D01*
X160310456Y-71292784D01*
X160211853Y-71440354D01*
X160086354Y-71565853D01*
X159938784Y-71664456D01*
X159774812Y-71732376D01*
X159625512Y-71762073D01*
X159600742Y-71767000D01*
X159423258Y-71767000D01*
X159398488Y-71762073D01*
X159249188Y-71732376D01*
X159085216Y-71664456D01*
X158937646Y-71565853D01*
X158812147Y-71440354D01*
X158713544Y-71292784D01*
X158645624Y-71128812D01*
X158611000Y-70954741D01*
X158611000Y-70777259D01*
X158645624Y-70603188D01*
X158713544Y-70439216D01*
X158812147Y-70291646D01*
X158937646Y-70166147D01*
X159085216Y-70067544D01*
X159249188Y-69999624D01*
X159398488Y-69969927D01*
X159423258Y-69965000D01*
X159600742Y-69965000D01*
X159625512Y-69969927D01*
G37*
G36*
X163181512Y-69969927D02*
G01*
X163330812Y-69999624D01*
X163494784Y-70067544D01*
X163642354Y-70166147D01*
X163767853Y-70291646D01*
X163866456Y-70439216D01*
X163934376Y-70603188D01*
X163969000Y-70777259D01*
X163969000Y-70954741D01*
X163934376Y-71128812D01*
X163866456Y-71292784D01*
X163767853Y-71440354D01*
X163642354Y-71565853D01*
X163494784Y-71664456D01*
X163330812Y-71732376D01*
X163181512Y-71762073D01*
X163156742Y-71767000D01*
X162979258Y-71767000D01*
X162954488Y-71762073D01*
X162805188Y-71732376D01*
X162641216Y-71664456D01*
X162493646Y-71565853D01*
X162368147Y-71440354D01*
X162269544Y-71292784D01*
X162201624Y-71128812D01*
X162167000Y-70954741D01*
X162167000Y-70777259D01*
X162201624Y-70603188D01*
X162269544Y-70439216D01*
X162368147Y-70291646D01*
X162493646Y-70166147D01*
X162641216Y-70067544D01*
X162805188Y-69999624D01*
X162954488Y-69969927D01*
X162979258Y-69965000D01*
X163156742Y-69965000D01*
X163181512Y-69969927D01*
G37*
G36*
X110349512Y-69461927D02*
G01*
X110498812Y-69491624D01*
X110662784Y-69559544D01*
X110810354Y-69658147D01*
X110935853Y-69783646D01*
X111034456Y-69931216D01*
X111102376Y-70095188D01*
X111137000Y-70269259D01*
X111137000Y-70446741D01*
X111102376Y-70620812D01*
X111034456Y-70784784D01*
X110935853Y-70932354D01*
X110810354Y-71057853D01*
X110662784Y-71156456D01*
X110498812Y-71224376D01*
X110349512Y-71254073D01*
X110324742Y-71259000D01*
X110147258Y-71259000D01*
X110122488Y-71254073D01*
X109973188Y-71224376D01*
X109809216Y-71156456D01*
X109661646Y-71057853D01*
X109536147Y-70932354D01*
X109437544Y-70784784D01*
X109369624Y-70620812D01*
X109335000Y-70446741D01*
X109335000Y-70269259D01*
X109369624Y-70095188D01*
X109437544Y-69931216D01*
X109536147Y-69783646D01*
X109661646Y-69658147D01*
X109809216Y-69559544D01*
X109973188Y-69491624D01*
X110122488Y-69461927D01*
X110147258Y-69457000D01*
X110324742Y-69457000D01*
X110349512Y-69461927D01*
G37*
G36*
X112889512Y-69461927D02*
G01*
X113038812Y-69491624D01*
X113202784Y-69559544D01*
X113350354Y-69658147D01*
X113475853Y-69783646D01*
X113574456Y-69931216D01*
X113642376Y-70095188D01*
X113677000Y-70269259D01*
X113677000Y-70446741D01*
X113642376Y-70620812D01*
X113574456Y-70784784D01*
X113475853Y-70932354D01*
X113350354Y-71057853D01*
X113202784Y-71156456D01*
X113038812Y-71224376D01*
X112889512Y-71254073D01*
X112864742Y-71259000D01*
X112687258Y-71259000D01*
X112662488Y-71254073D01*
X112513188Y-71224376D01*
X112349216Y-71156456D01*
X112201646Y-71057853D01*
X112076147Y-70932354D01*
X111977544Y-70784784D01*
X111909624Y-70620812D01*
X111875000Y-70446741D01*
X111875000Y-70269259D01*
X111909624Y-70095188D01*
X111977544Y-69931216D01*
X112076147Y-69783646D01*
X112201646Y-69658147D01*
X112349216Y-69559544D01*
X112513188Y-69491624D01*
X112662488Y-69461927D01*
X112687258Y-69457000D01*
X112864742Y-69457000D01*
X112889512Y-69461927D01*
G37*
G36*
X112889512Y-66921927D02*
G01*
X113038812Y-66951624D01*
X113202784Y-67019544D01*
X113350354Y-67118147D01*
X113475853Y-67243646D01*
X113574456Y-67391216D01*
X113642376Y-67555188D01*
X113677000Y-67729259D01*
X113677000Y-67906741D01*
X113642376Y-68080812D01*
X113574456Y-68244784D01*
X113475853Y-68392354D01*
X113350354Y-68517853D01*
X113202784Y-68616456D01*
X113038812Y-68684376D01*
X112889512Y-68714073D01*
X112864742Y-68719000D01*
X112687258Y-68719000D01*
X112662488Y-68714073D01*
X112513188Y-68684376D01*
X112349216Y-68616456D01*
X112201646Y-68517853D01*
X112076147Y-68392354D01*
X111977544Y-68244784D01*
X111909624Y-68080812D01*
X111875000Y-67906741D01*
X111875000Y-67729259D01*
X111909624Y-67555188D01*
X111977544Y-67391216D01*
X112076147Y-67243646D01*
X112201646Y-67118147D01*
X112349216Y-67019544D01*
X112513188Y-66951624D01*
X112662488Y-66921927D01*
X112687258Y-66917000D01*
X112864742Y-66917000D01*
X112889512Y-66921927D01*
G37*
G36*
X110349512Y-66921927D02*
G01*
X110498812Y-66951624D01*
X110662784Y-67019544D01*
X110810354Y-67118147D01*
X110935853Y-67243646D01*
X111034456Y-67391216D01*
X111102376Y-67555188D01*
X111137000Y-67729259D01*
X111137000Y-67906741D01*
X111102376Y-68080812D01*
X111034456Y-68244784D01*
X110935853Y-68392354D01*
X110810354Y-68517853D01*
X110662784Y-68616456D01*
X110498812Y-68684376D01*
X110349512Y-68714073D01*
X110324742Y-68719000D01*
X110147258Y-68719000D01*
X110122488Y-68714073D01*
X109973188Y-68684376D01*
X109809216Y-68616456D01*
X109661646Y-68517853D01*
X109536147Y-68392354D01*
X109437544Y-68244784D01*
X109369624Y-68080812D01*
X109335000Y-67906741D01*
X109335000Y-67729259D01*
X109369624Y-67555188D01*
X109437544Y-67391216D01*
X109536147Y-67243646D01*
X109661646Y-67118147D01*
X109809216Y-67019544D01*
X109973188Y-66951624D01*
X110122488Y-66921927D01*
X110147258Y-66917000D01*
X110324742Y-66917000D01*
X110349512Y-66921927D01*
G37*
G36*
X145200822Y-64293313D02*
G01*
X145361241Y-64341976D01*
X145509077Y-64420995D01*
X145638659Y-64527341D01*
X145745004Y-64656922D01*
X145745005Y-64656924D01*
X145824024Y-64804758D01*
X145872687Y-64965177D01*
X145885000Y-65090196D01*
X145885000Y-65973803D01*
X145872687Y-66098822D01*
X145824024Y-66259242D01*
X145785959Y-66330456D01*
X145745004Y-66407078D01*
X145638659Y-66536659D01*
X145509078Y-66643004D01*
X145509076Y-66643005D01*
X145361242Y-66722024D01*
X145200823Y-66770687D01*
X145034000Y-66787117D01*
X144867178Y-66770687D01*
X144706759Y-66722024D01*
X144558925Y-66643005D01*
X144558923Y-66643004D01*
X144429342Y-66536659D01*
X144322997Y-66407078D01*
X144282042Y-66330456D01*
X144243977Y-66259242D01*
X144195314Y-66098823D01*
X144183000Y-65973803D01*
X144183000Y-65090197D01*
X144195313Y-64965178D01*
X144243976Y-64804759D01*
X144322995Y-64656923D01*
X144429341Y-64527341D01*
X144558922Y-64420996D01*
X144641233Y-64377000D01*
X144706758Y-64341976D01*
X144867177Y-64293313D01*
X145034000Y-64276883D01*
X145200822Y-64293313D01*
G37*
G36*
X142660822Y-64293313D02*
G01*
X142821241Y-64341976D01*
X142969077Y-64420995D01*
X143098659Y-64527341D01*
X143205004Y-64656922D01*
X143205005Y-64656924D01*
X143284024Y-64804758D01*
X143332687Y-64965177D01*
X143345000Y-65090196D01*
X143345000Y-65973803D01*
X143332687Y-66098822D01*
X143284024Y-66259242D01*
X143245959Y-66330456D01*
X143205004Y-66407078D01*
X143098659Y-66536659D01*
X142969078Y-66643004D01*
X142969076Y-66643005D01*
X142821242Y-66722024D01*
X142660823Y-66770687D01*
X142494000Y-66787117D01*
X142327178Y-66770687D01*
X142166759Y-66722024D01*
X142018925Y-66643005D01*
X142018923Y-66643004D01*
X141889342Y-66536659D01*
X141782997Y-66407078D01*
X141742042Y-66330456D01*
X141703977Y-66259242D01*
X141655314Y-66098823D01*
X141643000Y-65973803D01*
X141643000Y-65090197D01*
X141655313Y-64965178D01*
X141703976Y-64804759D01*
X141782995Y-64656923D01*
X141889341Y-64527341D01*
X142018922Y-64420996D01*
X142101233Y-64377000D01*
X142166758Y-64341976D01*
X142327177Y-64293313D01*
X142494000Y-64276883D01*
X142660822Y-64293313D01*
G37*
G36*
X147740822Y-64293313D02*
G01*
X147901241Y-64341976D01*
X148049077Y-64420995D01*
X148178659Y-64527341D01*
X148285004Y-64656922D01*
X148285005Y-64656924D01*
X148364024Y-64804758D01*
X148412687Y-64965177D01*
X148425000Y-65090196D01*
X148425000Y-65973803D01*
X148412687Y-66098822D01*
X148364024Y-66259242D01*
X148325959Y-66330456D01*
X148285004Y-66407078D01*
X148178659Y-66536659D01*
X148049078Y-66643004D01*
X148049076Y-66643005D01*
X147901242Y-66722024D01*
X147740823Y-66770687D01*
X147574000Y-66787117D01*
X147407178Y-66770687D01*
X147246759Y-66722024D01*
X147098925Y-66643005D01*
X147098923Y-66643004D01*
X146969342Y-66536659D01*
X146862997Y-66407078D01*
X146822042Y-66330456D01*
X146783977Y-66259242D01*
X146735314Y-66098823D01*
X146723000Y-65973803D01*
X146723000Y-65090197D01*
X146735313Y-64965178D01*
X146783976Y-64804759D01*
X146862995Y-64656923D01*
X146969341Y-64527341D01*
X147098922Y-64420996D01*
X147181233Y-64377000D01*
X147246758Y-64341976D01*
X147407177Y-64293313D01*
X147574000Y-64276883D01*
X147740822Y-64293313D01*
G37*
G36*
X140120822Y-64293313D02*
G01*
X140281241Y-64341976D01*
X140429077Y-64420995D01*
X140558659Y-64527341D01*
X140665004Y-64656922D01*
X140665005Y-64656924D01*
X140744024Y-64804758D01*
X140792687Y-64965177D01*
X140805000Y-65090196D01*
X140805000Y-65973803D01*
X140792687Y-66098822D01*
X140744024Y-66259242D01*
X140705959Y-66330456D01*
X140665004Y-66407078D01*
X140558659Y-66536659D01*
X140429078Y-66643004D01*
X140429076Y-66643005D01*
X140281242Y-66722024D01*
X140120823Y-66770687D01*
X139954000Y-66787117D01*
X139787178Y-66770687D01*
X139626759Y-66722024D01*
X139478925Y-66643005D01*
X139478923Y-66643004D01*
X139349342Y-66536659D01*
X139242997Y-66407078D01*
X139202042Y-66330456D01*
X139163977Y-66259242D01*
X139115314Y-66098823D01*
X139103000Y-65973803D01*
X139103000Y-65090197D01*
X139115313Y-64965178D01*
X139163976Y-64804759D01*
X139242995Y-64656923D01*
X139349341Y-64527341D01*
X139478922Y-64420996D01*
X139561233Y-64377000D01*
X139626758Y-64341976D01*
X139787177Y-64293313D01*
X139954000Y-64276883D01*
X140120822Y-64293313D01*
G37*
G36*
X150280822Y-64293313D02*
G01*
X150441241Y-64341976D01*
X150589077Y-64420995D01*
X150718659Y-64527341D01*
X150825004Y-64656922D01*
X150825005Y-64656924D01*
X150904024Y-64804758D01*
X150952687Y-64965177D01*
X150965000Y-65090196D01*
X150965000Y-65973803D01*
X150952687Y-66098822D01*
X150904024Y-66259242D01*
X150865959Y-66330456D01*
X150825004Y-66407078D01*
X150718659Y-66536659D01*
X150589078Y-66643004D01*
X150589076Y-66643005D01*
X150441242Y-66722024D01*
X150280823Y-66770687D01*
X150114000Y-66787117D01*
X149947178Y-66770687D01*
X149786759Y-66722024D01*
X149638925Y-66643005D01*
X149638923Y-66643004D01*
X149509342Y-66536659D01*
X149402997Y-66407078D01*
X149362042Y-66330456D01*
X149323977Y-66259242D01*
X149275314Y-66098823D01*
X149263000Y-65973803D01*
X149263000Y-65090197D01*
X149275313Y-64965178D01*
X149323976Y-64804759D01*
X149402995Y-64656923D01*
X149509341Y-64527341D01*
X149638922Y-64420996D01*
X149721233Y-64377000D01*
X149786758Y-64341976D01*
X149947177Y-64293313D01*
X150114000Y-64276883D01*
X150280822Y-64293313D01*
G37*
G36*
X137580822Y-64293313D02*
G01*
X137741241Y-64341976D01*
X137889077Y-64420995D01*
X138018659Y-64527341D01*
X138125004Y-64656922D01*
X138125005Y-64656924D01*
X138204024Y-64804758D01*
X138252687Y-64965177D01*
X138265000Y-65090196D01*
X138265000Y-65973803D01*
X138252687Y-66098822D01*
X138204024Y-66259242D01*
X138165959Y-66330456D01*
X138125004Y-66407078D01*
X138018659Y-66536659D01*
X137889078Y-66643004D01*
X137889076Y-66643005D01*
X137741242Y-66722024D01*
X137580823Y-66770687D01*
X137414000Y-66787117D01*
X137247178Y-66770687D01*
X137086759Y-66722024D01*
X136938925Y-66643005D01*
X136938923Y-66643004D01*
X136809342Y-66536659D01*
X136702997Y-66407078D01*
X136662042Y-66330456D01*
X136623977Y-66259242D01*
X136575314Y-66098823D01*
X136563000Y-65973803D01*
X136563000Y-65090197D01*
X136575313Y-64965178D01*
X136623976Y-64804759D01*
X136702995Y-64656923D01*
X136809341Y-64527341D01*
X136938922Y-64420996D01*
X137021233Y-64377000D01*
X137086758Y-64341976D01*
X137247177Y-64293313D01*
X137414000Y-64276883D01*
X137580822Y-64293313D01*
G37*
G36*
X117260822Y-64293313D02*
G01*
X117421241Y-64341976D01*
X117569077Y-64420995D01*
X117698659Y-64527341D01*
X117805004Y-64656922D01*
X117805005Y-64656924D01*
X117884024Y-64804758D01*
X117932687Y-64965177D01*
X117945000Y-65090196D01*
X117945000Y-65973803D01*
X117932687Y-66098822D01*
X117884024Y-66259242D01*
X117845959Y-66330456D01*
X117805004Y-66407078D01*
X117698659Y-66536659D01*
X117569078Y-66643004D01*
X117569076Y-66643005D01*
X117421242Y-66722024D01*
X117260823Y-66770687D01*
X117094000Y-66787117D01*
X116927178Y-66770687D01*
X116766759Y-66722024D01*
X116618925Y-66643005D01*
X116618923Y-66643004D01*
X116489342Y-66536659D01*
X116382997Y-66407078D01*
X116342042Y-66330456D01*
X116303977Y-66259242D01*
X116255314Y-66098823D01*
X116243000Y-65973803D01*
X116243000Y-65090197D01*
X116255313Y-64965178D01*
X116303976Y-64804759D01*
X116382995Y-64656923D01*
X116489341Y-64527341D01*
X116618922Y-64420996D01*
X116701233Y-64377000D01*
X116766758Y-64341976D01*
X116927177Y-64293313D01*
X117094000Y-64276883D01*
X117260822Y-64293313D01*
G37*
G36*
X119800822Y-64293313D02*
G01*
X119961241Y-64341976D01*
X120109077Y-64420995D01*
X120238659Y-64527341D01*
X120345004Y-64656922D01*
X120345005Y-64656924D01*
X120424024Y-64804758D01*
X120472687Y-64965177D01*
X120485000Y-65090196D01*
X120485000Y-65973803D01*
X120472687Y-66098822D01*
X120424024Y-66259242D01*
X120385959Y-66330456D01*
X120345004Y-66407078D01*
X120238659Y-66536659D01*
X120109078Y-66643004D01*
X120109076Y-66643005D01*
X119961242Y-66722024D01*
X119800823Y-66770687D01*
X119634000Y-66787117D01*
X119467178Y-66770687D01*
X119306759Y-66722024D01*
X119158925Y-66643005D01*
X119158923Y-66643004D01*
X119029342Y-66536659D01*
X118922997Y-66407078D01*
X118882042Y-66330456D01*
X118843977Y-66259242D01*
X118795314Y-66098823D01*
X118783000Y-65973803D01*
X118783000Y-65090197D01*
X118795313Y-64965178D01*
X118843976Y-64804759D01*
X118922995Y-64656923D01*
X119029341Y-64527341D01*
X119158922Y-64420996D01*
X119241233Y-64377000D01*
X119306758Y-64341976D01*
X119467177Y-64293313D01*
X119634000Y-64276883D01*
X119800822Y-64293313D01*
G37*
G36*
X155360822Y-64293313D02*
G01*
X155521241Y-64341976D01*
X155669077Y-64420995D01*
X155798659Y-64527341D01*
X155905004Y-64656922D01*
X155905005Y-64656924D01*
X155984024Y-64804758D01*
X156032687Y-64965177D01*
X156045000Y-65090196D01*
X156045000Y-65973803D01*
X156032687Y-66098822D01*
X155984024Y-66259242D01*
X155945959Y-66330456D01*
X155905004Y-66407078D01*
X155798659Y-66536659D01*
X155669078Y-66643004D01*
X155669076Y-66643005D01*
X155521242Y-66722024D01*
X155360823Y-66770687D01*
X155194000Y-66787117D01*
X155027178Y-66770687D01*
X154866759Y-66722024D01*
X154718925Y-66643005D01*
X154718923Y-66643004D01*
X154589342Y-66536659D01*
X154482997Y-66407078D01*
X154442042Y-66330456D01*
X154403977Y-66259242D01*
X154355314Y-66098823D01*
X154343000Y-65973803D01*
X154343000Y-65090197D01*
X154355313Y-64965178D01*
X154403976Y-64804759D01*
X154482995Y-64656923D01*
X154589341Y-64527341D01*
X154718922Y-64420996D01*
X154801233Y-64377000D01*
X154866758Y-64341976D01*
X155027177Y-64293313D01*
X155194000Y-64276883D01*
X155360822Y-64293313D01*
G37*
G36*
X135040822Y-64293313D02*
G01*
X135201241Y-64341976D01*
X135349077Y-64420995D01*
X135478659Y-64527341D01*
X135585004Y-64656922D01*
X135585005Y-64656924D01*
X135664024Y-64804758D01*
X135712687Y-64965177D01*
X135725000Y-65090196D01*
X135725000Y-65973803D01*
X135712687Y-66098822D01*
X135664024Y-66259242D01*
X135625959Y-66330456D01*
X135585004Y-66407078D01*
X135478659Y-66536659D01*
X135349078Y-66643004D01*
X135349076Y-66643005D01*
X135201242Y-66722024D01*
X135040823Y-66770687D01*
X134874000Y-66787117D01*
X134707178Y-66770687D01*
X134546759Y-66722024D01*
X134398925Y-66643005D01*
X134398923Y-66643004D01*
X134269342Y-66536659D01*
X134162997Y-66407078D01*
X134122042Y-66330456D01*
X134083977Y-66259242D01*
X134035314Y-66098823D01*
X134023000Y-65973803D01*
X134023000Y-65090197D01*
X134035313Y-64965178D01*
X134083976Y-64804759D01*
X134162995Y-64656923D01*
X134269341Y-64527341D01*
X134398922Y-64420996D01*
X134481233Y-64377000D01*
X134546758Y-64341976D01*
X134707177Y-64293313D01*
X134874000Y-64276883D01*
X135040822Y-64293313D01*
G37*
G36*
X132500822Y-64293313D02*
G01*
X132661241Y-64341976D01*
X132809077Y-64420995D01*
X132938659Y-64527341D01*
X133045004Y-64656922D01*
X133045005Y-64656924D01*
X133124024Y-64804758D01*
X133172687Y-64965177D01*
X133185000Y-65090196D01*
X133185000Y-65973803D01*
X133172687Y-66098822D01*
X133124024Y-66259242D01*
X133085959Y-66330456D01*
X133045004Y-66407078D01*
X132938659Y-66536659D01*
X132809078Y-66643004D01*
X132809076Y-66643005D01*
X132661242Y-66722024D01*
X132500823Y-66770687D01*
X132334000Y-66787117D01*
X132167178Y-66770687D01*
X132006759Y-66722024D01*
X131858925Y-66643005D01*
X131858923Y-66643004D01*
X131729342Y-66536659D01*
X131622997Y-66407078D01*
X131582042Y-66330456D01*
X131543977Y-66259242D01*
X131495314Y-66098823D01*
X131483000Y-65973803D01*
X131483000Y-65090197D01*
X131495313Y-64965178D01*
X131543976Y-64804759D01*
X131622995Y-64656923D01*
X131729341Y-64527341D01*
X131858922Y-64420996D01*
X131941233Y-64377000D01*
X132006758Y-64341976D01*
X132167177Y-64293313D01*
X132334000Y-64276883D01*
X132500822Y-64293313D01*
G37*
G36*
X129960822Y-64293313D02*
G01*
X130121241Y-64341976D01*
X130269077Y-64420995D01*
X130398659Y-64527341D01*
X130505004Y-64656922D01*
X130505005Y-64656924D01*
X130584024Y-64804758D01*
X130632687Y-64965177D01*
X130645000Y-65090196D01*
X130645000Y-65973803D01*
X130632687Y-66098822D01*
X130584024Y-66259242D01*
X130545959Y-66330456D01*
X130505004Y-66407078D01*
X130398659Y-66536659D01*
X130269078Y-66643004D01*
X130269076Y-66643005D01*
X130121242Y-66722024D01*
X129960823Y-66770687D01*
X129794000Y-66787117D01*
X129627178Y-66770687D01*
X129466759Y-66722024D01*
X129318925Y-66643005D01*
X129318923Y-66643004D01*
X129189342Y-66536659D01*
X129082997Y-66407078D01*
X129042042Y-66330456D01*
X129003977Y-66259242D01*
X128955314Y-66098823D01*
X128943000Y-65973803D01*
X128943000Y-65090197D01*
X128955313Y-64965178D01*
X129003976Y-64804759D01*
X129082995Y-64656923D01*
X129189341Y-64527341D01*
X129318922Y-64420996D01*
X129401233Y-64377000D01*
X129466758Y-64341976D01*
X129627177Y-64293313D01*
X129794000Y-64276883D01*
X129960822Y-64293313D01*
G37*
G36*
X127420822Y-64293313D02*
G01*
X127581241Y-64341976D01*
X127729077Y-64420995D01*
X127858659Y-64527341D01*
X127965004Y-64656922D01*
X127965005Y-64656924D01*
X128044024Y-64804758D01*
X128092687Y-64965177D01*
X128105000Y-65090196D01*
X128105000Y-65973803D01*
X128092687Y-66098822D01*
X128044024Y-66259242D01*
X128005959Y-66330456D01*
X127965004Y-66407078D01*
X127858659Y-66536659D01*
X127729078Y-66643004D01*
X127729076Y-66643005D01*
X127581242Y-66722024D01*
X127420823Y-66770687D01*
X127254000Y-66787117D01*
X127087178Y-66770687D01*
X126926759Y-66722024D01*
X126778925Y-66643005D01*
X126778923Y-66643004D01*
X126649342Y-66536659D01*
X126542997Y-66407078D01*
X126502042Y-66330456D01*
X126463977Y-66259242D01*
X126415314Y-66098823D01*
X126403000Y-65973803D01*
X126403000Y-65090197D01*
X126415313Y-64965178D01*
X126463976Y-64804759D01*
X126542995Y-64656923D01*
X126649341Y-64527341D01*
X126778922Y-64420996D01*
X126861233Y-64377000D01*
X126926758Y-64341976D01*
X127087177Y-64293313D01*
X127254000Y-64276883D01*
X127420822Y-64293313D01*
G37*
G36*
X124880822Y-64293313D02*
G01*
X125041241Y-64341976D01*
X125189077Y-64420995D01*
X125318659Y-64527341D01*
X125425004Y-64656922D01*
X125425005Y-64656924D01*
X125504024Y-64804758D01*
X125552687Y-64965177D01*
X125565000Y-65090196D01*
X125565000Y-65973803D01*
X125552687Y-66098822D01*
X125504024Y-66259242D01*
X125465959Y-66330456D01*
X125425004Y-66407078D01*
X125318659Y-66536659D01*
X125189078Y-66643004D01*
X125189076Y-66643005D01*
X125041242Y-66722024D01*
X124880823Y-66770687D01*
X124714000Y-66787117D01*
X124547178Y-66770687D01*
X124386759Y-66722024D01*
X124238925Y-66643005D01*
X124238923Y-66643004D01*
X124109342Y-66536659D01*
X124002997Y-66407078D01*
X123962042Y-66330456D01*
X123923977Y-66259242D01*
X123875314Y-66098823D01*
X123863000Y-65973803D01*
X123863000Y-65090197D01*
X123875313Y-64965178D01*
X123923976Y-64804759D01*
X124002995Y-64656923D01*
X124109341Y-64527341D01*
X124238922Y-64420996D01*
X124321233Y-64377000D01*
X124386758Y-64341976D01*
X124547177Y-64293313D01*
X124714000Y-64276883D01*
X124880822Y-64293313D01*
G37*
G36*
X152820822Y-64293313D02*
G01*
X152981241Y-64341976D01*
X153129077Y-64420995D01*
X153258659Y-64527341D01*
X153365004Y-64656922D01*
X153365005Y-64656924D01*
X153444024Y-64804758D01*
X153492687Y-64965177D01*
X153505000Y-65090196D01*
X153505000Y-65973803D01*
X153492687Y-66098822D01*
X153444024Y-66259242D01*
X153405959Y-66330456D01*
X153365004Y-66407078D01*
X153258659Y-66536659D01*
X153129078Y-66643004D01*
X153129076Y-66643005D01*
X152981242Y-66722024D01*
X152820823Y-66770687D01*
X152654000Y-66787117D01*
X152487178Y-66770687D01*
X152326759Y-66722024D01*
X152178925Y-66643005D01*
X152178923Y-66643004D01*
X152049342Y-66536659D01*
X151942997Y-66407078D01*
X151902042Y-66330456D01*
X151863977Y-66259242D01*
X151815314Y-66098823D01*
X151803000Y-65973803D01*
X151803000Y-65090197D01*
X151815313Y-64965178D01*
X151863976Y-64804759D01*
X151942995Y-64656923D01*
X152049341Y-64527341D01*
X152178922Y-64420996D01*
X152261233Y-64377000D01*
X152326758Y-64341976D01*
X152487177Y-64293313D01*
X152654000Y-64276883D01*
X152820822Y-64293313D01*
G37*
G36*
X122340822Y-64293313D02*
G01*
X122501241Y-64341976D01*
X122649077Y-64420995D01*
X122778659Y-64527341D01*
X122885004Y-64656922D01*
X122885005Y-64656924D01*
X122964024Y-64804758D01*
X123012687Y-64965177D01*
X123025000Y-65090196D01*
X123025000Y-65973803D01*
X123012687Y-66098822D01*
X122964024Y-66259242D01*
X122925959Y-66330456D01*
X122885004Y-66407078D01*
X122778659Y-66536659D01*
X122649078Y-66643004D01*
X122649076Y-66643005D01*
X122501242Y-66722024D01*
X122340823Y-66770687D01*
X122174000Y-66787117D01*
X122007178Y-66770687D01*
X121846759Y-66722024D01*
X121698925Y-66643005D01*
X121698923Y-66643004D01*
X121569342Y-66536659D01*
X121462997Y-66407078D01*
X121422042Y-66330456D01*
X121383977Y-66259242D01*
X121335314Y-66098823D01*
X121323000Y-65973803D01*
X121323000Y-65090197D01*
X121335313Y-64965178D01*
X121383976Y-64804759D01*
X121462995Y-64656923D01*
X121569341Y-64527341D01*
X121698922Y-64420996D01*
X121781233Y-64377000D01*
X121846758Y-64341976D01*
X122007177Y-64293313D01*
X122174000Y-64276883D01*
X122340822Y-64293313D01*
G37*
G36*
X163689512Y-64635927D02*
G01*
X163838812Y-64665624D01*
X164002784Y-64733544D01*
X164150354Y-64832147D01*
X164275853Y-64957646D01*
X164374456Y-65105216D01*
X164442376Y-65269188D01*
X164477000Y-65443259D01*
X164477000Y-65620741D01*
X164442376Y-65794812D01*
X164374456Y-65958784D01*
X164275853Y-66106354D01*
X164150354Y-66231853D01*
X164002784Y-66330456D01*
X163838812Y-66398376D01*
X163689512Y-66428073D01*
X163664742Y-66433000D01*
X163487258Y-66433000D01*
X163462488Y-66428073D01*
X163313188Y-66398376D01*
X163149216Y-66330456D01*
X163001646Y-66231853D01*
X162876147Y-66106354D01*
X162777544Y-65958784D01*
X162709624Y-65794812D01*
X162675000Y-65620741D01*
X162675000Y-65443259D01*
X162709624Y-65269188D01*
X162777544Y-65105216D01*
X162876147Y-64957646D01*
X163001646Y-64832147D01*
X163149216Y-64733544D01*
X163313188Y-64665624D01*
X163462488Y-64635927D01*
X163487258Y-64631000D01*
X163664742Y-64631000D01*
X163689512Y-64635927D01*
G37*
G36*
X161149512Y-64635927D02*
G01*
X161298812Y-64665624D01*
X161462784Y-64733544D01*
X161610354Y-64832147D01*
X161735853Y-64957646D01*
X161834456Y-65105216D01*
X161902376Y-65269188D01*
X161937000Y-65443259D01*
X161937000Y-65620741D01*
X161902376Y-65794812D01*
X161834456Y-65958784D01*
X161735853Y-66106354D01*
X161610354Y-66231853D01*
X161462784Y-66330456D01*
X161298812Y-66398376D01*
X161149512Y-66428073D01*
X161124742Y-66433000D01*
X160947258Y-66433000D01*
X160922488Y-66428073D01*
X160773188Y-66398376D01*
X160609216Y-66330456D01*
X160461646Y-66231853D01*
X160336147Y-66106354D01*
X160237544Y-65958784D01*
X160169624Y-65794812D01*
X160135000Y-65620741D01*
X160135000Y-65443259D01*
X160169624Y-65269188D01*
X160237544Y-65105216D01*
X160336147Y-64957646D01*
X160461646Y-64832147D01*
X160609216Y-64733544D01*
X160773188Y-64665624D01*
X160922488Y-64635927D01*
X160947258Y-64631000D01*
X161124742Y-64631000D01*
X161149512Y-64635927D01*
G37*
G36*
X159397000Y-66433000D02*
G01*
X157595000Y-66433000D01*
X157595000Y-64631000D01*
X159397000Y-64631000D01*
X159397000Y-66433000D01*
G37*
G36*
X112889512Y-64381927D02*
G01*
X113038812Y-64411624D01*
X113202784Y-64479544D01*
X113350354Y-64578147D01*
X113475853Y-64703646D01*
X113574456Y-64851216D01*
X113642376Y-65015188D01*
X113677000Y-65189259D01*
X113677000Y-65366741D01*
X113642376Y-65540812D01*
X113574456Y-65704784D01*
X113475853Y-65852354D01*
X113350354Y-65977853D01*
X113202784Y-66076456D01*
X113038812Y-66144376D01*
X112889512Y-66174073D01*
X112864742Y-66179000D01*
X112687258Y-66179000D01*
X112662488Y-66174073D01*
X112513188Y-66144376D01*
X112349216Y-66076456D01*
X112201646Y-65977853D01*
X112076147Y-65852354D01*
X111977544Y-65704784D01*
X111909624Y-65540812D01*
X111875000Y-65366741D01*
X111875000Y-65189259D01*
X111909624Y-65015188D01*
X111977544Y-64851216D01*
X112076147Y-64703646D01*
X112201646Y-64578147D01*
X112349216Y-64479544D01*
X112513188Y-64411624D01*
X112662488Y-64381927D01*
X112687258Y-64377000D01*
X112864742Y-64377000D01*
X112889512Y-64381927D01*
G37*
G36*
X111137000Y-66179000D02*
G01*
X109335000Y-66179000D01*
X109335000Y-64377000D01*
X111137000Y-64377000D01*
X111137000Y-66179000D01*
G37*
M02*
