G04 #@! TF.GenerationSoftware,KiCad,Pcbnew,(5.1.5-0-10_14)*
G04 #@! TF.CreationDate,2021-06-10T22:19:53-06:00*
G04 #@! TF.ProjectId,tc531000-tl866-adapter,74633533-3130-4303-902d-746c3836362d,rev?*
G04 #@! TF.SameCoordinates,Original*
G04 #@! TF.FileFunction,Legend,Top*
G04 #@! TF.FilePolarity,Positive*
%FSLAX46Y46*%
G04 Gerber Fmt 4.6, Leading zero omitted, Abs format (unit mm)*
G04 Created by KiCad (PCBNEW (5.1.5-0-10_14)) date 2021-06-10 22:19:53*
%MOMM*%
%LPD*%
G04 APERTURE LIST*
%ADD10C,0.150000*%
%ADD11C,0.120000*%
%ADD12C,0.010000*%
G04 APERTURE END LIST*
D10*
X136226348Y-62444380D02*
X136797776Y-62444380D01*
X136387062Y-63444380D02*
X136512062Y-62444380D01*
X137589443Y-63349142D02*
X137535872Y-63396761D01*
X137387062Y-63444380D01*
X137291824Y-63444380D01*
X137154919Y-63396761D01*
X137071586Y-63301523D01*
X137035872Y-63206285D01*
X137012062Y-63015809D01*
X137029919Y-62872952D01*
X137101348Y-62682476D01*
X137160872Y-62587238D01*
X137268014Y-62492000D01*
X137416824Y-62444380D01*
X137512062Y-62444380D01*
X137648967Y-62492000D01*
X137690633Y-62539619D01*
X137964443Y-63396761D02*
X138101348Y-63444380D01*
X138339443Y-63444380D01*
X138440633Y-63396761D01*
X138494205Y-63349142D01*
X138553729Y-63253904D01*
X138565633Y-63158666D01*
X138529919Y-63063428D01*
X138488252Y-63015809D01*
X138398967Y-62968190D01*
X138214443Y-62920571D01*
X138125157Y-62872952D01*
X138083491Y-62825333D01*
X138047776Y-62730095D01*
X138059681Y-62634857D01*
X138119205Y-62539619D01*
X138172776Y-62492000D01*
X138273967Y-62444380D01*
X138512062Y-62444380D01*
X138648967Y-62492000D01*
X139559681Y-62444380D02*
X139083491Y-62444380D01*
X138976348Y-62920571D01*
X139029919Y-62872952D01*
X139131110Y-62825333D01*
X139369205Y-62825333D01*
X139458491Y-62872952D01*
X139500157Y-62920571D01*
X139535872Y-63015809D01*
X139506110Y-63253904D01*
X139446586Y-63349142D01*
X139393014Y-63396761D01*
X139291824Y-63444380D01*
X139053729Y-63444380D01*
X138964443Y-63396761D01*
X138922776Y-63349142D01*
X139940633Y-62444380D02*
X140559681Y-62444380D01*
X140178729Y-62825333D01*
X140321586Y-62825333D01*
X140410872Y-62872952D01*
X140452538Y-62920571D01*
X140488252Y-63015809D01*
X140458491Y-63253904D01*
X140398967Y-63349142D01*
X140345395Y-63396761D01*
X140244205Y-63444380D01*
X139958491Y-63444380D01*
X139869205Y-63396761D01*
X139827538Y-63349142D01*
X141387062Y-63444380D02*
X140815633Y-63444380D01*
X141101348Y-63444380D02*
X141226348Y-62444380D01*
X141113252Y-62587238D01*
X141006110Y-62682476D01*
X140904919Y-62730095D01*
X142131110Y-62444380D02*
X142226348Y-62444380D01*
X142315633Y-62492000D01*
X142357300Y-62539619D01*
X142393014Y-62634857D01*
X142416824Y-62825333D01*
X142387062Y-63063428D01*
X142315633Y-63253904D01*
X142256110Y-63349142D01*
X142202538Y-63396761D01*
X142101348Y-63444380D01*
X142006110Y-63444380D01*
X141916824Y-63396761D01*
X141875157Y-63349142D01*
X141839443Y-63253904D01*
X141815633Y-63063428D01*
X141845395Y-62825333D01*
X141916824Y-62634857D01*
X141976348Y-62539619D01*
X142029919Y-62492000D01*
X142131110Y-62444380D01*
X143083491Y-62444380D02*
X143178729Y-62444380D01*
X143268014Y-62492000D01*
X143309681Y-62539619D01*
X143345395Y-62634857D01*
X143369205Y-62825333D01*
X143339443Y-63063428D01*
X143268014Y-63253904D01*
X143208491Y-63349142D01*
X143154919Y-63396761D01*
X143053729Y-63444380D01*
X142958491Y-63444380D01*
X142869205Y-63396761D01*
X142827538Y-63349142D01*
X142791824Y-63253904D01*
X142768014Y-63063428D01*
X142797776Y-62825333D01*
X142869205Y-62634857D01*
X142928729Y-62539619D01*
X142982300Y-62492000D01*
X143083491Y-62444380D01*
X144035872Y-62444380D02*
X144131110Y-62444380D01*
X144220395Y-62492000D01*
X144262062Y-62539619D01*
X144297776Y-62634857D01*
X144321586Y-62825333D01*
X144291824Y-63063428D01*
X144220395Y-63253904D01*
X144160872Y-63349142D01*
X144107300Y-63396761D01*
X144006110Y-63444380D01*
X143910872Y-63444380D01*
X143821586Y-63396761D01*
X143779919Y-63349142D01*
X143744205Y-63253904D01*
X143720395Y-63063428D01*
X143750157Y-62825333D01*
X143821586Y-62634857D01*
X143881110Y-62539619D01*
X143934681Y-62492000D01*
X144035872Y-62444380D01*
X145416824Y-62444380D02*
X145988252Y-62444380D01*
X145577538Y-63444380D02*
X145702538Y-62444380D01*
X146672776Y-63444380D02*
X146196586Y-63444380D01*
X146321586Y-62444380D01*
X147220395Y-62872952D02*
X147131110Y-62825333D01*
X147089443Y-62777714D01*
X147053729Y-62682476D01*
X147059681Y-62634857D01*
X147119205Y-62539619D01*
X147172776Y-62492000D01*
X147273967Y-62444380D01*
X147464443Y-62444380D01*
X147553729Y-62492000D01*
X147595395Y-62539619D01*
X147631110Y-62634857D01*
X147625157Y-62682476D01*
X147565633Y-62777714D01*
X147512062Y-62825333D01*
X147410872Y-62872952D01*
X147220395Y-62872952D01*
X147119205Y-62920571D01*
X147065633Y-62968190D01*
X147006110Y-63063428D01*
X146982300Y-63253904D01*
X147018014Y-63349142D01*
X147059681Y-63396761D01*
X147148967Y-63444380D01*
X147339443Y-63444380D01*
X147440633Y-63396761D01*
X147494205Y-63349142D01*
X147553729Y-63253904D01*
X147577538Y-63063428D01*
X147541824Y-62968190D01*
X147500157Y-62920571D01*
X147410872Y-62872952D01*
X148512062Y-62444380D02*
X148321586Y-62444380D01*
X148220395Y-62492000D01*
X148166824Y-62539619D01*
X148053729Y-62682476D01*
X147982300Y-62872952D01*
X147934681Y-63253904D01*
X147970395Y-63349142D01*
X148012062Y-63396761D01*
X148101348Y-63444380D01*
X148291824Y-63444380D01*
X148393014Y-63396761D01*
X148446586Y-63349142D01*
X148506110Y-63253904D01*
X148535872Y-63015809D01*
X148500157Y-62920571D01*
X148458491Y-62872952D01*
X148369205Y-62825333D01*
X148178729Y-62825333D01*
X148077538Y-62872952D01*
X148023967Y-62920571D01*
X147964443Y-63015809D01*
X149464443Y-62444380D02*
X149273967Y-62444380D01*
X149172776Y-62492000D01*
X149119205Y-62539619D01*
X149006110Y-62682476D01*
X148934681Y-62872952D01*
X148887062Y-63253904D01*
X148922776Y-63349142D01*
X148964443Y-63396761D01*
X149053729Y-63444380D01*
X149244205Y-63444380D01*
X149345395Y-63396761D01*
X149398967Y-63349142D01*
X149458491Y-63253904D01*
X149488252Y-63015809D01*
X149452538Y-62920571D01*
X149410872Y-62872952D01*
X149321586Y-62825333D01*
X149131110Y-62825333D01*
X149029919Y-62872952D01*
X148976348Y-62920571D01*
X148916824Y-63015809D01*
X151053729Y-63444380D02*
X151119205Y-62920571D01*
X151083491Y-62825333D01*
X150994205Y-62777714D01*
X150803729Y-62777714D01*
X150702538Y-62825333D01*
X151059681Y-63396761D02*
X150958491Y-63444380D01*
X150720395Y-63444380D01*
X150631110Y-63396761D01*
X150595395Y-63301523D01*
X150607300Y-63206285D01*
X150666824Y-63111047D01*
X150768014Y-63063428D01*
X151006110Y-63063428D01*
X151107300Y-63015809D01*
X151958491Y-63444380D02*
X152083491Y-62444380D01*
X151964443Y-63396761D02*
X151863252Y-63444380D01*
X151672776Y-63444380D01*
X151583491Y-63396761D01*
X151541824Y-63349142D01*
X151506110Y-63253904D01*
X151541824Y-62968190D01*
X151601348Y-62872952D01*
X151654919Y-62825333D01*
X151756110Y-62777714D01*
X151946586Y-62777714D01*
X152035872Y-62825333D01*
X152863252Y-63444380D02*
X152928729Y-62920571D01*
X152893014Y-62825333D01*
X152803729Y-62777714D01*
X152613252Y-62777714D01*
X152512062Y-62825333D01*
X152869205Y-63396761D02*
X152768014Y-63444380D01*
X152529919Y-63444380D01*
X152440633Y-63396761D01*
X152404919Y-63301523D01*
X152416824Y-63206285D01*
X152476348Y-63111047D01*
X152577538Y-63063428D01*
X152815633Y-63063428D01*
X152916824Y-63015809D01*
X153422776Y-62777714D02*
X153297776Y-63777714D01*
X153416824Y-62825333D02*
X153518014Y-62777714D01*
X153708491Y-62777714D01*
X153797776Y-62825333D01*
X153839443Y-62872952D01*
X153875157Y-62968190D01*
X153839443Y-63253904D01*
X153779919Y-63349142D01*
X153726348Y-63396761D01*
X153625157Y-63444380D01*
X153434681Y-63444380D01*
X153345395Y-63396761D01*
X154184681Y-62777714D02*
X154565633Y-62777714D01*
X154369205Y-62444380D02*
X154262062Y-63301523D01*
X154297776Y-63396761D01*
X154387062Y-63444380D01*
X154482300Y-63444380D01*
X155202538Y-63396761D02*
X155101348Y-63444380D01*
X154910872Y-63444380D01*
X154821586Y-63396761D01*
X154785872Y-63301523D01*
X154833491Y-62920571D01*
X154893014Y-62825333D01*
X154994205Y-62777714D01*
X155184681Y-62777714D01*
X155273967Y-62825333D01*
X155309681Y-62920571D01*
X155297776Y-63015809D01*
X154809681Y-63111047D01*
X155672776Y-63444380D02*
X155756110Y-62777714D01*
X155732300Y-62968190D02*
X155791824Y-62872952D01*
X155845395Y-62825333D01*
X155946586Y-62777714D01*
X156041824Y-62777714D01*
X157041824Y-62777714D02*
X157196586Y-63444380D01*
X157518014Y-62777714D01*
X158131110Y-62444380D02*
X158226348Y-62444380D01*
X158315633Y-62492000D01*
X158357300Y-62539619D01*
X158393014Y-62634857D01*
X158416824Y-62825333D01*
X158387062Y-63063428D01*
X158315633Y-63253904D01*
X158256110Y-63349142D01*
X158202538Y-63396761D01*
X158101348Y-63444380D01*
X158006110Y-63444380D01*
X157916824Y-63396761D01*
X157875157Y-63349142D01*
X157839443Y-63253904D01*
X157815633Y-63063428D01*
X157845395Y-62825333D01*
X157916824Y-62634857D01*
X157976348Y-62539619D01*
X158029919Y-62492000D01*
X158131110Y-62444380D01*
X158779919Y-63349142D02*
X158821586Y-63396761D01*
X158768014Y-63444380D01*
X158726348Y-63396761D01*
X158779919Y-63349142D01*
X158768014Y-63444380D01*
X159768014Y-63444380D02*
X159196586Y-63444380D01*
X159482300Y-63444380D02*
X159607300Y-62444380D01*
X159494205Y-62587238D01*
X159387062Y-62682476D01*
X159285872Y-62730095D01*
X161023967Y-62539619D02*
X161077538Y-62492000D01*
X161178729Y-62444380D01*
X161416824Y-62444380D01*
X161506110Y-62492000D01*
X161547776Y-62539619D01*
X161583491Y-62634857D01*
X161571586Y-62730095D01*
X161506110Y-62872952D01*
X160863252Y-63444380D01*
X161482300Y-63444380D01*
X162226348Y-62444380D02*
X162321586Y-62444380D01*
X162410872Y-62492000D01*
X162452538Y-62539619D01*
X162488252Y-62634857D01*
X162512062Y-62825333D01*
X162482300Y-63063428D01*
X162410872Y-63253904D01*
X162351348Y-63349142D01*
X162297776Y-63396761D01*
X162196586Y-63444380D01*
X162101348Y-63444380D01*
X162012062Y-63396761D01*
X161970395Y-63349142D01*
X161934681Y-63253904D01*
X161910872Y-63063428D01*
X161940633Y-62825333D01*
X162012062Y-62634857D01*
X162071586Y-62539619D01*
X162125157Y-62492000D01*
X162226348Y-62444380D01*
X162928729Y-62539619D02*
X162982300Y-62492000D01*
X163083491Y-62444380D01*
X163321586Y-62444380D01*
X163410872Y-62492000D01*
X163452538Y-62539619D01*
X163488252Y-62634857D01*
X163476348Y-62730095D01*
X163410872Y-62872952D01*
X162768014Y-63444380D01*
X163387062Y-63444380D01*
X164339443Y-63444380D02*
X163768014Y-63444380D01*
X164053729Y-63444380D02*
X164178729Y-62444380D01*
X164065633Y-62587238D01*
X163958491Y-62682476D01*
X163857300Y-62730095D01*
X115682476Y-93432380D02*
X116253904Y-93432380D01*
X115968190Y-94432380D02*
X115968190Y-93432380D01*
X117158666Y-94337142D02*
X117111047Y-94384761D01*
X116968190Y-94432380D01*
X116872952Y-94432380D01*
X116730095Y-94384761D01*
X116634857Y-94289523D01*
X116587238Y-94194285D01*
X116539619Y-94003809D01*
X116539619Y-93860952D01*
X116587238Y-93670476D01*
X116634857Y-93575238D01*
X116730095Y-93480000D01*
X116872952Y-93432380D01*
X116968190Y-93432380D01*
X117111047Y-93480000D01*
X117158666Y-93527619D01*
X117539619Y-94384761D02*
X117682476Y-94432380D01*
X117920571Y-94432380D01*
X118015809Y-94384761D01*
X118063428Y-94337142D01*
X118111047Y-94241904D01*
X118111047Y-94146666D01*
X118063428Y-94051428D01*
X118015809Y-94003809D01*
X117920571Y-93956190D01*
X117730095Y-93908571D01*
X117634857Y-93860952D01*
X117587238Y-93813333D01*
X117539619Y-93718095D01*
X117539619Y-93622857D01*
X117587238Y-93527619D01*
X117634857Y-93480000D01*
X117730095Y-93432380D01*
X117968190Y-93432380D01*
X118111047Y-93480000D01*
X119015809Y-93432380D02*
X118539619Y-93432380D01*
X118492000Y-93908571D01*
X118539619Y-93860952D01*
X118634857Y-93813333D01*
X118872952Y-93813333D01*
X118968190Y-93860952D01*
X119015809Y-93908571D01*
X119063428Y-94003809D01*
X119063428Y-94241904D01*
X119015809Y-94337142D01*
X118968190Y-94384761D01*
X118872952Y-94432380D01*
X118634857Y-94432380D01*
X118539619Y-94384761D01*
X118492000Y-94337142D01*
X119396761Y-93432380D02*
X120015809Y-93432380D01*
X119682476Y-93813333D01*
X119825333Y-93813333D01*
X119920571Y-93860952D01*
X119968190Y-93908571D01*
X120015809Y-94003809D01*
X120015809Y-94241904D01*
X119968190Y-94337142D01*
X119920571Y-94384761D01*
X119825333Y-94432380D01*
X119539619Y-94432380D01*
X119444380Y-94384761D01*
X119396761Y-94337142D01*
X120968190Y-94432380D02*
X120396761Y-94432380D01*
X120682476Y-94432380D02*
X120682476Y-93432380D01*
X120587238Y-93575238D01*
X120492000Y-93670476D01*
X120396761Y-93718095D01*
X121587238Y-93432380D02*
X121682476Y-93432380D01*
X121777714Y-93480000D01*
X121825333Y-93527619D01*
X121872952Y-93622857D01*
X121920571Y-93813333D01*
X121920571Y-94051428D01*
X121872952Y-94241904D01*
X121825333Y-94337142D01*
X121777714Y-94384761D01*
X121682476Y-94432380D01*
X121587238Y-94432380D01*
X121492000Y-94384761D01*
X121444380Y-94337142D01*
X121396761Y-94241904D01*
X121349142Y-94051428D01*
X121349142Y-93813333D01*
X121396761Y-93622857D01*
X121444380Y-93527619D01*
X121492000Y-93480000D01*
X121587238Y-93432380D01*
X122539619Y-93432380D02*
X122634857Y-93432380D01*
X122730095Y-93480000D01*
X122777714Y-93527619D01*
X122825333Y-93622857D01*
X122872952Y-93813333D01*
X122872952Y-94051428D01*
X122825333Y-94241904D01*
X122777714Y-94337142D01*
X122730095Y-94384761D01*
X122634857Y-94432380D01*
X122539619Y-94432380D01*
X122444380Y-94384761D01*
X122396761Y-94337142D01*
X122349142Y-94241904D01*
X122301523Y-94051428D01*
X122301523Y-93813333D01*
X122349142Y-93622857D01*
X122396761Y-93527619D01*
X122444380Y-93480000D01*
X122539619Y-93432380D01*
X123492000Y-93432380D02*
X123587238Y-93432380D01*
X123682476Y-93480000D01*
X123730095Y-93527619D01*
X123777714Y-93622857D01*
X123825333Y-93813333D01*
X123825333Y-94051428D01*
X123777714Y-94241904D01*
X123730095Y-94337142D01*
X123682476Y-94384761D01*
X123587238Y-94432380D01*
X123492000Y-94432380D01*
X123396761Y-94384761D01*
X123349142Y-94337142D01*
X123301523Y-94241904D01*
X123253904Y-94051428D01*
X123253904Y-93813333D01*
X123301523Y-93622857D01*
X123349142Y-93527619D01*
X123396761Y-93480000D01*
X123492000Y-93432380D01*
X125539619Y-94432380D02*
X124968190Y-94432380D01*
X125253904Y-94432380D02*
X125253904Y-93432380D01*
X125158666Y-93575238D01*
X125063428Y-93670476D01*
X124968190Y-93718095D01*
X125968190Y-94432380D02*
X125968190Y-93432380D01*
X126301523Y-94146666D01*
X126634857Y-93432380D01*
X126634857Y-94432380D01*
X127111047Y-94432380D02*
X127111047Y-93432380D01*
X127111047Y-93813333D02*
X127206285Y-93765714D01*
X127396761Y-93765714D01*
X127492000Y-93813333D01*
X127539619Y-93860952D01*
X127587238Y-93956190D01*
X127587238Y-94241904D01*
X127539619Y-94337142D01*
X127492000Y-94384761D01*
X127396761Y-94432380D01*
X127206285Y-94432380D01*
X127111047Y-94384761D01*
X128015809Y-94432380D02*
X128015809Y-93765714D01*
X128015809Y-93432380D02*
X127968190Y-93480000D01*
X128015809Y-93527619D01*
X128063428Y-93480000D01*
X128015809Y-93432380D01*
X128015809Y-93527619D01*
X128349142Y-93765714D02*
X128730095Y-93765714D01*
X128492000Y-93432380D02*
X128492000Y-94289523D01*
X128539619Y-94384761D01*
X128634857Y-94432380D01*
X128730095Y-94432380D01*
X129825333Y-94432380D02*
X129825333Y-93765714D01*
X129825333Y-93860952D02*
X129872952Y-93813333D01*
X129968190Y-93765714D01*
X130111047Y-93765714D01*
X130206285Y-93813333D01*
X130253904Y-93908571D01*
X130253904Y-94432380D01*
X130253904Y-93908571D02*
X130301523Y-93813333D01*
X130396761Y-93765714D01*
X130539619Y-93765714D01*
X130634857Y-93813333D01*
X130682476Y-93908571D01*
X130682476Y-94432380D01*
X131587238Y-94432380D02*
X131587238Y-93908571D01*
X131539619Y-93813333D01*
X131444380Y-93765714D01*
X131253904Y-93765714D01*
X131158666Y-93813333D01*
X131587238Y-94384761D02*
X131491999Y-94432380D01*
X131253904Y-94432380D01*
X131158666Y-94384761D01*
X131111047Y-94289523D01*
X131111047Y-94194285D01*
X131158666Y-94099047D01*
X131253904Y-94051428D01*
X131491999Y-94051428D01*
X131587238Y-94003809D01*
X132015809Y-94384761D02*
X132111047Y-94432380D01*
X132301523Y-94432380D01*
X132396761Y-94384761D01*
X132444380Y-94289523D01*
X132444380Y-94241904D01*
X132396761Y-94146666D01*
X132301523Y-94099047D01*
X132158666Y-94099047D01*
X132063428Y-94051428D01*
X132015809Y-93956190D01*
X132015809Y-93908571D01*
X132063428Y-93813333D01*
X132158666Y-93765714D01*
X132301523Y-93765714D01*
X132396761Y-93813333D01*
X132872952Y-94432380D02*
X132872952Y-93432380D01*
X132968190Y-94051428D02*
X133253904Y-94432380D01*
X133253904Y-93765714D02*
X132872952Y-94146666D01*
X135015809Y-94432380D02*
X134682476Y-93956190D01*
X134444380Y-94432380D02*
X134444380Y-93432380D01*
X134825333Y-93432380D01*
X134920571Y-93480000D01*
X134968190Y-93527619D01*
X135015809Y-93622857D01*
X135015809Y-93765714D01*
X134968190Y-93860952D01*
X134920571Y-93908571D01*
X134825333Y-93956190D01*
X134444380Y-93956190D01*
X135634857Y-93432380D02*
X135825333Y-93432380D01*
X135920571Y-93480000D01*
X136015809Y-93575238D01*
X136063428Y-93765714D01*
X136063428Y-94099047D01*
X136015809Y-94289523D01*
X135920571Y-94384761D01*
X135825333Y-94432380D01*
X135634857Y-94432380D01*
X135539619Y-94384761D01*
X135444380Y-94289523D01*
X135396761Y-94099047D01*
X135396761Y-93765714D01*
X135444380Y-93575238D01*
X135539619Y-93480000D01*
X135634857Y-93432380D01*
X136492000Y-94432380D02*
X136492000Y-93432380D01*
X136825333Y-94146666D01*
X137158666Y-93432380D01*
X137158666Y-94432380D01*
X116444000Y-77779619D02*
X116491619Y-77732000D01*
X116586857Y-77684380D01*
X116824952Y-77684380D01*
X116920190Y-77732000D01*
X116967809Y-77779619D01*
X117015428Y-77874857D01*
X117015428Y-77970095D01*
X116967809Y-78112952D01*
X116396380Y-78684380D01*
X117015428Y-78684380D01*
X117348761Y-77684380D02*
X118015428Y-77684380D01*
X117586857Y-78684380D01*
X118824952Y-78636761D02*
X118729714Y-78684380D01*
X118539238Y-78684380D01*
X118444000Y-78636761D01*
X118396380Y-78589142D01*
X118348761Y-78493904D01*
X118348761Y-78208190D01*
X118396380Y-78112952D01*
X118444000Y-78065333D01*
X118539238Y-78017714D01*
X118729714Y-78017714D01*
X118824952Y-78065333D01*
X119444000Y-77684380D02*
X119539238Y-77684380D01*
X119634476Y-77732000D01*
X119682095Y-77779619D01*
X119729714Y-77874857D01*
X119777333Y-78065333D01*
X119777333Y-78303428D01*
X119729714Y-78493904D01*
X119682095Y-78589142D01*
X119634476Y-78636761D01*
X119539238Y-78684380D01*
X119444000Y-78684380D01*
X119348761Y-78636761D01*
X119301142Y-78589142D01*
X119253523Y-78493904D01*
X119205904Y-78303428D01*
X119205904Y-78065333D01*
X119253523Y-77874857D01*
X119301142Y-77779619D01*
X119348761Y-77732000D01*
X119444000Y-77684380D01*
X120729714Y-78684380D02*
X120158285Y-78684380D01*
X120444000Y-78684380D02*
X120444000Y-77684380D01*
X120348761Y-77827238D01*
X120253523Y-77922476D01*
X120158285Y-77970095D01*
X121348761Y-77684380D02*
X121444000Y-77684380D01*
X121539238Y-77732000D01*
X121586857Y-77779619D01*
X121634476Y-77874857D01*
X121682095Y-78065333D01*
X121682095Y-78303428D01*
X121634476Y-78493904D01*
X121586857Y-78589142D01*
X121539238Y-78636761D01*
X121444000Y-78684380D01*
X121348761Y-78684380D01*
X121253523Y-78636761D01*
X121205904Y-78589142D01*
X121158285Y-78493904D01*
X121110666Y-78303428D01*
X121110666Y-78065333D01*
X121158285Y-77874857D01*
X121205904Y-77779619D01*
X121253523Y-77732000D01*
X121348761Y-77684380D01*
X123158285Y-79065333D02*
X123110666Y-79017714D01*
X123015428Y-78874857D01*
X122967809Y-78779619D01*
X122920190Y-78636761D01*
X122872571Y-78398666D01*
X122872571Y-78208190D01*
X122920190Y-77970095D01*
X122967809Y-77827238D01*
X123015428Y-77732000D01*
X123110666Y-77589142D01*
X123158285Y-77541523D01*
X123396380Y-78017714D02*
X123777333Y-78017714D01*
X123539238Y-77684380D02*
X123539238Y-78541523D01*
X123586857Y-78636761D01*
X123682095Y-78684380D01*
X123777333Y-78684380D01*
X124253523Y-78684380D02*
X124158285Y-78636761D01*
X124110666Y-78589142D01*
X124063047Y-78493904D01*
X124063047Y-78208190D01*
X124110666Y-78112952D01*
X124158285Y-78065333D01*
X124253523Y-78017714D01*
X124396380Y-78017714D01*
X124491619Y-78065333D01*
X124539238Y-78112952D01*
X124586857Y-78208190D01*
X124586857Y-78493904D01*
X124539238Y-78589142D01*
X124491619Y-78636761D01*
X124396380Y-78684380D01*
X124253523Y-78684380D01*
X125634476Y-77684380D02*
X126205904Y-77684380D01*
X125920190Y-78684380D02*
X125920190Y-77684380D01*
X127015428Y-78684380D02*
X126539238Y-78684380D01*
X126539238Y-77684380D01*
X127491619Y-78112952D02*
X127396380Y-78065333D01*
X127348761Y-78017714D01*
X127301142Y-77922476D01*
X127301142Y-77874857D01*
X127348761Y-77779619D01*
X127396380Y-77732000D01*
X127491619Y-77684380D01*
X127682095Y-77684380D01*
X127777333Y-77732000D01*
X127824952Y-77779619D01*
X127872571Y-77874857D01*
X127872571Y-77922476D01*
X127824952Y-78017714D01*
X127777333Y-78065333D01*
X127682095Y-78112952D01*
X127491619Y-78112952D01*
X127396380Y-78160571D01*
X127348761Y-78208190D01*
X127301142Y-78303428D01*
X127301142Y-78493904D01*
X127348761Y-78589142D01*
X127396380Y-78636761D01*
X127491619Y-78684380D01*
X127682095Y-78684380D01*
X127777333Y-78636761D01*
X127824952Y-78589142D01*
X127872571Y-78493904D01*
X127872571Y-78303428D01*
X127824952Y-78208190D01*
X127777333Y-78160571D01*
X127682095Y-78112952D01*
X128729714Y-77684380D02*
X128539238Y-77684380D01*
X128444000Y-77732000D01*
X128396380Y-77779619D01*
X128301142Y-77922476D01*
X128253523Y-78112952D01*
X128253523Y-78493904D01*
X128301142Y-78589142D01*
X128348761Y-78636761D01*
X128444000Y-78684380D01*
X128634476Y-78684380D01*
X128729714Y-78636761D01*
X128777333Y-78589142D01*
X128824952Y-78493904D01*
X128824952Y-78255809D01*
X128777333Y-78160571D01*
X128729714Y-78112952D01*
X128634476Y-78065333D01*
X128444000Y-78065333D01*
X128348761Y-78112952D01*
X128301142Y-78160571D01*
X128253523Y-78255809D01*
X129682095Y-77684380D02*
X129491619Y-77684380D01*
X129396380Y-77732000D01*
X129348761Y-77779619D01*
X129253523Y-77922476D01*
X129205904Y-78112952D01*
X129205904Y-78493904D01*
X129253523Y-78589142D01*
X129301142Y-78636761D01*
X129396380Y-78684380D01*
X129586857Y-78684380D01*
X129682095Y-78636761D01*
X129729714Y-78589142D01*
X129777333Y-78493904D01*
X129777333Y-78255809D01*
X129729714Y-78160571D01*
X129682095Y-78112952D01*
X129586857Y-78065333D01*
X129396380Y-78065333D01*
X129301142Y-78112952D01*
X129253523Y-78160571D01*
X129205904Y-78255809D01*
X130110666Y-79065333D02*
X130158285Y-79017714D01*
X130253523Y-78874857D01*
X130301142Y-78779619D01*
X130348761Y-78636761D01*
X130396380Y-78398666D01*
X130396380Y-78208190D01*
X130348761Y-77970095D01*
X130301142Y-77827238D01*
X130253523Y-77732000D01*
X130158285Y-77589142D01*
X130110666Y-77541523D01*
X109180380Y-75882476D02*
X109180380Y-76358666D01*
X109656571Y-76406285D01*
X109608952Y-76358666D01*
X109561333Y-76263428D01*
X109561333Y-76025333D01*
X109608952Y-75930095D01*
X109656571Y-75882476D01*
X109751809Y-75834857D01*
X109989904Y-75834857D01*
X110085142Y-75882476D01*
X110132761Y-75930095D01*
X110180380Y-76025333D01*
X110180380Y-76263428D01*
X110132761Y-76358666D01*
X110085142Y-76406285D01*
X109180380Y-75549142D02*
X110180380Y-75215809D01*
X109180380Y-74882476D01*
X158242095Y-78240000D02*
X158146857Y-78192380D01*
X158004000Y-78192380D01*
X157861142Y-78240000D01*
X157765904Y-78335238D01*
X157718285Y-78430476D01*
X157670666Y-78620952D01*
X157670666Y-78763809D01*
X157718285Y-78954285D01*
X157765904Y-79049523D01*
X157861142Y-79144761D01*
X158004000Y-79192380D01*
X158099238Y-79192380D01*
X158242095Y-79144761D01*
X158289714Y-79097142D01*
X158289714Y-78763809D01*
X158099238Y-78763809D01*
X158718285Y-79192380D02*
X158718285Y-78192380D01*
X159289714Y-79192380D01*
X159289714Y-78192380D01*
X159765904Y-79192380D02*
X159765904Y-78192380D01*
X160004000Y-78192380D01*
X160146857Y-78240000D01*
X160242095Y-78335238D01*
X160289714Y-78430476D01*
X160337333Y-78620952D01*
X160337333Y-78763809D01*
X160289714Y-78954285D01*
X160242095Y-79049523D01*
X160146857Y-79144761D01*
X160004000Y-79192380D01*
X159765904Y-79192380D01*
X115760666Y-82510380D02*
X116094000Y-83510380D01*
X116427333Y-82510380D01*
X116760666Y-83510380D02*
X116760666Y-82510380D01*
X117141619Y-82510380D01*
X117236857Y-82558000D01*
X117284476Y-82605619D01*
X117332095Y-82700857D01*
X117332095Y-82843714D01*
X117284476Y-82938952D01*
X117236857Y-82986571D01*
X117141619Y-83034190D01*
X116760666Y-83034190D01*
X117760666Y-83510380D02*
X117760666Y-82510380D01*
X118141619Y-82510380D01*
X118236857Y-82558000D01*
X118284476Y-82605619D01*
X118332095Y-82700857D01*
X118332095Y-82843714D01*
X118284476Y-82938952D01*
X118236857Y-82986571D01*
X118141619Y-83034190D01*
X117760666Y-83034190D01*
X118300666Y-63698380D02*
X118300666Y-62698380D01*
X118681619Y-62698380D01*
X118776857Y-62746000D01*
X118824476Y-62793619D01*
X118872095Y-62888857D01*
X118872095Y-63031714D01*
X118824476Y-63126952D01*
X118776857Y-63174571D01*
X118681619Y-63222190D01*
X118300666Y-63222190D01*
X119824476Y-62746000D02*
X119729238Y-62698380D01*
X119586380Y-62698380D01*
X119443523Y-62746000D01*
X119348285Y-62841238D01*
X119300666Y-62936476D01*
X119253047Y-63126952D01*
X119253047Y-63269809D01*
X119300666Y-63460285D01*
X119348285Y-63555523D01*
X119443523Y-63650761D01*
X119586380Y-63698380D01*
X119681619Y-63698380D01*
X119824476Y-63650761D01*
X119872095Y-63603142D01*
X119872095Y-63269809D01*
X119681619Y-63269809D01*
X120300666Y-63698380D02*
X120300666Y-62698380D01*
X120634000Y-63412666D01*
X120967333Y-62698380D01*
X120967333Y-63698380D01*
X158535809Y-67665000D02*
X159583428Y-67665000D01*
X158964380Y-68032380D02*
X159154857Y-68032380D01*
X159250095Y-68080000D01*
X159345333Y-68175238D01*
X159392952Y-68365714D01*
X159392952Y-68699047D01*
X159345333Y-68889523D01*
X159250095Y-68984761D01*
X159154857Y-69032380D01*
X158964380Y-69032380D01*
X158869142Y-68984761D01*
X158773904Y-68889523D01*
X158726285Y-68699047D01*
X158726285Y-68365714D01*
X158773904Y-68175238D01*
X158869142Y-68080000D01*
X158964380Y-68032380D01*
X159583428Y-67665000D02*
X160488190Y-67665000D01*
X159821523Y-68508571D02*
X160154857Y-68508571D01*
X160297714Y-69032380D02*
X159821523Y-69032380D01*
X159821523Y-68032380D01*
X160297714Y-68032380D01*
X162115619Y-67665000D02*
X163115619Y-67665000D01*
X162925142Y-68937142D02*
X162877523Y-68984761D01*
X162734666Y-69032380D01*
X162639428Y-69032380D01*
X162496571Y-68984761D01*
X162401333Y-68889523D01*
X162353714Y-68794285D01*
X162306095Y-68603809D01*
X162306095Y-68460952D01*
X162353714Y-68270476D01*
X162401333Y-68175238D01*
X162496571Y-68080000D01*
X162639428Y-68032380D01*
X162734666Y-68032380D01*
X162877523Y-68080000D01*
X162925142Y-68127619D01*
X163115619Y-67665000D02*
X164020380Y-67665000D01*
X163353714Y-68508571D02*
X163687047Y-68508571D01*
X163829904Y-69032380D02*
X163353714Y-69032380D01*
X163353714Y-68032380D01*
X163829904Y-68032380D01*
D11*
X157166000Y-66862000D02*
X157166000Y-65532000D01*
X158496000Y-66862000D02*
X157166000Y-66862000D01*
X159766000Y-66862000D02*
X159766000Y-64202000D01*
X159766000Y-64202000D02*
X164906000Y-64202000D01*
X159766000Y-66862000D02*
X164906000Y-66862000D01*
X164906000Y-66862000D02*
X164906000Y-64202000D01*
X108906000Y-63948000D02*
X110236000Y-63948000D01*
X108906000Y-65278000D02*
X108906000Y-63948000D01*
X111506000Y-63948000D02*
X114106000Y-63948000D01*
X111506000Y-66548000D02*
X111506000Y-63948000D01*
X108906000Y-66548000D02*
X111506000Y-66548000D01*
X114106000Y-63948000D02*
X114106000Y-74228000D01*
X108906000Y-66548000D02*
X108906000Y-74228000D01*
X108906000Y-74228000D02*
X114106000Y-74228000D01*
D12*
G36*
X162784307Y-88987964D02*
G01*
X162855214Y-88859819D01*
X162970280Y-88756100D01*
X163106388Y-88694595D01*
X163335766Y-88651669D01*
X163539938Y-88666834D01*
X163719619Y-88740214D01*
X163822014Y-88817715D01*
X163891514Y-88890355D01*
X163928152Y-88961909D01*
X163945011Y-89061071D01*
X163947645Y-89093207D01*
X163943971Y-89251856D01*
X163909929Y-89358139D01*
X163811984Y-89476341D01*
X163670555Y-89564224D01*
X163500025Y-89617614D01*
X163314777Y-89632337D01*
X163129194Y-89604218D01*
X163096550Y-89594180D01*
X162944780Y-89515718D01*
X162837796Y-89404412D01*
X162775472Y-89271714D01*
X162757684Y-89129080D01*
X162784307Y-88987964D01*
G37*
X162784307Y-88987964D02*
X162855214Y-88859819D01*
X162970280Y-88756100D01*
X163106388Y-88694595D01*
X163335766Y-88651669D01*
X163539938Y-88666834D01*
X163719619Y-88740214D01*
X163822014Y-88817715D01*
X163891514Y-88890355D01*
X163928152Y-88961909D01*
X163945011Y-89061071D01*
X163947645Y-89093207D01*
X163943971Y-89251856D01*
X163909929Y-89358139D01*
X163811984Y-89476341D01*
X163670555Y-89564224D01*
X163500025Y-89617614D01*
X163314777Y-89632337D01*
X163129194Y-89604218D01*
X163096550Y-89594180D01*
X162944780Y-89515718D01*
X162837796Y-89404412D01*
X162775472Y-89271714D01*
X162757684Y-89129080D01*
X162784307Y-88987964D01*
G36*
X162778142Y-90692287D02*
G01*
X162851418Y-90566974D01*
X162955852Y-90463490D01*
X163020369Y-90424003D01*
X163107432Y-90385589D01*
X163173512Y-90363011D01*
X163189149Y-90360500D01*
X163205052Y-90380831D01*
X163216269Y-90445513D01*
X163223246Y-90560084D01*
X163226433Y-90730081D01*
X163226750Y-90824844D01*
X163226750Y-91289188D01*
X163128827Y-91269604D01*
X162979461Y-91210204D01*
X162858866Y-91105205D01*
X162778676Y-90968485D01*
X162750500Y-90818281D01*
X162778142Y-90692287D01*
G37*
X162778142Y-90692287D02*
X162851418Y-90566974D01*
X162955852Y-90463490D01*
X163020369Y-90424003D01*
X163107432Y-90385589D01*
X163173512Y-90363011D01*
X163189149Y-90360500D01*
X163205052Y-90380831D01*
X163216269Y-90445513D01*
X163223246Y-90560084D01*
X163226433Y-90730081D01*
X163226750Y-90824844D01*
X163226750Y-91289188D01*
X163128827Y-91269604D01*
X162979461Y-91210204D01*
X162858866Y-91105205D01*
X162778676Y-90968485D01*
X162750500Y-90818281D01*
X162778142Y-90692287D01*
G36*
X162784307Y-92448714D02*
G01*
X162855214Y-92320569D01*
X162970280Y-92216850D01*
X163106388Y-92155345D01*
X163335766Y-92112419D01*
X163539938Y-92127584D01*
X163719619Y-92200964D01*
X163822014Y-92278465D01*
X163891514Y-92351105D01*
X163928152Y-92422659D01*
X163945011Y-92521821D01*
X163947645Y-92553957D01*
X163943971Y-92712606D01*
X163909929Y-92818889D01*
X163811984Y-92937091D01*
X163670555Y-93024974D01*
X163500025Y-93078364D01*
X163314777Y-93093087D01*
X163129194Y-93064968D01*
X163096550Y-93054930D01*
X162944780Y-92976468D01*
X162837796Y-92865162D01*
X162775472Y-92732464D01*
X162757684Y-92589830D01*
X162784307Y-92448714D01*
G37*
X162784307Y-92448714D02*
X162855214Y-92320569D01*
X162970280Y-92216850D01*
X163106388Y-92155345D01*
X163335766Y-92112419D01*
X163539938Y-92127584D01*
X163719619Y-92200964D01*
X163822014Y-92278465D01*
X163891514Y-92351105D01*
X163928152Y-92422659D01*
X163945011Y-92521821D01*
X163947645Y-92553957D01*
X163943971Y-92712606D01*
X163909929Y-92818889D01*
X163811984Y-92937091D01*
X163670555Y-93024974D01*
X163500025Y-93078364D01*
X163314777Y-93093087D01*
X163129194Y-93064968D01*
X163096550Y-93054930D01*
X162944780Y-92976468D01*
X162837796Y-92865162D01*
X162775472Y-92732464D01*
X162757684Y-92589830D01*
X162784307Y-92448714D01*
G36*
X163358874Y-93924366D02*
G01*
X163420613Y-93917593D01*
X163507101Y-93916500D01*
X163634958Y-93923614D01*
X163723940Y-93948866D01*
X163781940Y-93985331D01*
X163874222Y-94091493D01*
X163934107Y-94228306D01*
X163958345Y-94376697D01*
X163943687Y-94517592D01*
X163891195Y-94626594D01*
X163813230Y-94692571D01*
X163716570Y-94710250D01*
X163618877Y-94694533D01*
X163542643Y-94642906D01*
X163483804Y-94548655D01*
X163438296Y-94405068D01*
X163402052Y-94205431D01*
X163399367Y-94186375D01*
X163380845Y-94082100D01*
X163358815Y-93997809D01*
X163348574Y-93972063D01*
X163338897Y-93941108D01*
X163358874Y-93924366D01*
G37*
X163358874Y-93924366D02*
X163420613Y-93917593D01*
X163507101Y-93916500D01*
X163634958Y-93923614D01*
X163723940Y-93948866D01*
X163781940Y-93985331D01*
X163874222Y-94091493D01*
X163934107Y-94228306D01*
X163958345Y-94376697D01*
X163943687Y-94517592D01*
X163891195Y-94626594D01*
X163813230Y-94692571D01*
X163716570Y-94710250D01*
X163618877Y-94694533D01*
X163542643Y-94642906D01*
X163483804Y-94548655D01*
X163438296Y-94405068D01*
X163402052Y-94205431D01*
X163399367Y-94186375D01*
X163380845Y-94082100D01*
X163358815Y-93997809D01*
X163348574Y-93972063D01*
X163338897Y-93941108D01*
X163358874Y-93924366D01*
G36*
X162778142Y-95772287D02*
G01*
X162851418Y-95646974D01*
X162955852Y-95543490D01*
X163020369Y-95504003D01*
X163107432Y-95465589D01*
X163173512Y-95443011D01*
X163189149Y-95440500D01*
X163205052Y-95460831D01*
X163216269Y-95525513D01*
X163223246Y-95640084D01*
X163226433Y-95810081D01*
X163226750Y-95904844D01*
X163226750Y-96369188D01*
X163128827Y-96349604D01*
X162979461Y-96290204D01*
X162858866Y-96185205D01*
X162778676Y-96048485D01*
X162750500Y-95898281D01*
X162778142Y-95772287D01*
G37*
X162778142Y-95772287D02*
X162851418Y-95646974D01*
X162955852Y-95543490D01*
X163020369Y-95504003D01*
X163107432Y-95465589D01*
X163173512Y-95443011D01*
X163189149Y-95440500D01*
X163205052Y-95460831D01*
X163216269Y-95525513D01*
X163223246Y-95640084D01*
X163226433Y-95810081D01*
X163226750Y-95904844D01*
X163226750Y-96369188D01*
X163128827Y-96349604D01*
X162979461Y-96290204D01*
X162858866Y-96185205D01*
X162778676Y-96048485D01*
X162750500Y-95898281D01*
X162778142Y-95772287D01*
G36*
X162673121Y-78962250D02*
G01*
X162760470Y-78965609D01*
X162801556Y-78982206D01*
X162813520Y-79021824D01*
X162814000Y-79042645D01*
X162838340Y-79172388D01*
X162901561Y-79304273D01*
X162976595Y-79395770D01*
X163052218Y-79448892D01*
X163150786Y-79487455D01*
X163281905Y-79513223D01*
X163455181Y-79527962D01*
X163680219Y-79533436D01*
X163726812Y-79533573D01*
X164147500Y-79533750D01*
X164147500Y-79787750D01*
X162560000Y-79787750D01*
X162560000Y-79565500D01*
X162718750Y-79565500D01*
X162809232Y-79561218D01*
X162866531Y-79550267D01*
X162877106Y-79541688D01*
X162852643Y-79511122D01*
X162791971Y-79463607D01*
X162766987Y-79446805D01*
X162650641Y-79341179D01*
X162577715Y-79198800D01*
X162550600Y-79081313D01*
X162532242Y-78962250D01*
X162673121Y-78962250D01*
G37*
X162673121Y-78962250D02*
X162760470Y-78965609D01*
X162801556Y-78982206D01*
X162813520Y-79021824D01*
X162814000Y-79042645D01*
X162838340Y-79172388D01*
X162901561Y-79304273D01*
X162976595Y-79395770D01*
X163052218Y-79448892D01*
X163150786Y-79487455D01*
X163281905Y-79513223D01*
X163455181Y-79527962D01*
X163680219Y-79533436D01*
X163726812Y-79533573D01*
X164147500Y-79533750D01*
X164147500Y-79787750D01*
X162560000Y-79787750D01*
X162560000Y-79565500D01*
X162718750Y-79565500D01*
X162809232Y-79561218D01*
X162866531Y-79550267D01*
X162877106Y-79541688D01*
X162852643Y-79511122D01*
X162791971Y-79463607D01*
X162766987Y-79446805D01*
X162650641Y-79341179D01*
X162577715Y-79198800D01*
X162550600Y-79081313D01*
X162532242Y-78962250D01*
X162673121Y-78962250D01*
G36*
X164147500Y-83629500D02*
G01*
X164147500Y-83883500D01*
X161988500Y-83883500D01*
X161988500Y-83629500D01*
X164147500Y-83629500D01*
G37*
X164147500Y-83629500D02*
X164147500Y-83883500D01*
X161988500Y-83883500D01*
X161988500Y-83629500D01*
X164147500Y-83629500D01*
G36*
X162571779Y-80550706D02*
G01*
X162650714Y-80380385D01*
X162775058Y-80237272D01*
X162938872Y-80128479D01*
X163136216Y-80061119D01*
X163327762Y-80041750D01*
X163449000Y-80041750D01*
X163449000Y-81223567D01*
X163566990Y-81201432D01*
X163729318Y-81142343D01*
X163852642Y-81035735D01*
X163905460Y-80950390D01*
X163951145Y-80792414D01*
X163945183Y-80635267D01*
X163891638Y-80493495D01*
X163794570Y-80381642D01*
X163736154Y-80344102D01*
X163667293Y-80295511D01*
X163641699Y-80229645D01*
X163639500Y-80183810D01*
X163647549Y-80106283D01*
X163676877Y-80075843D01*
X163696783Y-80073500D01*
X163782554Y-80096776D01*
X163886194Y-80156858D01*
X163988323Y-80239127D01*
X164069558Y-80328966D01*
X164098322Y-80376338D01*
X164136947Y-80495796D01*
X164161295Y-80646554D01*
X164169117Y-80801764D01*
X164158160Y-80934579D01*
X164148432Y-80974132D01*
X164060313Y-81159658D01*
X163928434Y-81300873D01*
X163751584Y-81398564D01*
X163528548Y-81453522D01*
X163392555Y-81465534D01*
X163253023Y-81469080D01*
X163195000Y-81465195D01*
X163195000Y-81220780D01*
X163195000Y-80304556D01*
X163111048Y-80320604D01*
X163005163Y-80367068D01*
X162906186Y-80454891D01*
X162825423Y-80567267D01*
X162774183Y-80687389D01*
X162763772Y-80798449D01*
X162770214Y-80827216D01*
X162833949Y-80983533D01*
X162914790Y-81090784D01*
X163026357Y-81163305D01*
X163123562Y-81199145D01*
X163195000Y-81220780D01*
X163195000Y-81465195D01*
X163153071Y-81462387D01*
X163069093Y-81441507D01*
X162977481Y-81402494D01*
X162957450Y-81392798D01*
X162788515Y-81288663D01*
X162670029Y-81160653D01*
X162589650Y-80994344D01*
X162573896Y-80944518D01*
X162544193Y-80741121D01*
X162571779Y-80550706D01*
G37*
X162571779Y-80550706D02*
X162650714Y-80380385D01*
X162775058Y-80237272D01*
X162938872Y-80128479D01*
X163136216Y-80061119D01*
X163327762Y-80041750D01*
X163449000Y-80041750D01*
X163449000Y-81223567D01*
X163566990Y-81201432D01*
X163729318Y-81142343D01*
X163852642Y-81035735D01*
X163905460Y-80950390D01*
X163951145Y-80792414D01*
X163945183Y-80635267D01*
X163891638Y-80493495D01*
X163794570Y-80381642D01*
X163736154Y-80344102D01*
X163667293Y-80295511D01*
X163641699Y-80229645D01*
X163639500Y-80183810D01*
X163647549Y-80106283D01*
X163676877Y-80075843D01*
X163696783Y-80073500D01*
X163782554Y-80096776D01*
X163886194Y-80156858D01*
X163988323Y-80239127D01*
X164069558Y-80328966D01*
X164098322Y-80376338D01*
X164136947Y-80495796D01*
X164161295Y-80646554D01*
X164169117Y-80801764D01*
X164158160Y-80934579D01*
X164148432Y-80974132D01*
X164060313Y-81159658D01*
X163928434Y-81300873D01*
X163751584Y-81398564D01*
X163528548Y-81453522D01*
X163392555Y-81465534D01*
X163253023Y-81469080D01*
X163195000Y-81465195D01*
X163195000Y-81220780D01*
X163195000Y-80304556D01*
X163111048Y-80320604D01*
X163005163Y-80367068D01*
X162906186Y-80454891D01*
X162825423Y-80567267D01*
X162774183Y-80687389D01*
X162763772Y-80798449D01*
X162770214Y-80827216D01*
X162833949Y-80983533D01*
X162914790Y-81090784D01*
X163026357Y-81163305D01*
X163123562Y-81199145D01*
X163195000Y-81220780D01*
X163195000Y-81465195D01*
X163153071Y-81462387D01*
X163069093Y-81441507D01*
X162977481Y-81402494D01*
X162957450Y-81392798D01*
X162788515Y-81288663D01*
X162670029Y-81160653D01*
X162589650Y-80994344D01*
X162573896Y-80944518D01*
X162544193Y-80741121D01*
X162571779Y-80550706D01*
G36*
X164147500Y-81819750D02*
G01*
X164147500Y-81946750D01*
X164143859Y-82028135D01*
X164123401Y-82064311D01*
X164071823Y-82073519D01*
X164047920Y-82073750D01*
X163948340Y-82073750D01*
X164031635Y-82157045D01*
X164123462Y-82291539D01*
X164170584Y-82457823D01*
X164171735Y-82641367D01*
X164125649Y-82827641D01*
X164095972Y-82895149D01*
X163982463Y-83060719D01*
X163829569Y-83179086D01*
X163635518Y-83251082D01*
X163398540Y-83277539D01*
X163353034Y-83276637D01*
X163353034Y-83009579D01*
X163544932Y-82996305D01*
X163692400Y-82951002D01*
X163808944Y-82867641D01*
X163888284Y-82770534D01*
X163936499Y-82681751D01*
X163952256Y-82589905D01*
X163948387Y-82507948D01*
X163926573Y-82396255D01*
X163888666Y-82297137D01*
X163872071Y-82269823D01*
X163758725Y-82163841D01*
X163610129Y-82094523D01*
X163440728Y-82061420D01*
X163264969Y-82064083D01*
X163097296Y-82102064D01*
X162952154Y-82174914D01*
X162843989Y-82282184D01*
X162831289Y-82302156D01*
X162787652Y-82421425D01*
X162774680Y-82561856D01*
X162792048Y-82697410D01*
X162837467Y-82799459D01*
X162940723Y-82905675D01*
X163068621Y-82972286D01*
X163234038Y-83004541D01*
X163353034Y-83009579D01*
X163353034Y-83276637D01*
X163286755Y-83275322D01*
X163048426Y-83240800D01*
X162857014Y-83164027D01*
X162711065Y-83043893D01*
X162609122Y-82879286D01*
X162559283Y-82719597D01*
X162545422Y-82514073D01*
X162592439Y-82321139D01*
X162675667Y-82176938D01*
X162753731Y-82073750D01*
X161988500Y-82073750D01*
X161988500Y-81819750D01*
X164147500Y-81819750D01*
G37*
X164147500Y-81819750D02*
X164147500Y-81946750D01*
X164143859Y-82028135D01*
X164123401Y-82064311D01*
X164071823Y-82073519D01*
X164047920Y-82073750D01*
X163948340Y-82073750D01*
X164031635Y-82157045D01*
X164123462Y-82291539D01*
X164170584Y-82457823D01*
X164171735Y-82641367D01*
X164125649Y-82827641D01*
X164095972Y-82895149D01*
X163982463Y-83060719D01*
X163829569Y-83179086D01*
X163635518Y-83251082D01*
X163398540Y-83277539D01*
X163353034Y-83276637D01*
X163353034Y-83009579D01*
X163544932Y-82996305D01*
X163692400Y-82951002D01*
X163808944Y-82867641D01*
X163888284Y-82770534D01*
X163936499Y-82681751D01*
X163952256Y-82589905D01*
X163948387Y-82507948D01*
X163926573Y-82396255D01*
X163888666Y-82297137D01*
X163872071Y-82269823D01*
X163758725Y-82163841D01*
X163610129Y-82094523D01*
X163440728Y-82061420D01*
X163264969Y-82064083D01*
X163097296Y-82102064D01*
X162952154Y-82174914D01*
X162843989Y-82282184D01*
X162831289Y-82302156D01*
X162787652Y-82421425D01*
X162774680Y-82561856D01*
X162792048Y-82697410D01*
X162837467Y-82799459D01*
X162940723Y-82905675D01*
X163068621Y-82972286D01*
X163234038Y-83004541D01*
X163353034Y-83009579D01*
X163353034Y-83276637D01*
X163286755Y-83275322D01*
X163048426Y-83240800D01*
X162857014Y-83164027D01*
X162711065Y-83043893D01*
X162609122Y-82879286D01*
X162559283Y-82719597D01*
X162545422Y-82514073D01*
X162592439Y-82321139D01*
X162675667Y-82176938D01*
X162753731Y-82073750D01*
X161988500Y-82073750D01*
X161988500Y-81819750D01*
X164147500Y-81819750D01*
G36*
X162571863Y-84777723D02*
G01*
X162647121Y-84585998D01*
X162768148Y-84427935D01*
X162929258Y-84311894D01*
X163043946Y-84265569D01*
X163212905Y-84233215D01*
X163401827Y-84226483D01*
X163584730Y-84244502D01*
X163735633Y-84286402D01*
X163741487Y-84288937D01*
X163915314Y-84398435D01*
X164048630Y-84549295D01*
X164137156Y-84730730D01*
X164176612Y-84931952D01*
X164162720Y-85142176D01*
X164128423Y-85264275D01*
X164044573Y-85415313D01*
X163917964Y-85550755D01*
X163768879Y-85650732D01*
X163707930Y-85676193D01*
X163599207Y-85701747D01*
X163459938Y-85719299D01*
X163395362Y-85722205D01*
X163395362Y-85466382D01*
X163572963Y-85437969D01*
X163729673Y-85370635D01*
X163852663Y-85267591D01*
X163913600Y-85172068D01*
X163943877Y-85045368D01*
X163939049Y-84900423D01*
X163901875Y-84767168D01*
X163871320Y-84713311D01*
X163805747Y-84647725D01*
X163711440Y-84579960D01*
X163669391Y-84555877D01*
X163512518Y-84504246D01*
X163331194Y-84491240D01*
X163150653Y-84515936D01*
X162996127Y-84577417D01*
X162990874Y-84580610D01*
X162871037Y-84687477D01*
X162798516Y-84821471D01*
X162772683Y-84969128D01*
X162792909Y-85116982D01*
X162858565Y-85251567D01*
X162969024Y-85359418D01*
X163028812Y-85393593D01*
X163209702Y-85452661D01*
X163395362Y-85466382D01*
X163395362Y-85722205D01*
X163340156Y-85724690D01*
X163101949Y-85699250D01*
X162901634Y-85625796D01*
X162742726Y-85507564D01*
X162628737Y-85347792D01*
X162563180Y-85149717D01*
X162548058Y-84994750D01*
X162571863Y-84777723D01*
G37*
X162571863Y-84777723D02*
X162647121Y-84585998D01*
X162768148Y-84427935D01*
X162929258Y-84311894D01*
X163043946Y-84265569D01*
X163212905Y-84233215D01*
X163401827Y-84226483D01*
X163584730Y-84244502D01*
X163735633Y-84286402D01*
X163741487Y-84288937D01*
X163915314Y-84398435D01*
X164048630Y-84549295D01*
X164137156Y-84730730D01*
X164176612Y-84931952D01*
X164162720Y-85142176D01*
X164128423Y-85264275D01*
X164044573Y-85415313D01*
X163917964Y-85550755D01*
X163768879Y-85650732D01*
X163707930Y-85676193D01*
X163599207Y-85701747D01*
X163459938Y-85719299D01*
X163395362Y-85722205D01*
X163395362Y-85466382D01*
X163572963Y-85437969D01*
X163729673Y-85370635D01*
X163852663Y-85267591D01*
X163913600Y-85172068D01*
X163943877Y-85045368D01*
X163939049Y-84900423D01*
X163901875Y-84767168D01*
X163871320Y-84713311D01*
X163805747Y-84647725D01*
X163711440Y-84579960D01*
X163669391Y-84555877D01*
X163512518Y-84504246D01*
X163331194Y-84491240D01*
X163150653Y-84515936D01*
X162996127Y-84577417D01*
X162990874Y-84580610D01*
X162871037Y-84687477D01*
X162798516Y-84821471D01*
X162772683Y-84969128D01*
X162792909Y-85116982D01*
X162858565Y-85251567D01*
X162969024Y-85359418D01*
X163028812Y-85393593D01*
X163209702Y-85452661D01*
X163395362Y-85466382D01*
X163395362Y-85722205D01*
X163340156Y-85724690D01*
X163101949Y-85699250D01*
X162901634Y-85625796D01*
X162742726Y-85507564D01*
X162628737Y-85347792D01*
X162563180Y-85149717D01*
X162548058Y-84994750D01*
X162571863Y-84777723D01*
G36*
X162555976Y-86499261D02*
G01*
X162591206Y-86333612D01*
X162642325Y-86216585D01*
X162718459Y-86133666D01*
X162824412Y-86072287D01*
X162932337Y-86027388D01*
X162996005Y-86016381D01*
X163026770Y-86042500D01*
X163035983Y-86108982D01*
X163036250Y-86132654D01*
X163027543Y-86220528D01*
X162993658Y-86269939D01*
X162958554Y-86289958D01*
X162854756Y-86370530D01*
X162793018Y-86496693D01*
X162774923Y-86645750D01*
X162791444Y-86791423D01*
X162837833Y-86897314D01*
X162909328Y-86955044D01*
X162955339Y-86963250D01*
X163038447Y-86943470D01*
X163103598Y-86879011D01*
X163157102Y-86762195D01*
X163178804Y-86691429D01*
X163217205Y-86553151D01*
X163258951Y-86402865D01*
X163275473Y-86343397D01*
X163343309Y-86166928D01*
X163435428Y-86046210D01*
X163556369Y-85976642D01*
X163657260Y-85956217D01*
X163822006Y-85969427D01*
X163961279Y-86039782D01*
X164069784Y-86164217D01*
X164094354Y-86209193D01*
X164128611Y-86313481D01*
X164153648Y-86454723D01*
X164167461Y-86609174D01*
X164168047Y-86753090D01*
X164153403Y-86862724D01*
X164150349Y-86872997D01*
X164065830Y-87050616D01*
X163945393Y-87176640D01*
X163876231Y-87217925D01*
X163761178Y-87267443D01*
X163689589Y-87279177D01*
X163652352Y-87250958D01*
X163640360Y-87180614D01*
X163640187Y-87161688D01*
X163648945Y-87077035D01*
X163685406Y-87027210D01*
X163743374Y-86995000D01*
X163856546Y-86909442D01*
X163925459Y-86780046D01*
X163948809Y-86609748D01*
X163945910Y-86540217D01*
X163920387Y-86389003D01*
X163870082Y-86291812D01*
X163790322Y-86242437D01*
X163714686Y-86233000D01*
X163648048Y-86240984D01*
X163595177Y-86270992D01*
X163550310Y-86332114D01*
X163507688Y-86433439D01*
X163461547Y-86584053D01*
X163438573Y-86668554D01*
X163382382Y-86862594D01*
X163328809Y-87003738D01*
X163271861Y-87102002D01*
X163205545Y-87167404D01*
X163123868Y-87209959D01*
X163112091Y-87214237D01*
X162960117Y-87239408D01*
X162824105Y-87208663D01*
X162709237Y-87128668D01*
X162620697Y-87006085D01*
X162563668Y-86847578D01*
X162543333Y-86659811D01*
X162555976Y-86499261D01*
G37*
X162555976Y-86499261D02*
X162591206Y-86333612D01*
X162642325Y-86216585D01*
X162718459Y-86133666D01*
X162824412Y-86072287D01*
X162932337Y-86027388D01*
X162996005Y-86016381D01*
X163026770Y-86042500D01*
X163035983Y-86108982D01*
X163036250Y-86132654D01*
X163027543Y-86220528D01*
X162993658Y-86269939D01*
X162958554Y-86289958D01*
X162854756Y-86370530D01*
X162793018Y-86496693D01*
X162774923Y-86645750D01*
X162791444Y-86791423D01*
X162837833Y-86897314D01*
X162909328Y-86955044D01*
X162955339Y-86963250D01*
X163038447Y-86943470D01*
X163103598Y-86879011D01*
X163157102Y-86762195D01*
X163178804Y-86691429D01*
X163217205Y-86553151D01*
X163258951Y-86402865D01*
X163275473Y-86343397D01*
X163343309Y-86166928D01*
X163435428Y-86046210D01*
X163556369Y-85976642D01*
X163657260Y-85956217D01*
X163822006Y-85969427D01*
X163961279Y-86039782D01*
X164069784Y-86164217D01*
X164094354Y-86209193D01*
X164128611Y-86313481D01*
X164153648Y-86454723D01*
X164167461Y-86609174D01*
X164168047Y-86753090D01*
X164153403Y-86862724D01*
X164150349Y-86872997D01*
X164065830Y-87050616D01*
X163945393Y-87176640D01*
X163876231Y-87217925D01*
X163761178Y-87267443D01*
X163689589Y-87279177D01*
X163652352Y-87250958D01*
X163640360Y-87180614D01*
X163640187Y-87161688D01*
X163648945Y-87077035D01*
X163685406Y-87027210D01*
X163743374Y-86995000D01*
X163856546Y-86909442D01*
X163925459Y-86780046D01*
X163948809Y-86609748D01*
X163945910Y-86540217D01*
X163920387Y-86389003D01*
X163870082Y-86291812D01*
X163790322Y-86242437D01*
X163714686Y-86233000D01*
X163648048Y-86240984D01*
X163595177Y-86270992D01*
X163550310Y-86332114D01*
X163507688Y-86433439D01*
X163461547Y-86584053D01*
X163438573Y-86668554D01*
X163382382Y-86862594D01*
X163328809Y-87003738D01*
X163271861Y-87102002D01*
X163205545Y-87167404D01*
X163123868Y-87209959D01*
X163112091Y-87214237D01*
X162960117Y-87239408D01*
X162824105Y-87208663D01*
X162709237Y-87128668D01*
X162620697Y-87006085D01*
X162563668Y-86847578D01*
X162543333Y-86659811D01*
X162555976Y-86499261D01*
G36*
X164861875Y-87836375D02*
G01*
X164869911Y-92798271D01*
X164870922Y-93478347D01*
X164871639Y-94097436D01*
X164872046Y-94658055D01*
X164872128Y-95162715D01*
X164871867Y-95613931D01*
X164871249Y-96014217D01*
X164870257Y-96366088D01*
X164868875Y-96672055D01*
X164867087Y-96934635D01*
X164864877Y-97156339D01*
X164862229Y-97339683D01*
X164859126Y-97487180D01*
X164855554Y-97601344D01*
X164851495Y-97684689D01*
X164846935Y-97739728D01*
X164841856Y-97768976D01*
X164838161Y-97775393D01*
X164799789Y-97778088D01*
X164703796Y-97780339D01*
X164556062Y-97782124D01*
X164362465Y-97783419D01*
X164128884Y-97784202D01*
X163861197Y-97784449D01*
X163565284Y-97784139D01*
X163247022Y-97783248D01*
X163036250Y-97782372D01*
X161988500Y-97777469D01*
X161988500Y-97186750D01*
X164147500Y-97186750D01*
X164147500Y-96964500D01*
X163408520Y-96964500D01*
X163408520Y-96609501D01*
X163429284Y-96608307D01*
X163665676Y-96567906D01*
X163859782Y-96482328D01*
X164008757Y-96354735D01*
X164109758Y-96188286D01*
X164159943Y-95986141D01*
X164161092Y-95794953D01*
X164143821Y-95679230D01*
X164116567Y-95575813D01*
X164100898Y-95537729D01*
X164054450Y-95470645D01*
X163984414Y-95392761D01*
X163907131Y-95319690D01*
X163838940Y-95267042D01*
X163799741Y-95250000D01*
X163787843Y-95247618D01*
X163787843Y-94960325D01*
X163924837Y-94927575D01*
X164035486Y-94862603D01*
X164088937Y-94797234D01*
X164146599Y-94632084D01*
X164162212Y-94442084D01*
X164136019Y-94249751D01*
X164081429Y-94101962D01*
X164036307Y-94023262D01*
X163997411Y-93971319D01*
X163989203Y-93964406D01*
X163957842Y-93924966D01*
X163984033Y-93891530D01*
X164028140Y-93879021D01*
X164098993Y-93840050D01*
X164149230Y-93759054D01*
X164168981Y-93656592D01*
X164163126Y-93597870D01*
X164136686Y-93529489D01*
X164084799Y-93505334D01*
X164051935Y-93503750D01*
X163981955Y-93516518D01*
X163953266Y-93563615D01*
X163951270Y-93575188D01*
X163945636Y-93600902D01*
X163931188Y-93619876D01*
X163899018Y-93633479D01*
X163840219Y-93643084D01*
X163745884Y-93650061D01*
X163607106Y-93655782D01*
X163414978Y-93661616D01*
X163384003Y-93662500D01*
X163353750Y-93663493D01*
X163353750Y-93329038D01*
X163555070Y-93320207D01*
X163711483Y-93289839D01*
X163839656Y-93231919D01*
X163956254Y-93140432D01*
X164001223Y-93095374D01*
X164087763Y-92964027D01*
X164142778Y-92797780D01*
X164163130Y-92618534D01*
X164145682Y-92448191D01*
X164108736Y-92344875D01*
X164064937Y-92278469D01*
X164001569Y-92201411D01*
X163994805Y-92194063D01*
X163913369Y-92106750D01*
X164030434Y-92106750D01*
X164107517Y-92102504D01*
X164140172Y-92077724D01*
X164147423Y-92014354D01*
X164147500Y-91995625D01*
X164147500Y-91884500D01*
X163408520Y-91884500D01*
X163408520Y-91529501D01*
X163429284Y-91528307D01*
X163665676Y-91487906D01*
X163859782Y-91402328D01*
X164008757Y-91274735D01*
X164109758Y-91108286D01*
X164159943Y-90906141D01*
X164161092Y-90714953D01*
X164143821Y-90599230D01*
X164116567Y-90495813D01*
X164100898Y-90457729D01*
X164054450Y-90390645D01*
X163984414Y-90312761D01*
X163907131Y-90239690D01*
X163838940Y-90187042D01*
X163799741Y-90170000D01*
X163747662Y-90159571D01*
X163721471Y-90150729D01*
X163688921Y-90149946D01*
X163674162Y-90189327D01*
X163671250Y-90259714D01*
X163679062Y-90349642D01*
X163707506Y-90395334D01*
X163733355Y-90407683D01*
X163794026Y-90444300D01*
X163863861Y-90509256D01*
X163876230Y-90523384D01*
X163929394Y-90603908D01*
X163953025Y-90696417D01*
X163956881Y-90783624D01*
X163930718Y-90964897D01*
X163855060Y-91109164D01*
X163733727Y-91211890D01*
X163570535Y-91268539D01*
X163545459Y-91272415D01*
X163417250Y-91289611D01*
X163417250Y-90098320D01*
X163353750Y-90106401D01*
X163353750Y-89868288D01*
X163555070Y-89859457D01*
X163711483Y-89829089D01*
X163839656Y-89771169D01*
X163956254Y-89679682D01*
X164001223Y-89634624D01*
X164087763Y-89503277D01*
X164142778Y-89337030D01*
X164163130Y-89157784D01*
X164145682Y-88987441D01*
X164108736Y-88884125D01*
X164064937Y-88817719D01*
X164001569Y-88740661D01*
X163994805Y-88733313D01*
X163913369Y-88646000D01*
X164030434Y-88646000D01*
X164107517Y-88641754D01*
X164140172Y-88616974D01*
X164147423Y-88553604D01*
X164147500Y-88534875D01*
X164147500Y-88423750D01*
X161988500Y-88423750D01*
X161988500Y-88646000D01*
X162385375Y-88646000D01*
X162570175Y-88648530D01*
X162695156Y-88656770D01*
X162763824Y-88671698D01*
X162779683Y-88694291D01*
X162746239Y-88725529D01*
X162721514Y-88739771D01*
X162654877Y-88807486D01*
X162603454Y-88922720D01*
X162571740Y-89070402D01*
X162564230Y-89235462D01*
X162565580Y-89262565D01*
X162579029Y-89390441D01*
X162605534Y-89481370D01*
X162653970Y-89561764D01*
X162675392Y-89589382D01*
X162765922Y-89681353D01*
X162876115Y-89766739D01*
X162912088Y-89789000D01*
X162987946Y-89827454D01*
X163062454Y-89851174D01*
X163154508Y-89863552D01*
X163283007Y-89867982D01*
X163353750Y-89868288D01*
X163353750Y-90106401D01*
X163250562Y-90119535D01*
X163035822Y-90170000D01*
X162849508Y-90259560D01*
X162704164Y-90381290D01*
X162652089Y-90449973D01*
X162597553Y-90548281D01*
X162569627Y-90640984D01*
X162560343Y-90758232D01*
X162560000Y-90798481D01*
X162587136Y-91017508D01*
X162665693Y-91202450D01*
X162791390Y-91349714D01*
X162959947Y-91455706D01*
X163167084Y-91516833D01*
X163408520Y-91529501D01*
X163408520Y-91884500D01*
X161988500Y-91884500D01*
X161988500Y-92106750D01*
X162385375Y-92106750D01*
X162570175Y-92109280D01*
X162695156Y-92117520D01*
X162763824Y-92132448D01*
X162779683Y-92155041D01*
X162746239Y-92186279D01*
X162721514Y-92200521D01*
X162654877Y-92268236D01*
X162603454Y-92383470D01*
X162571740Y-92531152D01*
X162564230Y-92696212D01*
X162565580Y-92723315D01*
X162579029Y-92851191D01*
X162605534Y-92942120D01*
X162653970Y-93022514D01*
X162675392Y-93050132D01*
X162765922Y-93142103D01*
X162876115Y-93227489D01*
X162912088Y-93249750D01*
X162987946Y-93288204D01*
X163062454Y-93311924D01*
X163154508Y-93324302D01*
X163283007Y-93328732D01*
X163353750Y-93329038D01*
X163353750Y-93663493D01*
X163175024Y-93669365D01*
X163019580Y-93677094D01*
X162907705Y-93686828D01*
X162829434Y-93699709D01*
X162774803Y-93716877D01*
X162738414Y-93736408D01*
X162652109Y-93819414D01*
X162595577Y-93939858D01*
X162566065Y-94105818D01*
X162560000Y-94259737D01*
X162564607Y-94408752D01*
X162581326Y-94518011D01*
X162614505Y-94610779D01*
X162632228Y-94646350D01*
X162720308Y-94764656D01*
X162835485Y-94852932D01*
X162958580Y-94897768D01*
X162996067Y-94900750D01*
X163045993Y-94890216D01*
X163065603Y-94846445D01*
X163068000Y-94795355D01*
X163057552Y-94717260D01*
X163014009Y-94669537D01*
X162964812Y-94644543D01*
X162866900Y-94574035D01*
X162800593Y-94471552D01*
X162765121Y-94350161D01*
X162759712Y-94222933D01*
X162783596Y-94102934D01*
X162836002Y-94003233D01*
X162916158Y-93936899D01*
X163007766Y-93916500D01*
X163090706Y-93933080D01*
X163142512Y-93963799D01*
X163165985Y-93991220D01*
X163184773Y-94027681D01*
X163202170Y-94085210D01*
X163221468Y-94175837D01*
X163245960Y-94311593D01*
X163259918Y-94392750D01*
X163312856Y-94619627D01*
X163383784Y-94785990D01*
X163472613Y-94891650D01*
X163508140Y-94914371D01*
X163642834Y-94957156D01*
X163787843Y-94960325D01*
X163787843Y-95247618D01*
X163747662Y-95239571D01*
X163721471Y-95230729D01*
X163688921Y-95229946D01*
X163674162Y-95269327D01*
X163671250Y-95339714D01*
X163679062Y-95429642D01*
X163707506Y-95475334D01*
X163733355Y-95487683D01*
X163794026Y-95524300D01*
X163863861Y-95589256D01*
X163876230Y-95603384D01*
X163929394Y-95683908D01*
X163953025Y-95776417D01*
X163956881Y-95863624D01*
X163930718Y-96044897D01*
X163855060Y-96189164D01*
X163733727Y-96291890D01*
X163570535Y-96348539D01*
X163545459Y-96352415D01*
X163417250Y-96369611D01*
X163417250Y-95178320D01*
X163250562Y-95199535D01*
X163035822Y-95250000D01*
X162849508Y-95339560D01*
X162704164Y-95461290D01*
X162652089Y-95529973D01*
X162597553Y-95628281D01*
X162569627Y-95720984D01*
X162560343Y-95838232D01*
X162560000Y-95878481D01*
X162587136Y-96097508D01*
X162665693Y-96282450D01*
X162791390Y-96429714D01*
X162959947Y-96535706D01*
X163167084Y-96596833D01*
X163408520Y-96609501D01*
X163408520Y-96964500D01*
X161988500Y-96964500D01*
X161988500Y-97186750D01*
X161988500Y-97777469D01*
X161274125Y-97774125D01*
X161274125Y-87836375D01*
X164861875Y-87836375D01*
G37*
X164861875Y-87836375D02*
X164869911Y-92798271D01*
X164870922Y-93478347D01*
X164871639Y-94097436D01*
X164872046Y-94658055D01*
X164872128Y-95162715D01*
X164871867Y-95613931D01*
X164871249Y-96014217D01*
X164870257Y-96366088D01*
X164868875Y-96672055D01*
X164867087Y-96934635D01*
X164864877Y-97156339D01*
X164862229Y-97339683D01*
X164859126Y-97487180D01*
X164855554Y-97601344D01*
X164851495Y-97684689D01*
X164846935Y-97739728D01*
X164841856Y-97768976D01*
X164838161Y-97775393D01*
X164799789Y-97778088D01*
X164703796Y-97780339D01*
X164556062Y-97782124D01*
X164362465Y-97783419D01*
X164128884Y-97784202D01*
X163861197Y-97784449D01*
X163565284Y-97784139D01*
X163247022Y-97783248D01*
X163036250Y-97782372D01*
X161988500Y-97777469D01*
X161988500Y-97186750D01*
X164147500Y-97186750D01*
X164147500Y-96964500D01*
X163408520Y-96964500D01*
X163408520Y-96609501D01*
X163429284Y-96608307D01*
X163665676Y-96567906D01*
X163859782Y-96482328D01*
X164008757Y-96354735D01*
X164109758Y-96188286D01*
X164159943Y-95986141D01*
X164161092Y-95794953D01*
X164143821Y-95679230D01*
X164116567Y-95575813D01*
X164100898Y-95537729D01*
X164054450Y-95470645D01*
X163984414Y-95392761D01*
X163907131Y-95319690D01*
X163838940Y-95267042D01*
X163799741Y-95250000D01*
X163787843Y-95247618D01*
X163787843Y-94960325D01*
X163924837Y-94927575D01*
X164035486Y-94862603D01*
X164088937Y-94797234D01*
X164146599Y-94632084D01*
X164162212Y-94442084D01*
X164136019Y-94249751D01*
X164081429Y-94101962D01*
X164036307Y-94023262D01*
X163997411Y-93971319D01*
X163989203Y-93964406D01*
X163957842Y-93924966D01*
X163984033Y-93891530D01*
X164028140Y-93879021D01*
X164098993Y-93840050D01*
X164149230Y-93759054D01*
X164168981Y-93656592D01*
X164163126Y-93597870D01*
X164136686Y-93529489D01*
X164084799Y-93505334D01*
X164051935Y-93503750D01*
X163981955Y-93516518D01*
X163953266Y-93563615D01*
X163951270Y-93575188D01*
X163945636Y-93600902D01*
X163931188Y-93619876D01*
X163899018Y-93633479D01*
X163840219Y-93643084D01*
X163745884Y-93650061D01*
X163607106Y-93655782D01*
X163414978Y-93661616D01*
X163384003Y-93662500D01*
X163353750Y-93663493D01*
X163353750Y-93329038D01*
X163555070Y-93320207D01*
X163711483Y-93289839D01*
X163839656Y-93231919D01*
X163956254Y-93140432D01*
X164001223Y-93095374D01*
X164087763Y-92964027D01*
X164142778Y-92797780D01*
X164163130Y-92618534D01*
X164145682Y-92448191D01*
X164108736Y-92344875D01*
X164064937Y-92278469D01*
X164001569Y-92201411D01*
X163994805Y-92194063D01*
X163913369Y-92106750D01*
X164030434Y-92106750D01*
X164107517Y-92102504D01*
X164140172Y-92077724D01*
X164147423Y-92014354D01*
X164147500Y-91995625D01*
X164147500Y-91884500D01*
X163408520Y-91884500D01*
X163408520Y-91529501D01*
X163429284Y-91528307D01*
X163665676Y-91487906D01*
X163859782Y-91402328D01*
X164008757Y-91274735D01*
X164109758Y-91108286D01*
X164159943Y-90906141D01*
X164161092Y-90714953D01*
X164143821Y-90599230D01*
X164116567Y-90495813D01*
X164100898Y-90457729D01*
X164054450Y-90390645D01*
X163984414Y-90312761D01*
X163907131Y-90239690D01*
X163838940Y-90187042D01*
X163799741Y-90170000D01*
X163747662Y-90159571D01*
X163721471Y-90150729D01*
X163688921Y-90149946D01*
X163674162Y-90189327D01*
X163671250Y-90259714D01*
X163679062Y-90349642D01*
X163707506Y-90395334D01*
X163733355Y-90407683D01*
X163794026Y-90444300D01*
X163863861Y-90509256D01*
X163876230Y-90523384D01*
X163929394Y-90603908D01*
X163953025Y-90696417D01*
X163956881Y-90783624D01*
X163930718Y-90964897D01*
X163855060Y-91109164D01*
X163733727Y-91211890D01*
X163570535Y-91268539D01*
X163545459Y-91272415D01*
X163417250Y-91289611D01*
X163417250Y-90098320D01*
X163353750Y-90106401D01*
X163353750Y-89868288D01*
X163555070Y-89859457D01*
X163711483Y-89829089D01*
X163839656Y-89771169D01*
X163956254Y-89679682D01*
X164001223Y-89634624D01*
X164087763Y-89503277D01*
X164142778Y-89337030D01*
X164163130Y-89157784D01*
X164145682Y-88987441D01*
X164108736Y-88884125D01*
X164064937Y-88817719D01*
X164001569Y-88740661D01*
X163994805Y-88733313D01*
X163913369Y-88646000D01*
X164030434Y-88646000D01*
X164107517Y-88641754D01*
X164140172Y-88616974D01*
X164147423Y-88553604D01*
X164147500Y-88534875D01*
X164147500Y-88423750D01*
X161988500Y-88423750D01*
X161988500Y-88646000D01*
X162385375Y-88646000D01*
X162570175Y-88648530D01*
X162695156Y-88656770D01*
X162763824Y-88671698D01*
X162779683Y-88694291D01*
X162746239Y-88725529D01*
X162721514Y-88739771D01*
X162654877Y-88807486D01*
X162603454Y-88922720D01*
X162571740Y-89070402D01*
X162564230Y-89235462D01*
X162565580Y-89262565D01*
X162579029Y-89390441D01*
X162605534Y-89481370D01*
X162653970Y-89561764D01*
X162675392Y-89589382D01*
X162765922Y-89681353D01*
X162876115Y-89766739D01*
X162912088Y-89789000D01*
X162987946Y-89827454D01*
X163062454Y-89851174D01*
X163154508Y-89863552D01*
X163283007Y-89867982D01*
X163353750Y-89868288D01*
X163353750Y-90106401D01*
X163250562Y-90119535D01*
X163035822Y-90170000D01*
X162849508Y-90259560D01*
X162704164Y-90381290D01*
X162652089Y-90449973D01*
X162597553Y-90548281D01*
X162569627Y-90640984D01*
X162560343Y-90758232D01*
X162560000Y-90798481D01*
X162587136Y-91017508D01*
X162665693Y-91202450D01*
X162791390Y-91349714D01*
X162959947Y-91455706D01*
X163167084Y-91516833D01*
X163408520Y-91529501D01*
X163408520Y-91884500D01*
X161988500Y-91884500D01*
X161988500Y-92106750D01*
X162385375Y-92106750D01*
X162570175Y-92109280D01*
X162695156Y-92117520D01*
X162763824Y-92132448D01*
X162779683Y-92155041D01*
X162746239Y-92186279D01*
X162721514Y-92200521D01*
X162654877Y-92268236D01*
X162603454Y-92383470D01*
X162571740Y-92531152D01*
X162564230Y-92696212D01*
X162565580Y-92723315D01*
X162579029Y-92851191D01*
X162605534Y-92942120D01*
X162653970Y-93022514D01*
X162675392Y-93050132D01*
X162765922Y-93142103D01*
X162876115Y-93227489D01*
X162912088Y-93249750D01*
X162987946Y-93288204D01*
X163062454Y-93311924D01*
X163154508Y-93324302D01*
X163283007Y-93328732D01*
X163353750Y-93329038D01*
X163353750Y-93663493D01*
X163175024Y-93669365D01*
X163019580Y-93677094D01*
X162907705Y-93686828D01*
X162829434Y-93699709D01*
X162774803Y-93716877D01*
X162738414Y-93736408D01*
X162652109Y-93819414D01*
X162595577Y-93939858D01*
X162566065Y-94105818D01*
X162560000Y-94259737D01*
X162564607Y-94408752D01*
X162581326Y-94518011D01*
X162614505Y-94610779D01*
X162632228Y-94646350D01*
X162720308Y-94764656D01*
X162835485Y-94852932D01*
X162958580Y-94897768D01*
X162996067Y-94900750D01*
X163045993Y-94890216D01*
X163065603Y-94846445D01*
X163068000Y-94795355D01*
X163057552Y-94717260D01*
X163014009Y-94669537D01*
X162964812Y-94644543D01*
X162866900Y-94574035D01*
X162800593Y-94471552D01*
X162765121Y-94350161D01*
X162759712Y-94222933D01*
X162783596Y-94102934D01*
X162836002Y-94003233D01*
X162916158Y-93936899D01*
X163007766Y-93916500D01*
X163090706Y-93933080D01*
X163142512Y-93963799D01*
X163165985Y-93991220D01*
X163184773Y-94027681D01*
X163202170Y-94085210D01*
X163221468Y-94175837D01*
X163245960Y-94311593D01*
X163259918Y-94392750D01*
X163312856Y-94619627D01*
X163383784Y-94785990D01*
X163472613Y-94891650D01*
X163508140Y-94914371D01*
X163642834Y-94957156D01*
X163787843Y-94960325D01*
X163787843Y-95247618D01*
X163747662Y-95239571D01*
X163721471Y-95230729D01*
X163688921Y-95229946D01*
X163674162Y-95269327D01*
X163671250Y-95339714D01*
X163679062Y-95429642D01*
X163707506Y-95475334D01*
X163733355Y-95487683D01*
X163794026Y-95524300D01*
X163863861Y-95589256D01*
X163876230Y-95603384D01*
X163929394Y-95683908D01*
X163953025Y-95776417D01*
X163956881Y-95863624D01*
X163930718Y-96044897D01*
X163855060Y-96189164D01*
X163733727Y-96291890D01*
X163570535Y-96348539D01*
X163545459Y-96352415D01*
X163417250Y-96369611D01*
X163417250Y-95178320D01*
X163250562Y-95199535D01*
X163035822Y-95250000D01*
X162849508Y-95339560D01*
X162704164Y-95461290D01*
X162652089Y-95529973D01*
X162597553Y-95628281D01*
X162569627Y-95720984D01*
X162560343Y-95838232D01*
X162560000Y-95878481D01*
X162587136Y-96097508D01*
X162665693Y-96282450D01*
X162791390Y-96429714D01*
X162959947Y-96535706D01*
X163167084Y-96596833D01*
X163408520Y-96609501D01*
X163408520Y-96964500D01*
X161988500Y-96964500D01*
X161988500Y-97186750D01*
X161988500Y-97777469D01*
X161274125Y-97774125D01*
X161274125Y-87836375D01*
X164861875Y-87836375D01*
D11*
X159512000Y-74736000D02*
X158182000Y-74736000D01*
X158182000Y-74736000D02*
X158182000Y-73406000D01*
X158182000Y-72136000D02*
X158182000Y-69536000D01*
X160842000Y-69536000D02*
X158182000Y-69536000D01*
X160842000Y-72136000D02*
X160842000Y-69536000D01*
X160842000Y-72136000D02*
X158182000Y-72136000D01*
X115704000Y-64092000D02*
X115704000Y-82212000D01*
X156584000Y-64092000D02*
X115704000Y-64092000D01*
X156584000Y-82212000D02*
X156584000Y-64092000D01*
X115704000Y-82212000D02*
X156584000Y-82212000D01*
X115764000Y-67092000D02*
X115764000Y-72152000D01*
X156524000Y-67092000D02*
X115764000Y-67092000D01*
X156524000Y-79212000D02*
X156524000Y-67092000D01*
X115764000Y-79212000D02*
X156524000Y-79212000D01*
X115764000Y-74152000D02*
X115764000Y-79212000D01*
X115764000Y-72152000D02*
G75*
G02X115764000Y-74152000I0J-1000000D01*
G01*
D10*
X109382000Y-86006000D02*
X110652000Y-84736000D01*
X109382000Y-98706000D02*
X109382000Y-86006000D01*
X110652000Y-99976000D02*
X109382000Y-98706000D01*
X158826200Y-99974400D02*
X110652000Y-99976000D01*
X160105800Y-98706000D02*
X158835800Y-99976000D01*
X160105800Y-86006000D02*
X160105800Y-98706000D01*
X158835800Y-84736000D02*
X160105800Y-86006000D01*
X110652000Y-84736000D02*
X158724600Y-84734400D01*
X96682000Y-97436000D02*
X95412000Y-98706000D01*
X103032000Y-97436000D02*
X96682000Y-97436000D01*
X104302000Y-98706000D02*
X103032000Y-97436000D01*
X115062000Y-89916000D02*
X115062000Y-94996000D01*
X145542000Y-89916000D02*
X115062000Y-89916000D01*
X145542000Y-94996000D02*
X145542000Y-89916000D01*
X115062000Y-94996000D02*
X145542000Y-94996000D01*
X104302000Y-99976000D02*
X110652000Y-99976000D01*
X104302000Y-98706000D02*
X114462000Y-98706000D01*
X104302000Y-99976000D02*
X104302000Y-98706000D01*
X103032000Y-101246000D02*
X104302000Y-99976000D01*
X96682000Y-101246000D02*
X103032000Y-101246000D01*
X95412000Y-99976000D02*
X96682000Y-101246000D01*
X95412000Y-98706000D02*
X95412000Y-99976000D01*
X114462000Y-98706000D02*
X114462000Y-99976000D01*
D11*
X161798000Y-82296000D02*
G75*
G03X161798000Y-82296000I-2286000J0D01*
G01*
X113538000Y-78740000D02*
G75*
G03X113538000Y-78740000I-2286000J0D01*
G01*
X163068000Y-74736000D02*
X161738000Y-74736000D01*
X161738000Y-74736000D02*
X161738000Y-73406000D01*
X161738000Y-72136000D02*
X161738000Y-69536000D01*
X164398000Y-69536000D02*
X161738000Y-69536000D01*
X164398000Y-72136000D02*
X164398000Y-69536000D01*
X164398000Y-72136000D02*
X161738000Y-72136000D01*
D10*
X158678666Y-75628380D02*
X158678666Y-76342666D01*
X158631047Y-76485523D01*
X158535809Y-76580761D01*
X158392952Y-76628380D01*
X158297714Y-76628380D01*
X159154857Y-76628380D02*
X159154857Y-75628380D01*
X159535809Y-75628380D01*
X159631047Y-75676000D01*
X159678666Y-75723619D01*
X159726285Y-75818857D01*
X159726285Y-75961714D01*
X159678666Y-76056952D01*
X159631047Y-76104571D01*
X159535809Y-76152190D01*
X159154857Y-76152190D01*
X160107238Y-75723619D02*
X160154857Y-75676000D01*
X160250095Y-75628380D01*
X160488190Y-75628380D01*
X160583428Y-75676000D01*
X160631047Y-75723619D01*
X160678666Y-75818857D01*
X160678666Y-75914095D01*
X160631047Y-76056952D01*
X160059619Y-76628380D01*
X160678666Y-76628380D01*
X114216380Y-73913904D02*
X115025904Y-73913904D01*
X115121142Y-73866285D01*
X115168761Y-73818666D01*
X115216380Y-73723428D01*
X115216380Y-73532952D01*
X115168761Y-73437714D01*
X115121142Y-73390095D01*
X115025904Y-73342476D01*
X114216380Y-73342476D01*
X114311619Y-72913904D02*
X114264000Y-72866285D01*
X114216380Y-72771047D01*
X114216380Y-72532952D01*
X114264000Y-72437714D01*
X114311619Y-72390095D01*
X114406857Y-72342476D01*
X114502095Y-72342476D01*
X114644952Y-72390095D01*
X115216380Y-72961523D01*
X115216380Y-72342476D01*
X112522095Y-83145380D02*
X112522095Y-83954904D01*
X112569714Y-84050142D01*
X112617333Y-84097761D01*
X112712571Y-84145380D01*
X112903047Y-84145380D01*
X112998285Y-84097761D01*
X113045904Y-84050142D01*
X113093523Y-83954904D01*
X113093523Y-83145380D01*
X114093523Y-84145380D02*
X113522095Y-84145380D01*
X113807809Y-84145380D02*
X113807809Y-83145380D01*
X113712571Y-83288238D01*
X113617333Y-83383476D01*
X113522095Y-83431095D01*
X120457714Y-102008380D02*
X119886285Y-102008380D01*
X120172000Y-102008380D02*
X120172000Y-101008380D01*
X120076761Y-101151238D01*
X119981523Y-101246476D01*
X119886285Y-101294095D01*
X152971523Y-102008380D02*
X152400095Y-102008380D01*
X152685809Y-102008380D02*
X152685809Y-101008380D01*
X152590571Y-101151238D01*
X152495333Y-101246476D01*
X152400095Y-101294095D01*
X153828666Y-101341714D02*
X153828666Y-102008380D01*
X153590571Y-100960761D02*
X153352476Y-101675047D01*
X153971523Y-101675047D01*
X152971523Y-84018380D02*
X152400095Y-84018380D01*
X152685809Y-84018380D02*
X152685809Y-83018380D01*
X152590571Y-83161238D01*
X152495333Y-83256476D01*
X152400095Y-83304095D01*
X153876285Y-83018380D02*
X153400095Y-83018380D01*
X153352476Y-83494571D01*
X153400095Y-83446952D01*
X153495333Y-83399333D01*
X153733428Y-83399333D01*
X153828666Y-83446952D01*
X153876285Y-83494571D01*
X153923904Y-83589809D01*
X153923904Y-83827904D01*
X153876285Y-83923142D01*
X153828666Y-83970761D01*
X153733428Y-84018380D01*
X153495333Y-84018380D01*
X153400095Y-83970761D01*
X153352476Y-83923142D01*
X119310095Y-83103619D02*
X119357714Y-83056000D01*
X119452952Y-83008380D01*
X119691047Y-83008380D01*
X119786285Y-83056000D01*
X119833904Y-83103619D01*
X119881523Y-83198857D01*
X119881523Y-83294095D01*
X119833904Y-83436952D01*
X119262476Y-84008380D01*
X119881523Y-84008380D01*
X120452952Y-83436952D02*
X120357714Y-83389333D01*
X120310095Y-83341714D01*
X120262476Y-83246476D01*
X120262476Y-83198857D01*
X120310095Y-83103619D01*
X120357714Y-83056000D01*
X120452952Y-83008380D01*
X120643428Y-83008380D01*
X120738666Y-83056000D01*
X120786285Y-83103619D01*
X120833904Y-83198857D01*
X120833904Y-83246476D01*
X120786285Y-83341714D01*
X120738666Y-83389333D01*
X120643428Y-83436952D01*
X120452952Y-83436952D01*
X120357714Y-83484571D01*
X120310095Y-83532190D01*
X120262476Y-83627428D01*
X120262476Y-83817904D01*
X120310095Y-83913142D01*
X120357714Y-83960761D01*
X120452952Y-84008380D01*
X120643428Y-84008380D01*
X120738666Y-83960761D01*
X120786285Y-83913142D01*
X120833904Y-83817904D01*
X120833904Y-83627428D01*
X120786285Y-83532190D01*
X120738666Y-83484571D01*
X120643428Y-83436952D01*
X162234666Y-75628380D02*
X162234666Y-76342666D01*
X162187047Y-76485523D01*
X162091809Y-76580761D01*
X161948952Y-76628380D01*
X161853714Y-76628380D01*
X162710857Y-76628380D02*
X162710857Y-75628380D01*
X163091809Y-75628380D01*
X163187047Y-75676000D01*
X163234666Y-75723619D01*
X163282285Y-75818857D01*
X163282285Y-75961714D01*
X163234666Y-76056952D01*
X163187047Y-76104571D01*
X163091809Y-76152190D01*
X162710857Y-76152190D01*
X164234666Y-76628380D02*
X163663238Y-76628380D01*
X163948952Y-76628380D02*
X163948952Y-75628380D01*
X163853714Y-75771238D01*
X163758476Y-75866476D01*
X163663238Y-75914095D01*
M02*
